# Blender 4.1.1
# www.blender.org
o FJ215_BP2573_FMA55609_Left_depressor_septi_nasi
v -0.692303 -183.999695 1488.641113
v -0.412540 -183.147903 1480.165283
v -0.491956 -183.023895 1480.106812
v -0.654277 -183.629898 1485.160034
v -0.656479 -183.477524 1487.114380
v -0.489043 -182.535889 1483.060059
v -0.434313 -183.989914 1487.748657
v 1.874125 -183.484818 1485.241821
v 0.070964 -183.505447 1488.952271
v 0.294240 -183.898666 1490.881714
v 0.636427 -183.988205 1491.671387
v 0.717637 -183.838348 1492.398315
v -0.131628 -182.584045 1480.667236
v 1.231711 -183.661621 1479.816284
v 1.172326 -183.583237 1479.969482
v 1.683850 -182.031235 1488.606934
v 1.552878 -183.449448 1487.547119
v 0.822575 -183.519592 1492.112427
v 0.710957 -181.979889 1493.939941
v 1.310960 -183.806900 1480.209961
v 1.760556 -183.798447 1480.209106
v 1.260765 -183.897125 1479.803955
v 4.016778 -184.222198 1481.980103
v 1.310960 -183.491898 1483.810059
v 1.545229 -183.673874 1487.548462
v 1.661544 -183.297180 1486.466553
v 1.966567 -183.697876 1487.444336
v 1.611480 -183.410339 1488.910156
v 2.176519 -183.210266 1490.862305
v 1.859456 -183.214401 1492.971802
v 2.236873 -182.998978 1492.163818
v 1.385734 -182.935989 1494.186157
v 1.450572 -183.197800 1494.100220
v 1.326135 -181.991928 1487.541992
v 1.648452 -181.669373 1488.970581
v 1.651970 -181.679886 1488.459961
v 1.909338 -181.533386 1495.351074
v 1.975298 -182.387421 1494.970581
v 2.264289 -181.803894 1495.249023
v 1.348723 -181.086288 1494.939941
v 1.234018 -180.470245 1494.929565
v 1.610960 -180.735886 1494.910034
v 1.592049 -180.861221 1494.692383
v 1.639864 -180.976181 1494.921997
v 2.696241 -183.821075 1481.086670
v 2.582663 -183.753296 1481.101562
v 1.685832 -183.421921 1486.286621
v 3.066377 -182.575867 1488.255859
v 3.429833 -182.779861 1488.133545
v 2.773800 -183.005524 1490.471558
v 2.963056 -181.773178 1484.259888
v 2.960960 -181.781891 1484.260010
v 3.951643 -181.772919 1485.537842
v 3.363474 -182.318634 1491.760498
v 3.511380 -182.479233 1490.823730
v 2.925005 -182.141479 1493.261353
v 2.904710 -182.129898 1493.260010
v 2.371220 -180.882187 1487.595703
v 2.360960 -181.021896 1487.560059
v 2.679035 -180.830856 1491.708740
v 3.410960 -180.360886 1491.160034
v 3.862683 -183.781769 1480.660645
v 5.194027 -184.232727 1481.664307
v 3.860960 -183.779892 1480.670044
v 4.010960 -183.779892 1481.199951
v 3.560960 -183.379898 1481.410034
v 4.602266 -183.513962 1483.157104
v 3.975724 -182.919205 1484.782349
v 5.228696 -183.579376 1482.627075
v 4.857719 -182.845062 1486.273926
v 4.974208 -183.137909 1486.597900
v 4.067816 -181.259933 1491.346802
v 3.887574 -182.493469 1490.837158
v 2.371323 -181.034073 1492.825439
v 5.060960 -184.211899 1481.410034
v 5.740992 -183.455566 1480.901611
v 5.538492 -183.424500 1480.785278
v 5.789871 -183.527664 1480.807617
v 5.766038 -183.593567 1481.153198
v 4.174574 -183.171432 1483.580933
v 5.768888 -183.973160 1481.941406
v 4.723190 -183.048782 1486.266113
v 5.463136 -182.220810 1482.839111
v 5.101414 -182.033295 1483.639893
v 4.760960 -181.949890 1484.560059
v 6.609902 -181.802048 1486.158203
v 6.357805 -181.660950 1486.831299
v 4.939524 -180.849426 1490.854858
v 6.305586 -178.819672 1487.906006
v 5.457500 -184.409134 1480.859863
v 5.960960 -184.005890 1481.410034
v 6.711380 -182.581573 1480.959961
v 5.960960 -182.879898 1481.469971
v 7.339721 -182.728912 1483.395630
v 6.718990 -182.579895 1480.959961
v 6.545975 -181.751450 1482.455200
v 6.721716 -181.990982 1486.185669
v 11.341089 -180.227188 1482.100220
v 7.742282 -183.503677 1480.845825
v 7.524649 -182.585770 1480.846436
v 7.763083 -182.716949 1481.070801
v 7.934331 -182.064926 1484.451172
v 8.235980 -180.383163 1486.609741
v 9.531134 -178.571930 1486.457031
v 9.366879 -182.959595 1481.394775
v 9.410960 -182.976898 1481.410034
v 11.153246 -182.071762 1482.091309
v 13.938936 -180.167389 1480.931885
v 12.605943 -182.223251 1480.909424
v 10.294056 -178.478409 1486.050049
v 11.283342 -178.535645 1485.749634
v 11.859544 -180.771439 1481.192993
v 9.368842 -182.955551 1481.403809
v 11.654467 -180.628326 1481.476929
v 11.787200 -180.329895 1481.709961
v 13.254397 -180.381393 1480.313110
v 12.261000 -181.379898 1480.579956
v 12.355557 -181.339233 1480.528442
v 13.499023 -180.881775 1480.802002
v 12.855642 -180.754272 1480.391724
v 14.843426 -177.622192 1483.687744
v 13.161000 -176.936890 1484.709961
v 13.143663 -176.907181 1484.763916
v 14.828035 -179.179825 1481.156250
v 15.111000 -179.279892 1480.959961
v 15.005521 -179.237488 1480.861450
v 15.421518 -179.166290 1481.418091
v 15.411000 -178.921890 1481.560059
v 14.811000 -178.317886 1482.760010
v 14.811000 -178.197891 1482.760010
v 14.700741 -177.373444 1484.077881
v -0.002332 -184.063065 1486.774048
v -0.693471 -184.045929 1488.390747
v -0.626932 -183.930389 1488.630981
v -0.489043 -183.029892 1480.109985
v -0.339043 -183.259888 1480.209961
v -0.610532 -183.625900 1484.939941
v -0.489043 -182.535889 1483.060059
v -0.489043 -182.535889 1483.060059
v -0.489043 -182.535889 1483.060059
v 0.860957 -183.906891 1490.709961
v 0.328258 -183.198425 1491.748291
v 0.710957 -181.979889 1493.939941
v 1.760960 -183.796890 1480.209961
v 1.310960 -183.491898 1483.810059
v 2.366756 -183.275665 1490.679565
v 1.700781 -181.812653 1494.757324
v 1.610960 -180.735886 1494.910034
v 1.638626 -180.735474 1494.896240
v 2.659833 -183.721283 1481.092407
v 2.665400 -183.702560 1481.008057
v 3.000240 -183.629898 1483.959961
v 2.960960 -182.828888 1489.209961
v 3.410960 -180.360886 1491.160034
v 3.862683 -183.781769 1480.660645
v 3.860960 -183.779892 1480.670044
v 3.560960 -183.379898 1481.410034
v 4.663209 -183.199249 1483.368774
v 3.560960 -182.802887 1487.859985
v 3.914112 -182.773819 1488.273560
v 3.866058 -181.799210 1485.821533
v 5.558344 -183.521439 1480.919678
v 5.638590 -183.479889 1480.810059
v 5.644649 -183.516037 1480.859985
v 5.510960 -183.325897 1481.109985
v 5.110266 -183.701187 1482.548096
v 5.430767 -182.367783 1483.365356
v 5.305469 -182.349808 1484.033203
v 4.448916 -181.148849 1490.637695
v 5.142900 -179.415894 1489.060059
v 6.322424 -183.369537 1481.177612
v 6.214800 -183.553741 1481.441406
v 6.711380 -182.581573 1480.959961
v 5.960960 -182.879898 1481.469971
v 6.718990 -182.579895 1480.959961
v 5.960960 -181.829895 1482.859985
v 7.723433 -182.097549 1481.182861
v 7.760960 -178.605896 1487.109985
v 7.610960 -178.781891 1487.859985
v 7.610960 -178.781891 1487.859985
v 7.610960 -178.781891 1487.859985
v 9.567679 -178.752274 1486.541626
v 11.511000 -182.113892 1481.109985
v 11.576097 -182.231033 1481.038330
v 11.337839 -180.360474 1482.129272
v 12.465628 -181.450241 1480.650391
v 13.257320 -180.287476 1480.292603
v 13.188591 -177.199371 1484.717896
v 14.511000 -179.429886 1480.609985
v 15.117000 -179.129898 1480.959961
v 15.434639 -179.049667 1481.449585
v 15.824165 -178.960861 1481.526123
v 15.690354 -179.004929 1481.807129
v 15.417938 -178.945999 1481.740234
v 14.658483 -178.225006 1482.646729
v 14.811534 -178.253555 1482.763306
v 14.811000 -178.197891 1482.760010
v 14.544440 -178.105743 1483.616089
v 14.961000 -177.859894 1483.660034
v 14.829335 -177.328552 1484.005615
v 14.500780 -177.532730 1484.060547
v 1.447712 -181.075394 1495.009399
vn -0.9995 -0.0310 0.0063
vn -0.9963 0.0849 -0.0140
vn -0.9963 0.0844 -0.0141
vn -0.7392 0.6696 0.0726
vn -0.6585 0.7519 -0.0330
vn -0.6864 0.7231 0.0774
vn 0.2179 0.8947 -0.3900
vn -0.1018 0.8938 -0.4367
vn -0.3115 0.9442 -0.1068
vn 0.5621 -0.8219 0.0930
vn 0.5326 -0.8431 0.0738
vn 0.5617 -0.8220 0.0938
vn 0.3212 -0.9466 0.0268
vn 0.4600 -0.8851 0.0712
vn 0.1160 -0.9932 -0.0000
vn 0.5619 -0.8269 0.0239
vn 0.3863 -0.9195 0.0726
vn 0.4795 -0.8735 0.0848
vn 0.4158 -0.9082 0.0475
vn 0.6442 -0.7631 0.0511
vn 0.5123 -0.8572 0.0516
vn -0.8517 -0.4271 0.3035
vn -0.8852 -0.4010 0.2358
vn -0.8750 -0.4014 0.2708
vn -0.3919 -0.9117 -0.1232
vn -0.2590 -0.9403 -0.2207
vn -0.3272 -0.9408 -0.0882
vn 0.2468 0.8668 -0.4332
vn 0.4037 0.7207 -0.5637
vn -0.0409 0.9001 -0.4337
vn -0.4050 -0.9055 -0.1269
vn -0.3306 -0.9130 -0.2390
vn -0.3802 -0.9172 -0.1188
vn 0.1395 -0.9863 0.0882
vn 0.3674 -0.9293 -0.0379
vn 0.1833 -0.9824 0.0364
vn -0.5382 0.8373 0.0964
vn -0.6792 0.7183 0.1508
vn -0.6927 0.6998 0.1746
vn -0.9176 0.3108 0.2478
vn -0.8916 0.3661 0.2665
vn -0.8467 0.4376 0.3026
vn -0.4863 -0.7859 -0.3818
vn -0.7419 -0.6296 -0.2305
vn -0.5701 -0.6755 -0.4676
vn 0.0109 -0.9966 -0.0822
vn 0.1964 -0.9788 0.0582
vn 0.0463 -0.9988 -0.0157
vn -0.6962 0.6884 0.2035
vn -0.7835 0.5951 0.1788
vn -0.7031 0.7018 0.1143
vn -0.9780 0.2074 -0.0221
vn -0.9653 0.1875 -0.1818
vn -0.9608 0.2739 -0.0440
vn -0.6708 -0.6355 0.3822
vn -0.8267 -0.2058 0.5237
vn -0.9701 0.0949 0.2234
vn 0.4634 -0.8034 0.3739
vn 0.0120 -0.9997 -0.0232
vn 0.5441 -0.8164 0.1933
vn -0.5999 0.7985 -0.0502
vn -0.6576 0.7281 0.1934
vn -0.7216 0.6740 0.1584
vn -0.9259 -0.2839 0.2492
vn -0.6736 -0.5648 0.4767
vn -0.9031 0.0147 0.4293
vn 0.6567 -0.3693 -0.6575
vn 0.5032 -0.5580 -0.6599
vn 0.4770 -0.4117 -0.7765
vn -0.2357 -0.9716 -0.0202
vn -0.0555 -0.9959 -0.0712
vn -0.0451 -0.9974 -0.0568
vn 0.6181 0.4363 -0.6539
vn 0.3629 0.8695 -0.3351
vn 0.4566 0.6233 -0.6348
vn -0.2568 -0.9650 0.0526
vn -0.0324 -0.9902 0.1355
vn -0.1370 -0.9905 0.0140
vn 0.2163 -0.9510 -0.2210
vn 0.2342 -0.9586 0.1620
vn 0.3404 -0.9269 0.1584
vn 0.3998 -0.9055 -0.1424
vn 0.4373 -0.8932 0.1052
vn 0.3834 -0.9010 0.2030
vn 0.4004 -0.9152 0.0452
vn 0.5160 -0.8550 0.0518
vn 0.5052 -0.8482 0.1593
vn 0.5520 -0.8175 0.1646
vn 0.5748 -0.8179 0.0233
vn 0.7393 -0.6222 0.2575
vn -0.9288 -0.2442 0.2786
vn -0.5587 -0.4824 0.6746
vn -0.8041 -0.2930 0.5173
vn -0.2194 0.9563 -0.1934
vn -0.0916 0.9805 -0.1736
vn -0.1301 0.9405 -0.3139
vn -0.8520 0.5066 0.1318
vn -0.6768 0.7361 0.0118
vn -0.5873 0.8073 -0.0586
vn -0.5640 0.8188 -0.1068
vn 0.0187 0.9992 0.0362
vn -0.5663 0.8232 0.0400
vn -0.5945 0.8034 -0.0334
vn -0.6446 0.7552 -0.1190
vn -0.3717 0.9186 0.1341
vn -0.4545 0.8765 0.1583
vn -0.5835 0.8100 -0.0587
vn -0.6757 0.7370 0.0117
vn -0.3892 0.9108 0.1378
vn -0.6798 0.7312 -0.0572
vn -0.7437 0.6565 -0.1260
vn 0.4239 -0.8788 0.2189
vn 0.5228 -0.8515 0.0417
vn 0.7571 -0.5868 0.2873
vn -0.7781 -0.0436 0.6266
vn -0.4904 -0.6016 0.6305
vn -0.6039 -0.1809 0.7763
vn -0.1720 -0.6329 0.7549
vn -0.4469 -0.1258 0.8857
vn -0.7129 -0.3552 0.6047
vn 0.0536 -0.5641 0.8240
vn 0.2675 -0.4397 0.8574
vn -0.2308 -0.0927 0.9686
vn -0.8057 0.4859 -0.3386
vn -0.5218 0.7921 -0.3169
vn -0.8655 0.4382 -0.2428
vn 0.7608 0.6059 0.2324
vn 0.8922 0.3828 0.2397
vn 0.7905 0.4999 0.3540
vn -0.1827 -0.9812 -0.0630
vn -0.0187 -0.9849 -0.1719
vn -0.1697 -0.9731 -0.1560
vn 0.0508 0.7630 -0.6444
vn -0.0203 0.9424 -0.3338
vn -0.0603 0.7478 -0.6612
vn -0.0574 -0.9973 0.0452
vn -0.0380 -0.9918 0.1223
vn -0.2612 -0.9604 -0.0970
vn -0.3207 -0.9469 -0.0224
vn -0.3022 -0.9501 -0.0769
vn -0.3123 -0.9482 -0.0587
vn 0.0814 -0.9618 0.2615
vn 0.2076 -0.9779 0.0251
vn 0.1143 -0.9463 0.3025
vn -0.6488 -0.7323 -0.2068
vn -0.7402 -0.6050 -0.2933
vn -0.6122 -0.7484 -0.2552
vn -0.5474 -0.8367 -0.0180
vn -0.5169 -0.8462 -0.1292
vn -0.6366 -0.7693 -0.0547
vn 0.5275 -0.6846 0.5030
vn 0.4305 -0.8227 0.3714
vn 0.4228 -0.8368 0.3477
vn -0.6097 -0.7795 -0.1435
vn -0.6536 -0.7566 -0.0160
vn -0.5057 -0.8284 -0.2408
vn 0.5090 -0.8466 0.1554
vn 0.6606 -0.6883 0.2998
vn 0.4623 -0.8261 0.3222
vn 0.2669 -0.9591 -0.0947
vn 0.1122 -0.9844 -0.1354
vn 0.3204 -0.9458 0.0522
vn -0.3054 -0.9204 -0.2442
vn -0.0653 -0.9860 -0.1535
vn 0.0656 -0.9947 -0.0798
vn 0.4723 -0.8284 0.3011
vn 0.3754 -0.8703 0.3188
vn 0.4456 -0.8419 0.3042
vn 0.4377 -0.8988 0.0238
vn 0.3835 -0.8913 0.2421
vn 0.6100 -0.7427 0.2761
vn 0.4058 -0.8822 0.2388
vn 0.2391 -0.9479 0.2107
vn 0.3420 -0.8438 0.4136
vn -0.0808 0.8999 -0.4286
vn -0.0844 0.8954 -0.4372
vn -0.1635 0.8454 -0.5085
vn 0.0636 0.9558 -0.2871
vn 0.1296 0.9805 -0.1480
vn 0.0605 0.9528 -0.2975
vn 0.2787 -0.9517 0.1284
vn 0.4246 -0.8270 0.3684
vn 0.5239 -0.8420 0.1288
vn 0.2533 -0.9582 -0.1332
vn -0.2766 -0.9357 0.2189
vn 0.0700 -0.9924 0.1009
vn 0.9083 -0.1740 0.3804
vn 0.7013 -0.5434 0.4614
vn 0.7130 -0.5674 0.4119
vn 0.5556 -0.7564 0.3454
vn 0.7902 -0.4622 0.4025
vn 0.8960 -0.3643 0.2537
vn 0.7302 -0.5201 0.4430
vn 0.5259 -0.7886 0.3188
vn 0.5412 -0.7410 0.3976
vn 0.7037 -0.6134 0.3587
vn 0.8382 -0.3217 0.4404
vn 0.5874 -0.7611 0.2750
vn -0.4771 0.7425 -0.4702
vn -0.3317 0.7084 -0.6230
vn -0.6183 0.7730 -0.1419
vn -0.5959 0.8028 -0.0206
vn -0.4471 0.8819 0.1497
vn -0.4874 0.8079 -0.3314
vn -0.6375 0.7645 -0.0960
vn -0.8991 0.4245 -0.1068
vn -0.6253 0.7221 -0.2960
vn -0.5966 0.7859 -0.1626
vn -0.8740 0.4362 -0.2141
vn -0.5815 0.7945 -0.1749
vn 0.7728 0.5205 0.3632
vn 0.8661 0.4178 0.2743
vn 0.8994 0.3100 0.3083
vn 0.7946 0.3127 0.5204
vn 0.7851 0.1284 0.6059
vn 0.6310 0.4835 0.6067
vn -0.0162 0.5299 -0.8479
vn -0.0481 0.4313 -0.9009
vn 0.0689 0.4837 -0.8725
vn -0.3102 0.1520 -0.9384
vn -0.1948 0.2306 -0.9533
vn -0.1163 0.3274 -0.9377
vn -0.3992 0.9152 -0.0548
vn 0.0317 0.8930 -0.4489
vn 0.1915 0.9466 -0.2595
vn -0.0883 -0.9727 0.2146
vn 0.0571 -0.9533 -0.2964
vn 0.1939 -0.9647 -0.1784
vn 0.0798 -0.9928 0.0890
vn -0.0106 -0.9895 0.1441
vn 0.0903 -0.9649 0.2466
vn -0.4933 0.6956 -0.5223
vn -0.4198 0.8021 -0.4249
vn -0.1014 0.9203 -0.3777
vn 0.6562 0.7276 0.2002
vn 0.7236 0.6042 0.3337
vn 0.7551 0.5495 0.3577
vn -0.5212 0.6975 -0.4918
vn -0.3389 0.7279 -0.5961
vn -0.4291 0.7576 -0.4919
vn 0.8312 -0.2392 0.5019
vn 0.6893 -0.4903 0.5334
vn 0.7427 -0.4495 0.4963
vn 0.5052 0.5160 0.6918
vn 0.3454 0.6833 0.6433
vn 0.2717 0.7373 0.6186
vn 0.4678 0.8098 0.3540
vn 0.5861 0.7464 0.3153
vn 0.2995 0.9476 0.1112
vn 0.3133 -0.3274 0.8914
vn 0.3618 -0.4059 0.8393
vn 0.4006 -0.5695 0.7178
vn -0.0130 0.6310 -0.7757
vn -0.2482 0.7870 -0.5648
vn -0.2115 0.7753 -0.5951
vn 0.4545 -0.6021 0.6565
vn 0.3584 -0.7096 0.6067
vn 0.3166 -0.6229 0.7154
vn 0.4074 -0.8520 0.3288
vn 0.2023 -0.9644 0.1704
vn 0.2442 -0.9686 -0.0456
vn 0.3955 -0.7761 0.4911
vn 0.2407 -0.9649 0.1045
vn 0.2334 -0.9384 0.2550
vn -0.6399 0.6448 -0.4181
vn -0.5593 0.7242 -0.4034
vn -0.4580 0.6926 -0.5573
vn 0.0737 0.9949 0.0692
vn 0.3170 0.9347 -0.1605
vn 0.2007 0.9573 0.2081
vn -0.7317 0.4600 -0.5030
vn -0.6812 0.4433 -0.5826
vn -0.6314 0.6579 -0.4105
vn 0.6198 -0.7094 0.3355
vn 0.6627 -0.6880 0.2958
vn 0.6362 -0.7052 0.3130
vn 0.8232 -0.1237 0.5541
vn 0.8500 -0.2121 0.4822
vn 0.8090 -0.1982 0.5533
vn -0.3917 0.8259 -0.4055
vn -0.5256 0.7398 -0.4199
vn -0.4688 0.6930 -0.5477
vn 0.4382 -0.8327 0.3386
vn 0.4884 -0.6536 0.5782
vn 0.4426 -0.8555 0.2689
vn 0.1073 0.8903 0.4425
vn 0.1494 0.8841 0.4429
vn 0.0863 0.8887 0.4503
vn 0.3377 0.6012 0.7242
vn 0.3376 0.6065 0.7198
vn 0.4003 0.6913 0.6015
vn -0.0495 0.0563 -0.9972
vn -0.1313 0.0392 -0.9906
vn -0.0611 0.0636 -0.9961
vn -0.2865 0.7282 -0.6226
vn -0.2082 0.8077 -0.5517
vn -0.1976 0.7401 -0.6428
vn -0.2947 0.6466 -0.7036
vn -0.1782 0.6634 -0.7267
vn -0.3227 0.7488 -0.5789
vn 0.5383 -0.7236 0.4320
vn 0.5497 -0.7463 0.3753
vn 0.5190 -0.7461 0.4172
vn 0.5775 -0.5343 0.6173
vn 0.6259 -0.3085 0.7163
vn 0.7558 -0.3114 0.5760
vn 0.2239 0.7347 0.6404
vn 0.2875 0.7879 0.5445
vn 0.2348 0.8223 0.5184
vn -0.1870 -0.9647 0.1853
vn -0.2375 -0.8960 0.3752
vn -0.0017 -0.9815 0.1913
vn -0.2710 0.7892 -0.5512
vn -0.1840 0.8476 -0.4977
vn -0.3059 0.5548 -0.7737
vn -0.3683 0.8342 -0.4104
vn -0.2110 0.7759 -0.5945
vn -0.3199 0.6321 -0.7058
vn 0.5191 -0.7094 0.4767
vn 0.4875 -0.7622 0.4259
vn 0.5923 -0.7029 0.3938
vn 0.4813 -0.6399 0.5990
vn 0.5891 -0.4274 0.6858
vn 0.5972 -0.4180 0.6845
vn 0.1168 -0.9158 0.3842
vn 0.4464 -0.7862 0.4275
vn 0.3825 -0.8134 0.4383
vn 0.3220 -0.9373 0.1332
vn 0.2948 -0.9399 0.1721
vn 0.3713 -0.9264 0.0630
vn 0.3634 -0.6528 0.6646
vn 0.5528 -0.4307 0.7134
vn 0.5422 -0.4639 0.7006
vn -0.2837 0.9589 0.0013
vn -0.3215 0.9439 0.0747
vn -0.3419 0.9380 -0.0570
vn 0.0884 -0.9787 0.1852
vn -0.0159 -0.9999 0.0045
vn 0.0018 -0.9997 0.0249
vn 0.3319 -0.4469 -0.8307
vn 0.3427 -0.4049 -0.8477
vn 0.4194 -0.5304 -0.7368
vn 0.2376 -0.9100 0.3397
vn 0.0117 -0.8851 0.4652
vn 0.3928 -0.8359 0.3834
vn -0.2369 0.6351 -0.7352
vn -0.3559 0.7572 -0.5477
vn -0.4421 0.6880 -0.5756
vn -0.0242 0.7992 -0.6006
vn -0.1997 0.5918 -0.7810
vn -0.0727 0.4363 -0.8968
vn -0.0070 0.0088 -0.9999
vn 0.0260 0.1828 -0.9828
vn -0.1430 0.3423 -0.9286
vn -0.4606 0.6678 -0.5848
vn -0.4367 0.7194 -0.5401
vn -0.4240 0.7689 -0.4785
vn 0.5971 -0.3362 0.7283
vn 0.5829 -0.5465 0.6014
vn 0.4959 -0.6875 0.5305
vn -0.3788 0.6259 -0.6817
vn -0.5389 0.6549 -0.5298
vn -0.5243 0.6080 -0.5962
vn -0.6191 -0.1418 -0.7724
vn -0.5596 -0.0954 -0.8232
vn -0.6738 0.0142 -0.7388
vn 0.5555 -0.3612 0.7490
vn 0.6373 -0.3923 0.6633
vn 0.5133 -0.3840 0.7675
vn -0.2775 0.7962 -0.5376
vn -0.4636 0.7031 -0.5393
vn -0.3990 0.8045 -0.4399
vn -0.5420 0.3616 -0.7586
vn -0.5873 0.2290 -0.7762
vn -0.5463 0.5933 -0.5912
vn 0.2356 -0.6290 -0.7408
vn 0.1938 -0.5144 -0.8354
vn 0.4839 -0.5440 -0.6855
vn -0.5542 0.6029 -0.5739
vn -0.3053 0.5437 -0.7818
vn -0.4106 0.6284 -0.6607
vn -0.5138 0.6106 -0.6026
vn -0.2509 0.7918 -0.5569
vn -0.4933 0.6397 -0.5894
vn -0.2092 0.8098 -0.5482
vn -0.4101 0.6119 -0.6764
vn -0.4279 0.7250 -0.5397
vn -0.1878 0.7996 -0.5705
vn -0.4926 0.6356 -0.5944
vn -0.2589 0.7914 -0.5538
vn 0.5323 -0.7775 0.3349
vn 0.4632 -0.7403 0.4873
vn 0.4147 -0.8314 0.3699
vn 0.6037 -0.5478 0.5792
vn 0.4362 -0.5746 0.6925
vn 0.2758 -0.7267 0.6291
vn 0.2777 0.8591 -0.4299
vn -0.1532 0.8707 -0.4673
vn 0.2931 0.8456 -0.4462
vn 0.6099 -0.2485 0.7525
vn 0.3922 -0.0280 0.9195
vn 0.4054 0.2178 0.8878
vn 0.4315 -0.3673 -0.8240
vn 0.3576 -0.1812 -0.9161
vn 0.4487 -0.3442 -0.8247
vn 0.7225 -0.6235 -0.2987
vn 0.8147 -0.5382 0.2159
vn 0.6909 -0.6781 -0.2508
vn -0.3463 0.7636 -0.5449
vn 0.0644 0.8411 -0.5370
vn 0.0459 0.8642 -0.5011
vn -0.0093 0.8629 -0.5054
vn 0.0095 0.8401 -0.5423
vn 0.1227 0.8757 -0.4669
vn 0.3952 -0.7464 0.5354
vn 0.4297 -0.7755 0.4625
vn 0.6230 -0.4429 0.6448
vn 0.6850 -0.3429 0.6428
vn 0.7737 -0.1612 0.6127
vn 0.5285 -0.7193 0.4509
s 0
f 1//1 6//2 135//3
f 134//4 16//5 5//6
f 51//7 3//8 138//9
f 132//10 20//11 24//12
f 8//13 10//14 133//15
f 17//16 10//17 8//18
f 12//19 141//20 28//21
f 9//22 12//23 142//24
f 136//25 22//26 137//27
f 51//28 14//29 3//30
f 137//31 22//32 7//33
f 145//34 8//35 133//36
f 5//37 16//38 139//39
f 16//40 34//41 139//42
f 17//43 27//44 10//45
f 10//46 27//47 11//48
f 134//49 18//50 16//51
f 18//52 19//53 16//54
f 12//55 32//56 142//57
f 33//58 12//59 30//60
f 59//61 139//62 34//63
f 142//64 32//65 40//66
f 21//67 45//68 22//69
f 145//70 22//71 45//72
f 14//73 51//74 46//75
f 23//76 8//77 145//78
f 29//79 28//80 68//81
f 29//82 12//83 28//84
f 12//85 29//86 30//87
f 30//88 29//89 31//90
f 12//91 33//92 32//93
f 140//94 58//95 52//96
f 34//97 36//98 59//99
f 34//100 143//101 35//102
f 36//103 35//104 60//105
f 60//106 59//107 36//108
f 60//109 35//110 143//111
f 54//112 33//113 31//114
f 40//115 32//116 37//117
f 38//118 37//119 32//120
f 38//121 39//122 37//123
f 41//124 60//125 143//126
f 149//127 39//128 74//129
f 45//130 75//131 23//132
f 46//133 51//134 66//135
f 23//136 145//137 45//138
f 47//139 8//140 23//141
f 23//142 67//143 68//144
f 25//145 26//146 152//147
f 23//148 27//149 17//150
f 68//151 27//152 23//153
f 68//154 69//155 29//156
f 28//157 27//158 68//159
f 153//160 50//161 29//162
f 70//163 50//164 49//165
f 71//166 55//167 50//168
f 29//169 55//170 31//171
f 29//172 50//173 55//174
f 52//175 93//176 157//177
f 52//178 58//179 93//180
f 55//181 54//182 31//183
f 55//184 73//185 54//186
f 72//187 56//188 73//189
f 54//190 38//191 33//192
f 38//193 54//194 57//195
f 56//196 39//197 38//198
f 89//199 161//200 59//201
f 59//202 60//203 89//204
f 154//205 60//206 44//207
f 170//208 60//209 154//210
f 74//211 39//212 56//213
f 56//214 72//215 74//216
f 65//217 90//218 150//219
f 76//220 90//221 65//222
f 174//223 46//224 66//225
f 63//226 67//227 23//228
f 82//229 159//230 69//231
f 93//232 58//233 83//234
f 83//235 58//236 53//237
f 168//238 161//239 89//240
f 73//241 87//242 72//243
f 74//244 88//245 61//246
f 72//247 169//248 74//249
f 171//250 23//251 75//252
f 46//253 174//254 77//255
f 91//256 80//257 63//258
f 94//259 69//260 172//261
f 94//262 82//263 69//264
f 167//265 96//266 174//267
f 84//268 53//269 85//270
f 84//271 83//272 53//273
f 86//274 55//275 71//276
f 87//277 73//278 97//279
f 98//280 168//281 89//282
f 87//283 108//284 72//285
f 154//286 104//287 170//288
f 88//289 179//290 61//291
f 100//292 90//293 76//294
f 101//295 77//296 174//297
f 101//298 174//299 96//300
f 94//301 160//302 82//303
f 103//304 180//305 169//306
f 170//307 104//308 178//309
f 99//310 105//311 94//312
f 177//313 114//314 100//315
f 96//316 114//317 177//318
f 113//319 102//320 71//321
f 102//322 86//323 71//324
f 102//325 107//326 86//327
f 86//328 108//329 87//330
f 107//331 108//332 86//333
f 96//334 168//335 98//336
f 94//337 172//338 99//339
f 99//340 112//341 106//342
f 113//343 109//344 102//345
f 114//346 96//347 98//348
f 114//349 117//350 100//351
f 90//352 100//353 117//354
f 98//355 89//356 110//357
f 180//358 103//359 111//360
f 114//361 185//362 115//363
f 115//364 185//365 98//366
f 107//367 109//368 108//369
f 122//370 98//371 110//372
f 116//373 186//374 115//375
f 184//376 120//377 119//378
f 115//379 117//380 114//381
f 115//382 122//383 116//384
f 122//385 115//386 98//387
f 126//388 116//389 122//390
f 127//391 103//392 108//393
f 127//394 111//395 103//396
f 130//397 122//398 131//399
f 121//400 123//401 182//402
f 119//403 120//404 125//405
f 125//406 127//407 119//408
f 122//409 130//410 126//411
f 126//412 130//413 128//414
f 111//415 129//416 121//417
f 127//418 195//419 111//420
l 166 171
l 43 147
l 48 146
l 2 4
l 42 202
l 79 164
l 118 183
l 194 197
l 13 15
l 198 200
l 188 201
l 148 149
l 162 165
l 181 182
l 196 199
l 190 191
l 78 163
l 173 175
l 120 124
l 144 151
l 84 176
l 187 189
l 62 64
l 92 95
l 192 193
l 155 156
l 81 158
