# Blender 4.1.1
# www.blender.org
o FJ354_BP2741_FMA86035_Opponens_digiti_minimi_of_left_foot
v 101.624977 -98.202530 12.815868
v 104.148796 -94.320900 11.741189
v 105.915062 -104.505737 8.624451
v 102.102257 -100.622444 12.637204
v 102.378952 -101.025810 12.810271
v 101.923027 -99.319336 12.686271
v 102.049995 -100.490196 12.596890
v 102.092705 -99.023346 12.721437
v 101.758202 -98.208000 12.984259
v 104.899048 -94.166473 11.372465
v 105.350731 -95.176117 11.001299
v 104.266998 -94.480598 12.282307
v 104.619904 -93.448624 11.642161
v 104.621002 -93.780403 11.517406
v 104.677818 -93.867432 11.578041
v 105.259758 -93.739105 11.631325
v 105.602226 -105.529106 10.277533
v 104.936325 -103.054901 11.334527
v 104.706520 -103.079887 11.639543
v 103.795303 -101.357216 12.771377
v 107.220062 -98.654930 9.339983
v 106.702003 -98.756500 9.092638
v 107.266335 -98.647171 9.044246
v 106.890228 -97.748093 9.352779
v 107.287308 -98.679405 9.064115
v 107.493912 -99.083008 9.057340
v 107.434914 -98.636131 8.840583
v 107.805687 -98.782738 9.090361
v 105.881821 -98.303635 11.346836
v 106.912003 -97.781502 9.214417
v 106.986504 -97.950951 9.231534
v 107.215279 -97.948997 9.271724
v 105.909271 -95.218742 10.855816
v 105.740685 -95.387413 11.169922
v 106.153221 -94.935196 11.039287
v 105.720154 -95.594994 10.723377
v 106.021004 -95.025398 10.755908
v 108.235001 -107.319000 7.518418
v 111.191551 -110.492630 6.557948
v 107.230934 -106.476402 9.984533
v 109.244995 -102.192490 7.208170
v 107.293938 -98.729492 8.465399
v 109.598511 -107.431557 6.974661
v 110.073418 -109.051430 8.573694
v 107.111702 -106.351547 9.712022
v 111.645958 -101.251419 8.030733
v 108.819038 -99.292412 8.695749
v 111.910011 -111.005508 6.536272
v 112.891075 -112.054260 7.738861
v 111.678062 -110.785027 7.987342
v 112.499374 -111.758133 7.945676
v 111.824997 -102.084999 8.409038
v 112.002609 -102.093689 8.108477
v 111.824188 -102.130524 8.435068
v 112.180779 -101.884315 8.258968
v 112.474777 -111.692940 6.639781
v 112.932999 -112.440002 7.734889
v 115.865982 -108.081078 6.762834
v 113.378868 -102.944931 8.505324
v 116.455467 -121.162674 6.124070
v 114.023140 -106.252686 9.524849
v 114.429680 -106.058319 9.420379
v 116.372086 -118.720787 5.229041
v 114.609924 -115.832863 7.274964
v 114.472733 -115.743164 7.418237
v 114.790413 -116.002785 7.289325
v 115.977150 -111.525978 9.948478
v 115.931290 -119.904823 6.606312
v 117.976326 -122.653870 6.258559
v 122.481133 -126.540535 4.682003
v 121.290833 -134.534348 1.791897
v 119.669411 -132.326050 3.051759
v 119.149696 -119.816093 9.506071
v 118.518242 -112.418213 9.025075
v 120.873718 -134.633118 1.965155
v 120.335846 -133.393066 2.530231
v 120.731277 -134.758804 2.008401
v 121.225960 -134.562256 2.036693
v 122.193001 -135.223999 2.482030
v 122.690468 -134.971573 2.671357
v 119.195938 -126.980316 5.039056
v 122.982841 -126.296555 6.074888
v 121.341141 -121.236244 8.685267
v 122.702789 -134.998642 2.820343
v 122.940956 -134.747299 3.929709
v 123.027153 -134.737488 3.334625
v 123.323997 -134.917007 3.518950
v 123.421997 -134.940002 3.720300
v 122.588577 -134.388931 3.169203
v 122.430458 -134.318832 3.245524
v 122.828407 -134.353119 3.170712
v 122.726425 -134.462906 3.129477
v 123.028358 -134.598404 3.604052
v 123.284126 -134.350510 4.398977
v 123.449997 -134.147003 4.216920
v 123.234505 -129.873413 4.912597
v 122.311066 -126.300514 7.012971
v 122.461998 -129.569000 6.569110
v 123.282303 -134.361984 5.012779
v 121.871552 -129.752365 6.638854
v 123.019737 -125.750191 6.053274
v 122.135918 -127.454239 6.526221
v 101.845413 -97.735909 12.811057
v 101.751999 -98.216202 13.002108
v 101.731995 -98.263397 13.192199
v 102.157585 -100.097641 12.822471
v 102.398087 -98.938484 12.663207
v 104.931297 -94.278145 11.470392
v 105.288002 -95.105301 11.034708
v 105.224052 -94.424171 11.240606
v 104.167999 -94.316399 11.764807
v 104.167999 -94.316399 11.764807
v 104.167999 -94.316399 11.764807
v 104.266998 -94.480598 12.282307
v 101.921371 -97.369835 13.030038
v 104.266998 -94.480598 12.282307
v 105.230064 -94.043312 11.476665
v 104.848000 -94.021896 11.427307
v 104.848000 -94.021896 11.427307
v 104.528870 -93.934090 11.871696
v 104.714050 -93.753181 11.540142
v 104.621002 -93.780403 11.517406
v 106.056000 -104.523003 8.671047
v 106.702003 -98.756500 9.092638
v 107.450027 -98.164696 9.489529
v 107.240456 -98.628952 9.038486
v 107.248672 -99.099403 8.819594
v 107.417999 -98.736298 8.791778
v 107.285004 -98.657204 9.063448
v 107.285004 -98.657204 9.063448
v 107.506691 -98.457611 8.813684
v 107.501648 -98.431160 8.824451
v 106.276718 -95.377312 11.287548
v 105.674004 -95.378502 11.048108
v 105.795532 -94.934158 10.869236
v 105.912605 -95.692825 10.791432
v 105.835632 -95.570129 10.793488
v 105.842003 -95.574699 10.696608
v 105.898308 -95.597694 10.735007
v 105.815002 -95.603104 10.911108
v 106.005600 -94.965355 10.734505
v 105.807854 -94.856071 10.637897
v 107.099998 -106.332001 10.027408
v 108.761002 -99.450302 8.192418
v 109.739998 -100.054001 8.299767
v 112.786575 -103.079529 8.593291
v 111.806999 -101.722000 8.148787
v 112.932999 -112.440002 7.734889
v 111.694000 -110.804001 8.052579
v 112.959999 -103.323997 8.641197
v 112.959999 -103.323997 8.641197
v 114.607002 -115.777000 7.279748
v 115.803001 -107.251999 8.639008
v 116.404999 -120.549004 6.504979
v 117.976997 -122.653999 6.256829
v 120.875000 -134.632004 1.967890
v 120.706421 -134.946503 2.220455
v 120.605637 -133.518188 2.221480
v 121.293144 -134.593994 2.100229
v 121.305000 -134.647003 2.198050
v 122.193001 -135.223999 2.482030
v 122.193001 -135.223999 2.482030
v 122.193001 -135.223999 2.482030
v 122.336998 -126.447998 4.952439
v 122.763000 -135.003006 2.998830
v 122.763000 -135.003006 2.998830
v 122.763000 -135.003006 2.998830
v 123.028664 -134.763916 3.464406
v 123.075844 -134.814529 3.496121
v 123.412758 -134.954056 3.722957
v 123.156189 -134.748398 3.494846
v 123.139015 -134.742615 3.523829
v 123.323997 -134.917007 3.518950
v 122.507980 -134.937607 3.928313
v 123.421997 -134.940002 3.720300
v 122.619995 -134.381821 3.203308
v 122.717003 -134.186996 3.166200
v 122.757004 -134.466995 3.414610
v 123.011002 -134.449005 3.380120
v 123.376160 -134.257812 4.287117
v 123.369263 -134.251160 4.340804
v 121.842819 -129.268661 6.697479
v 123.468002 -134.171997 4.909300
v 123.468002 -134.171997 4.909300
v 123.468002 -134.171997 4.909300
v 123.468002 -134.171997 4.909300
v 104.734001 -104.193001 10.896108
v 116.443001 -121.223999 6.105559
v 119.621056 -132.276871 2.830419
v 119.512352 -131.903748 3.042784
v 104.266998 -94.480598 12.282307
v 120.169998 -133.496002 2.198900
vn -0.6816 -0.0055 -0.7317
vn -0.6977 0.1241 -0.7056
vn -0.5448 0.3138 -0.7776
vn -0.7260 -0.0160 -0.6875
vn -0.7063 -0.0538 -0.7059
vn -0.7497 0.0050 -0.6618
vn -0.7140 -0.0298 -0.6995
vn -0.7693 -0.1084 -0.6296
vn -0.6638 -0.0082 -0.7479
vn -0.5745 -0.1279 0.8084
vn -0.5423 0.0829 0.8361
vn -0.7031 -0.0566 0.7088
vn 0.0325 0.0010 0.9995
vn 0.1237 -0.1300 0.9838
vn 0.1386 0.0534 0.9889
vn -0.6234 0.2875 -0.7272
vn -0.4758 0.1907 -0.8586
vn -0.5659 0.0738 -0.8211
vn 0.3756 0.0735 0.9239
vn 0.3856 0.0292 0.9222
vn 0.1563 0.0963 0.9830
vn 0.4317 -0.2797 0.8575
vn 0.3219 -0.3780 0.8680
vn 0.1781 -0.4048 0.8969
vn -0.4595 0.1871 -0.8682
vn -0.5386 0.1491 -0.8292
vn -0.3968 0.2013 -0.8956
vn 0.3964 -0.0543 0.9165
vn 0.3499 -0.0238 0.9365
vn 0.4249 0.0582 0.9034
vn -0.4638 0.1253 -0.8770
vn -0.5003 -0.1525 -0.8523
vn -0.4968 -0.0069 -0.8679
vn 0.6457 0.2904 0.7062
vn 0.7231 0.2167 0.6558
vn 0.7001 0.2414 0.6720
vn -0.7287 0.2551 -0.6355
vn -0.7666 0.4538 -0.4544
vn -0.7270 0.2940 -0.6205
vn -0.8682 0.4961 -0.0115
vn -0.6640 0.5448 0.5122
vn -0.7613 0.6112 0.2165
vn -0.4712 -0.0100 -0.8820
vn -0.4478 0.1185 -0.8863
vn -0.4715 -0.0085 -0.8818
vn -0.6437 0.2154 -0.7343
vn -0.6001 0.4390 -0.6687
vn -0.5645 0.3293 -0.7569
vn -0.8231 -0.2713 -0.4989
vn -0.7522 -0.3529 -0.5565
vn -0.8336 -0.5004 -0.2340
vn 0.0692 -0.3136 0.9470
vn -0.2981 -0.6405 0.7078
vn -0.0634 -0.4339 0.8987
vn -0.3575 0.0135 -0.9338
vn -0.4721 0.0519 -0.8800
vn -0.3103 0.0813 -0.9471
vn -0.8285 -0.5587 0.0387
vn -0.8408 -0.5413 0.0015
vn -0.8145 -0.5783 -0.0451
vn -0.2248 -0.5885 0.7766
vn 0.2019 -0.2786 0.9389
vn 0.1599 -0.2759 0.9478
vn 0.7027 -0.0416 0.7103
vn 0.5823 -0.1300 0.8025
vn 0.5733 -0.0728 0.8161
vn -0.5869 -0.6961 0.4135
vn -0.5373 -0.7427 0.3997
vn -0.1541 -0.7195 0.6771
vn -0.4956 0.0749 -0.8653
vn -0.4041 0.2049 -0.8915
vn -0.2754 0.1640 -0.9472
vn 0.6922 -0.1137 0.7127
vn 0.6409 -0.1929 0.7430
vn 0.6955 -0.2349 0.6790
vn -0.3005 0.3894 -0.8707
vn -0.2425 0.2341 -0.9415
vn -0.2241 0.3144 -0.9225
vn -0.6765 -0.3016 -0.6718
vn -0.7917 -0.3111 -0.5258
vn -0.5974 -0.0866 -0.7973
vn 0.6741 0.1252 0.7279
vn 0.7906 0.0480 0.6104
vn 0.8788 0.0472 0.4748
vn 0.6471 0.1854 0.7395
vn 0.8578 0.1840 0.4800
vn 0.6988 0.1980 0.6874
vn 0.1811 0.6198 -0.7636
vn 0.2566 0.5870 -0.7678
vn -0.1108 0.5052 -0.8558
vn 0.6380 0.0285 0.7695
vn 0.6303 -0.0135 0.7763
vn 0.5889 0.0795 0.8043
vn 0.9961 -0.0185 0.0863
vn 0.9987 -0.0233 0.0448
vn 0.9967 -0.0480 0.0650
vn 0.9983 -0.0312 -0.0489
vn 0.9820 -0.0531 -0.1813
vn 0.9971 -0.0295 -0.0699
vn -0.3334 0.0343 -0.9422
vn -0.5788 -0.4014 -0.7098
vn -0.3745 0.0852 -0.9233
vn -0.7564 -0.6255 0.1913
vn -0.3541 -0.6626 0.6600
vn -0.6012 -0.6305 0.4909
vn 0.6209 0.0798 0.7798
vn 0.6880 -0.0368 0.7248
vn 0.5389 0.0862 0.8379
vn 0.7037 0.0425 0.7092
vn 0.6161 0.0607 0.7853
vn 0.8514 0.0398 0.5230
vn -0.1889 0.3370 -0.9224
vn -0.2728 0.2270 -0.9349
vn 0.1049 0.4753 -0.8736
vn -0.5752 -0.2807 -0.7684
vn -0.2561 0.1165 -0.9596
vn -0.3142 -0.1144 -0.9424
vn -0.7701 -0.5118 -0.3809
vn -0.6410 -0.3970 -0.6569
vn -0.7365 -0.5453 -0.4003
vn -0.3085 -0.6942 0.6503
vn -0.0177 -0.6491 0.7605
vn -0.5559 -0.5775 0.5980
vn 0.3448 0.1530 0.9261
vn 0.4391 -0.0704 0.8957
vn 0.2773 0.0169 0.9606
vn 0.3967 0.4777 0.7839
vn 0.3145 0.4002 0.8608
vn 0.3221 0.4005 0.8578
vn -0.5768 -0.7189 0.3878
vn -0.6880 -0.7194 0.0950
vn -0.7443 -0.6666 0.0411
vn -0.0658 0.0213 -0.9976
vn -0.0195 -0.0605 -0.9980
vn 0.0906 0.0238 -0.9956
vn 0.4825 0.2258 0.8463
vn 0.6776 0.3590 0.6418
vn 0.2596 0.0473 0.9646
vn -0.3036 -0.1329 -0.9435
vn -0.2107 -0.0087 -0.9775
vn 0.0740 0.0389 -0.9965
vn 0.1798 0.1940 -0.9644
vn -0.0452 0.2425 -0.9691
vn 0.2362 0.3426 -0.9093
vn -0.0099 -0.3099 0.9507
vn 0.0558 -0.1211 0.9911
vn 0.1630 -0.0367 0.9859
vn 0.3361 -0.0526 0.9404
vn 0.2202 0.0326 0.9749
vn 0.3984 -0.0170 0.9171
vn -0.5418 -0.0810 0.8366
vn -0.4635 0.0503 0.8847
vn -0.3911 -0.0944 0.9155
vn -0.7234 -0.6759 0.1411
vn -0.7880 -0.4523 0.4177
vn -0.7792 -0.5796 0.2386
vn 0.5925 0.0469 0.8042
vn 0.8066 0.3293 0.4910
vn 0.7679 0.4906 0.4119
vn -0.3919 -0.3436 0.8534
vn -0.6067 0.0096 0.7949
vn -0.5564 -0.0537 0.8292
vn -0.8323 -0.3501 0.4299
vn -0.9545 -0.2938 0.0507
vn -0.9132 -0.3740 0.1615
vn -0.7110 -0.3431 0.6138
vn -0.6167 -0.4329 0.6575
vn -0.5582 -0.6835 0.4703
vn -0.6469 -0.5170 0.5605
vn -0.4047 -0.3611 0.8401
vn -0.6374 -0.4330 0.6374
vn 0.1205 0.2562 -0.9591
vn -0.1473 0.0788 -0.9859
vn -0.2248 0.0404 -0.9736
vn -0.2873 -0.3565 0.8890
vn -0.1128 -0.0721 0.9910
vn -0.1840 -0.2588 0.9482
vn 0.6105 0.5263 -0.5918
vn 0.3201 0.2552 -0.9124
vn 0.3248 0.4008 -0.8567
vn 0.7163 0.5182 0.4673
vn 0.5943 0.3668 0.7158
vn 0.7060 0.4602 0.5383
vn 0.3629 0.3845 0.8488
vn 0.4383 0.4727 0.7645
vn 0.1849 0.2665 0.9459
vn 0.3061 0.3500 0.8853
vn 0.0591 0.4327 0.8996
vn 0.2099 0.3317 0.9197
vn -0.6194 -0.0302 -0.7845
vn -0.6464 -0.3372 -0.6845
vn -0.5066 -0.3316 -0.7959
vn -0.1381 -0.2148 0.9668
vn -0.1202 -0.2314 0.9654
vn -0.1119 -0.1769 0.9778
vn -0.1427 -0.1869 0.9719
vn -0.0618 -0.1953 0.9788
vn -0.5690 -0.2554 0.7817
vn 0.3281 0.1904 -0.9252
vn -0.1273 0.1415 -0.9817
vn 0.1734 0.2304 -0.9575
vn 0.5990 0.3775 0.7062
vn 0.6353 0.2698 0.7236
vn 0.7083 0.4699 0.5268
vn 0.3182 0.0469 0.9469
vn 0.3205 0.1193 0.9397
vn 0.0256 0.1589 0.9870
vn -0.9003 -0.3247 0.2898
vn -0.8042 -0.2575 0.5357
vn -0.8382 -0.3319 0.4327
vn 0.9040 0.3864 0.1829
vn 0.8164 0.4196 -0.3968
vn 0.8592 0.5062 -0.0745
vn -0.6497 -0.0993 -0.7537
vn -0.8738 -0.1851 -0.4496
vn -0.3672 -0.4235 -0.8281
vn -0.5096 -0.3878 0.7681
vn -0.2689 -0.3609 0.8930
vn -0.2724 -0.3891 0.8800
vn -0.3965 0.3774 -0.8368
vn 0.5672 0.0608 -0.8214
vn 0.4869 0.2084 -0.8482
vn -0.4067 -0.5310 0.7434
vn -0.1058 -0.5751 0.8112
vn -0.5732 -0.3860 0.7228
vn -0.6606 -0.3789 0.6481
vn -0.6878 -0.3522 0.6347
vn -0.7422 -0.3194 0.5892
vn 0.0751 -0.0375 0.9965
vn 0.5755 0.2184 0.7881
vn 0.2673 0.1598 0.9503
vn -0.6571 0.1524 -0.7382
vn -0.1879 -0.0403 -0.9814
vn -0.5682 0.0107 -0.8228
vn -0.0637 -0.3058 0.9499
vn -0.1548 -0.4247 0.8920
vn 0.0215 -0.5838 0.8116
vn 0.1651 -0.4648 0.8699
vn 0.0833 -0.4856 0.8702
vn 0.1111 -0.2329 0.9661
vn -0.7336 0.0900 -0.6736
vn -0.8576 -0.1410 -0.4947
vn -0.8693 -0.1410 -0.4737
vn 0.8514 0.3877 -0.3534
vn 0.8845 0.3022 -0.3555
vn 0.7313 0.2618 -0.6298
vn 0.9750 0.0686 -0.2114
vn 0.9003 0.3241 0.2907
vn 0.8995 0.3246 0.2924
vn 0.6521 -0.1518 0.7428
vn 0.9511 -0.1491 0.2704
vn 0.6788 0.0625 0.7317
vn 0.9317 0.3520 0.0892
vn 0.8329 0.2756 -0.4799
vn 0.7980 0.3684 -0.4770
vn 0.5307 -0.3670 -0.7640
vn 0.4192 -0.0645 -0.9056
vn 0.7824 -0.0103 -0.6227
vn -0.4718 -0.4929 0.7311
vn -0.5498 -0.5550 0.6242
vn -0.4975 -0.4793 0.7230
vn -0.5850 -0.5043 0.6352
vn -0.4840 -0.4216 0.7668
vn -0.3851 -0.4809 0.7876
vn -0.3584 -0.5287 0.7694
vn -0.5029 -0.4763 0.7212
vn -0.5547 -0.5523 0.6223
vn 0.4871 0.1897 -0.8525
vn 0.5547 -0.0450 -0.8308
vn 0.4352 0.0521 -0.8988
vn -0.5896 -0.4683 0.6581
vn -0.7070 -0.4486 0.5467
vn -0.4237 -0.5185 0.7427
vn -0.8295 -0.5578 0.0270
vn -0.8444 -0.5311 0.0697
vn -0.7780 -0.6239 -0.0745
vn -0.6464 -0.4368 0.6256
vn -0.6315 -0.4443 0.6354
vn -0.6694 -0.3681 0.6454
vn 0.1498 -0.2293 0.9617
vn 0.0918 -0.2666 0.9594
vn 0.4865 -0.1994 0.8506
vn 0.8437 0.1821 -0.5049
vn 0.7651 0.2158 -0.6067
vn 0.9159 0.2371 -0.3239
vn 0.6797 -0.0682 0.7304
vn 0.7483 0.2305 0.6220
vn 0.4454 -0.0502 0.8939
vn -0.5198 -0.6852 0.5102
vn -0.5152 -0.7207 0.4639
vn -0.5072 -0.6888 0.5180
vn 0.9493 -0.1554 -0.2733
vn 0.8970 -0.3829 -0.2210
vn 0.9170 -0.2598 -0.3027
vn 0.8236 0.0777 -0.5619
vn 0.8874 0.1532 -0.4348
vn 0.9233 0.0202 -0.3836
vn 0.7925 0.1480 -0.5916
vn 0.8637 0.1822 -0.4700
vn 0.9022 0.1772 -0.3932
vn 0.9501 0.1169 -0.2891
vn 0.6840 0.1022 -0.7223
vn 0.8600 0.0959 -0.5013
vn -0.0635 0.2177 -0.9739
vn 0.3015 0.1605 -0.9398
vn 0.0598 0.1896 -0.9800
vn 0.8480 0.2484 -0.4683
vn 0.9958 -0.0510 -0.0767
vn 0.9836 0.0595 -0.1702
vn 0.7927 -0.0459 0.6079
vn 0.7328 0.3488 0.5842
vn 0.7599 -0.0222 0.6497
vn 0.9990 -0.0359 0.0256
vn 0.8666 0.0623 0.4950
vn 0.9868 0.0967 0.1296
vn 0.6493 0.0420 0.7594
vn 0.6566 -0.0543 0.7522
vn 0.6783 -0.0421 0.7336
vn 0.5351 -0.1723 0.8270
vn 0.5251 -0.1813 0.8315
vn 0.2480 -0.1541 0.9564
vn 0.8470 -0.1380 0.5134
vn 0.9393 -0.0761 0.3345
vn 0.8895 -0.0958 0.4467
vn 0.8281 -0.0586 0.5575
vn 0.9089 -0.1646 0.3831
vn 0.6491 0.0973 0.7545
s 0
f 3//1 1//2 2//3
f 6//4 3//5 7//6
f 6//7 1//8 3//9
f 5//10 107//11 4//12
f 106//13 20//14 8//15
f 2//16 22//17 3//18
f 20//19 29//20 8//21
f 29//22 105//23 8//24
f 2//25 30//26 22//27
f 12//28 105//29 29//30
f 109//31 112//32 10//33
f 34//34 15//35 114//36
f 1//37 13//38 2//39
f 1//40 191//41 13//42
f 10//43 112//44 14//45
f 2//46 13//47 122//48
f 7//49 3//50 17//51
f 18//52 17//53 40//54
f 43//55 3//56 41//57
f 5//58 4//59 187//60
f 17//61 18//62 106//63
f 21//64 20//65 19//66
f 106//67 18//68 20//69
f 3//70 22//71 41//72
f 29//73 20//74 21//75
f 124//76 24//77 23//78
f 41//79 22//80 42//81
f 29//82 21//83 32//84
f 29//85 32//86 36//87
f 136//88 31//89 113//90
f 114//91 29//92 34//93
f 34//94 29//95 36//96
f 36//97 142//98 34//99
f 43//100 38//101 123//102
f 38//103 39//104 3//105
f 143//106 21//107 19//108
f 143//109 144//110 21//111
f 41//112 42//113 46//114
f 38//115 43//116 39//117
f 17//118 3//119 39//120
f 44//121 40//122 17//123
f 47//124 45//125 52//126
f 55//127 145//128 146//129
f 49//130 17//131 39//132
f 48//133 39//134 43//135
f 49//136 44//137 17//138
f 43//139 41//140 58//141
f 58//142 41//143 46//144
f 149//145 51//146 54//147
f 50//148 52//149 45//150
f 39//151 57//152 49//153
f 39//154 152//155 57//156
f 53//157 58//158 46//159
f 61//160 54//161 51//162
f 64//163 56//164 60//165
f 56//166 48//167 63//168
f 63//169 48//170 43//171
f 58//172 63//173 43//174
f 61//175 51//176 66//177
f 59//178 58//179 53//180
f 151//181 62//182 153//183
f 62//184 54//185 61//186
f 150//187 54//188 62//189
f 56//190 63//191 60//192
f 154//193 69//194 66//195
f 66//196 69//197 61//198
f 70//199 63//200 58//201
f 62//202 74//203 153//204
f 74//205 62//206 61//207
f 67//208 61//209 81//210
f 74//211 58//212 59//213
f 76//214 63//215 71//216
f 68//217 72//218 155//219
f 63//220 70//221 71//222
f 72//223 81//224 155//225
f 81//226 73//227 67//228
f 73//229 74//230 61//231
f 76//232 71//233 75//234
f 72//235 160//236 81//237
f 157//238 160//239 72//240
f 63//241 76//242 60//243
f 58//244 101//245 70//246
f 101//247 74//248 83//249
f 82//250 101//251 83//252
f 74//253 101//254 58//255
f 161//256 71//257 80//258
f 165//259 90//260 163//261
f 90//262 81//263 160//264
f 160//265 163//266 90//267
f 70//268 80//269 71//270
f 90//271 94//272 81//273
f 99//274 81//275 94//276
f 81//277 99//278 73//279
f 73//280 100//281 83//282
f 96//283 70//284 101//285
f 83//286 74//287 73//288
f 94//289 90//290 170//291
f 166//292 80//293 91//294
f 80//295 164//296 91//297
f 177//298 70//299 96//300
f 96//301 93//302 177//303
f 96//304 95//305 174//306
f 96//307 184//308 95//309
f 185//310 97//311 98//312
f 96//313 97//314 184//315
f 102//316 100//317 186//318
f 182//319 97//320 83//321
f 97//322 96//323 82//324
f 97//325 82//326 83//327
l 130 132
l 9 115
l 119 121
l 35 133
l 53 147
l 84 162
l 11 111
l 25 26
l 37 137
l 138 141
l 78 156
l 65 68
l 85 93
l 125 127
l 16 117
l 86 92
l 116 120
l 134 135
l 88 172
l 175 180
l 181 183
l 188 190
l 79 159
l 49 148
l 108 118
l 128 131
l 139 140
l 77 158
l 87 169
l 28 126
l 171 173
l 176 178
l 103 104
l 33 110
l 27 129
l 168 179
l 89 167
l 189 192
