# Blender 4.1.1
# www.blender.org
o FJ372_BP2732_FMA37720_Second_lumbrical_of_left_foot
v 80.954773 -133.597733 6.635489
v 79.183701 -126.091347 8.252015
v 79.257126 -126.350807 8.078698
v 78.258293 -111.242874 10.846231
v 77.818367 -119.386520 9.594168
v 78.912292 -116.591774 11.423040
v 76.700974 -110.698952 12.147621
v 78.559906 -112.911888 12.236081
v 77.093239 -112.552856 11.892582
v 78.865997 -112.293999 10.762209
v 77.639587 -111.025299 11.069594
v 77.489197 -111.816002 11.959808
v 78.892548 -112.805382 11.875397
v 77.175003 -110.644226 11.713775
v 77.664101 -110.698997 11.215408
v 77.282852 -110.670502 11.640378
v 77.892868 -111.113945 11.251362
v 78.080414 -110.812447 11.150647
v 76.976501 -110.393997 11.943608
v 76.859230 -110.541031 11.885872
v 81.560013 -135.423691 6.751296
v 82.800774 -134.291809 5.085408
v 81.169022 -134.332031 6.680960
v 81.170135 -134.303406 6.699026
v 80.303490 -126.594383 9.506161
v 81.392410 -117.711884 8.981004
v 79.242371 -120.555008 11.561972
v 79.852531 -122.349510 10.001983
v 79.551605 -121.484238 11.169461
v 79.842270 -122.102173 10.076155
v 79.097755 -118.780525 12.326219
v 79.338440 -112.526512 12.567392
v 78.889526 -113.158409 12.346946
v 78.768677 -113.437859 13.437240
v 78.412224 -112.501762 11.906089
v 79.130219 -113.064453 12.537301
v 79.292297 -112.295998 13.054508
v 78.793701 -112.403969 13.494998
v 78.847519 -112.526711 13.342604
v 83.770744 -143.312103 5.977555
v 87.736649 -139.316315 2.747779
v 86.398575 -133.884460 3.947769
v 86.581116 -134.574356 3.836826
v 81.811600 -136.046997 7.327150
v 83.089577 -122.908310 7.813221
v 84.074104 -125.783707 7.530829
v 84.139244 -127.485832 6.439431
v 84.961586 -127.615631 7.320022
v 83.356194 -135.701294 8.413352
v 83.305077 -121.018158 9.357165
v 80.063530 -113.676544 12.546812
v 80.333122 -113.474365 12.969326
v 80.393044 -113.539413 12.822469
v 80.310905 -113.389503 12.487768
v 80.392387 -113.165642 12.589188
v 80.027771 -113.240303 12.599689
v 80.369797 -113.266762 12.534563
v 89.749954 -154.965500 0.405635
v 85.766891 -147.861664 5.494854
v 89.041344 -143.053268 2.219566
v 84.978996 -145.968994 5.882381
v 88.764481 -142.332336 2.726649
v 84.961784 -145.938797 5.905374
v 88.767929 -141.745941 2.484263
v 89.028168 -141.877182 2.234316
v 87.118156 -136.326294 4.620766
v 87.012039 -134.939209 5.349068
v 87.443565 -134.491699 5.514625
v 87.419571 -139.756744 2.922856
v 89.406120 -140.210724 4.394298
v 85.690094 -127.163086 7.801336
v 85.646111 -127.106071 7.752222
v 92.624611 -162.599319 -1.450019
v 91.081085 -162.357071 -0.028248
v 92.970413 -159.556580 -1.167271
v 90.810402 -157.794998 -0.607886
v 89.450439 -144.263718 2.178869
v 90.054695 -145.504898 2.334307
v 87.636238 -146.084198 6.460291
v 90.206696 -143.297607 3.245211
v 89.339172 -140.259171 3.972363
v 87.373291 -136.174652 5.071446
v 90.871620 -160.434052 1.969646
v 94.266052 -163.041061 -1.057787
v 90.371323 -158.781036 2.292895
v 92.436600 -151.054993 1.454591
v 91.158363 -145.034515 2.806851
v 92.450096 -150.852890 2.606706
v 91.554108 -147.011139 3.477576
v 94.627190 -170.704498 0.036410
v 98.187172 -176.549454 0.998287
v 90.949684 -160.570190 1.920967
v 94.230209 -162.738129 0.620459
v 93.761497 -162.302002 1.466632
v 94.745842 -166.704819 1.707278
v 93.126511 -158.876099 1.695461
v 95.961845 -173.524582 2.030270
v 99.199310 -175.575729 1.763654
v 96.480797 -170.649002 1.947273
v 99.863640 -176.836838 1.568711
v 99.898636 -176.790848 1.568846
v 100.406143 -179.010162 3.879385
v 101.730515 -179.896042 2.683075
v 101.593681 -180.125320 2.723617
v 100.303642 -179.227280 3.827189
v 101.538391 -180.384659 3.617136
v 100.818741 -179.924896 4.000620
v 101.464874 -180.430084 3.739113
v 78.092003 -119.083000 9.769038
v 76.893188 -110.877571 12.073015
v 77.489197 -111.816002 11.959808
v 77.250397 -112.621002 11.950008
v 77.761719 -110.628609 10.991647
v 77.371071 -111.083458 11.494157
v 76.976501 -110.393997 11.943608
v 76.921791 -110.560883 12.056240
v 76.824898 -110.621002 12.128509
v 77.041763 -110.767975 12.540494
v 77.188698 -110.820999 12.087209
v 79.858818 -122.219971 10.049012
v 78.955597 -118.825996 12.397709
v 78.957123 -118.740822 12.320273
v 78.885002 -116.522003 11.465308
v 78.946251 -113.107300 12.616955
v 79.424500 -113.082001 12.199709
v 79.099655 -112.445435 12.125856
v 79.035751 -113.003410 12.269945
v 78.839203 -112.724998 12.564909
v 79.208633 -113.137123 12.838351
v 79.195663 -112.584717 12.656119
v 79.524590 -113.343391 13.642484
v 79.292297 -112.295998 13.054508
v 79.292297 -112.295998 13.054508
v 79.292297 -112.295998 13.054508
v 79.292297 -112.295998 13.054508
v 79.136398 -112.450996 13.439709
v 79.062599 -112.442719 13.435891
v 87.342003 -137.201385 2.895066
v 86.700462 -134.345932 3.845953
v 81.811699 -136.046997 7.327130
v 83.132881 -122.504028 7.888506
v 82.332161 -118.464348 10.153143
v 80.295906 -113.486961 12.446890
v 80.225784 -113.411980 12.571096
v 80.257103 -113.500000 12.420909
v 80.257103 -113.500000 12.420909
v 80.257103 -113.500000 12.420909
v 80.229187 -113.479530 12.642051
v 80.321861 -113.549690 12.605952
v 80.216400 -113.362000 12.678609
v 80.398422 -113.171562 12.616240
v 80.372871 -113.466103 12.605236
v 80.321701 -113.361000 12.668408
v 89.162102 -142.750061 1.974918
v 88.677742 -142.752350 2.444813
v 86.958900 -136.313995 4.642951
v 86.171288 -129.585114 6.881263
v 92.415604 -150.710007 2.617201
v 97.128197 -175.406998 2.572923
v 99.883904 -177.224213 1.852210
v 100.187592 -178.765045 3.735151
v 101.101280 -179.459885 2.591923
v 101.403809 -180.264816 3.525723
v 76.912270 -113.581444 11.632662
v 78.700996 -113.227997 13.249008
v 78.368843 -113.384178 13.510675
vn -0.5647 0.0839 -0.8210
vn -0.7025 -0.0292 -0.7110
vn -0.5208 0.1109 -0.8464
vn -0.4347 0.0654 -0.8982
vn -0.4642 0.0536 -0.8841
vn -0.2905 0.1650 -0.9425
vn -0.6453 -0.2760 0.7123
vn -0.5229 -0.1871 0.8316
vn -0.6285 -0.3211 0.7085
vn -0.5354 0.1146 -0.8368
vn -0.5834 0.1377 -0.8004
vn -0.2482 0.1763 -0.9525
vn -0.5913 0.1158 -0.7981
vn -0.8469 0.2712 -0.4575
vn -0.6360 0.0853 -0.7669
vn -0.5961 -0.2892 0.7490
vn -0.3369 -0.3086 0.8895
vn -0.4059 -0.2430 0.8810
vn -0.4580 -0.2079 0.8643
vn -0.3346 -0.2025 0.9204
vn -0.4365 -0.3073 0.8456
vn 0.8569 0.5001 0.1248
vn 0.9241 0.3806 -0.0352
vn 0.8936 0.4015 0.2008
vn 0.7964 0.4947 -0.3480
vn 0.7408 0.4870 -0.4627
vn 0.7524 0.5301 -0.3910
vn -0.4913 0.4931 -0.7179
vn -0.6985 0.3496 -0.6244
vn -0.5439 0.6037 -0.5829
vn -0.4456 -0.2526 -0.8589
vn -0.5007 -0.2868 -0.8167
vn -0.4053 -0.0347 -0.9135
vn 0.5087 0.4604 0.7275
vn 0.5497 0.5014 0.6681
vn 0.4225 0.3679 0.8284
vn 0.0622 0.1089 0.9921
vn -0.1670 0.3762 0.9114
vn 0.0814 -0.0645 0.9946
vn 0.2023 0.4570 0.8662
vn 0.5228 0.5262 0.6706
vn 0.5667 0.4983 0.6562
vn -0.1927 0.5947 0.7805
vn 0.0270 0.3561 0.9341
vn -0.2090 0.6650 0.7170
vn 0.5470 -0.2140 0.8093
vn 0.5192 -0.0236 0.8543
vn 0.5311 -0.1959 0.8244
vn -0.6336 0.4329 -0.6412
vn -0.4471 0.2164 -0.8679
vn -0.6559 0.3730 -0.6562
vn -0.7411 0.1872 -0.6448
vn -0.6897 0.1916 -0.6983
vn -0.7529 0.1905 -0.6300
vn 0.3078 0.4321 0.8477
vn 0.4096 0.5779 0.7059
vn 0.5457 0.5038 0.6696
vn 0.6110 0.4398 0.6582
vn 0.5067 0.4912 0.7085
vn 0.6529 0.4855 0.5814
vn -0.9140 -0.2881 0.2858
vn -0.7929 -0.2766 0.5430
vn -0.9646 -0.2209 0.1444
vn -0.7881 -0.3874 0.4784
vn -0.9021 -0.2518 0.3504
vn -0.4842 -0.3680 0.7938
vn -0.3026 -0.0873 -0.9491
vn -0.1717 -0.3129 -0.9342
vn -0.0089 -0.0807 -0.9967
vn -0.8630 -0.1756 0.4737
vn -0.9619 -0.2216 0.1599
vn -0.9898 -0.1335 0.0493
vn -0.9611 -0.1102 -0.2534
vn -0.9028 -0.0201 -0.4295
vn -0.9347 -0.0624 -0.3499
vn -0.9072 -0.1904 0.3753
vn -0.9031 -0.2315 0.3617
vn -0.8338 -0.2260 0.5036
vn -0.9802 -0.1380 -0.1420
vn -0.8847 -0.0008 -0.4661
vn -0.9428 -0.0495 -0.3298
vn -0.5341 -0.2863 0.7955
vn -0.5813 -0.2943 0.7586
vn -0.3714 -0.2973 0.8796
vn -0.1319 0.2367 -0.9626
vn 0.0021 0.2710 -0.9626
vn -0.0061 0.4206 -0.9072
vn -0.6303 -0.1971 0.7509
vn -0.6232 -0.2684 0.7345
vn -0.6809 -0.2224 0.6978
vn -0.9477 -0.2499 0.1984
vn -0.8831 -0.2966 0.3636
vn -0.9268 -0.2835 0.2463
vn -0.3857 0.1924 -0.9023
vn -0.4800 0.1670 -0.8612
vn -0.3721 0.1769 -0.9112
vn -0.6820 -0.2780 0.6765
vn -0.7853 -0.2485 0.5670
vn -0.6824 -0.2527 0.6859
vn -0.9608 -0.0325 -0.2753
vn -0.9511 0.0325 -0.3073
vn -0.9389 0.0644 -0.3381
vn -0.9572 0.1002 -0.2714
vn -0.9317 0.2065 -0.2990
vn -0.9054 0.0534 -0.4212
vn 0.9492 0.3142 -0.0182
vn 0.9385 0.2784 0.2043
vn 0.9512 0.2981 -0.0800
vn -0.9624 0.0742 -0.2612
vn -0.9573 0.0822 -0.2772
vn -0.9483 0.1731 -0.2660
vn 0.2079 -0.1615 0.9647
vn 0.2986 -0.1452 0.9433
vn 0.1609 -0.1480 0.9758
vn 0.9045 0.2437 -0.3500
vn 0.9242 0.3814 -0.0181
vn 0.8396 0.5069 -0.1951
vn 0.6804 0.4893 -0.5456
vn 0.5819 0.6642 -0.4693
vn 0.5374 0.5644 -0.6266
vn -0.2083 -0.2413 0.9478
vn -0.3170 0.0448 0.9474
vn -0.2728 -0.2494 0.9292
vn -0.9945 -0.0418 -0.0958
vn -0.9835 -0.1134 0.1406
vn -0.9592 -0.1869 0.2123
vn -0.9961 -0.0018 -0.0887
vn -0.9843 0.0757 -0.1595
vn -0.9742 0.1496 -0.1688
vn 0.1916 0.6113 0.7679
vn 0.2897 0.6604 0.6927
vn 0.7224 0.3636 0.5881
vn 0.2744 0.4667 0.8408
vn 0.2826 0.5915 0.7552
vn 0.4758 0.7686 0.4277
vn -0.9768 0.2098 -0.0431
vn -0.9338 0.2619 0.2436
vn -0.9506 0.3055 -0.0551
vn 0.7377 0.4678 0.4868
vn -0.1806 0.0546 -0.9820
vn -0.4410 -0.0837 -0.8936
vn -0.1612 0.0566 -0.9853
vn -0.5044 -0.1235 -0.8546
vn -0.8463 -0.2078 -0.4904
vn -0.8399 -0.1814 -0.5116
vn -0.6465 -0.3865 0.6578
vn -0.8468 -0.3573 0.3940
vn -0.9285 -0.0941 0.3592
vn -0.9686 -0.1952 0.1537
vn -0.9924 -0.0487 -0.1129
vn -0.9369 -0.3308 0.1134
vn -0.4007 -0.3195 0.8587
vn -0.6084 -0.2992 0.7351
vn -0.9157 -0.2975 0.2701
vn -0.2679 0.1040 -0.9578
vn -0.4123 0.0875 -0.9069
vn -0.2168 0.2056 -0.9543
vn 0.8162 0.0859 0.5714
vn 0.6495 -0.0288 0.7598
vn 0.6999 0.0873 0.7089
vn 0.9443 0.3081 0.1157
vn 0.9510 0.2404 0.1947
vn 0.9420 0.2960 0.1581
vn 0.9581 0.2862 0.0100
vn 0.9589 0.2828 0.0234
vn 0.9532 0.3022 -0.0123
vn 0.5754 0.3667 -0.7310
vn 0.2599 0.4611 -0.8484
vn 0.5674 0.3616 -0.7398
vn 0.0787 0.3273 -0.9416
vn -0.1179 0.1613 -0.9798
vn -0.3843 0.1727 -0.9069
vn -0.2292 0.1766 -0.9572
vn -0.0548 0.2627 -0.9633
vn 0.2176 0.1701 -0.9611
vn 0.4131 0.3310 -0.8484
vn 0.7374 0.3909 -0.5508
vn 0.5396 0.3780 -0.7523
vn -0.5842 -0.3259 0.7433
vn -0.4807 -0.3219 0.8156
vn 0.0766 -0.1611 0.9840
vn 0.1107 0.1406 -0.9839
vn 0.0388 0.4553 -0.8895
vn 0.2940 0.4071 -0.8648
vn 0.5900 0.5630 -0.5787
vn 0.7168 0.5540 -0.4234
vn 0.7146 0.5315 -0.4549
vn 0.9806 0.1897 0.0503
vn 0.9777 0.1733 0.1188
vn 0.9559 0.1828 0.2297
vn 0.2262 -0.1492 0.9626
vn 0.2164 -0.1225 0.9686
vn 0.1943 -0.1218 0.9733
vn 0.0421 0.3649 -0.9301
vn -0.2783 0.1347 -0.9510
vn -0.3646 -0.0721 -0.9284
vn -0.9848 -0.0624 -0.1621
vn -0.8028 -0.1279 -0.5824
vn -0.8477 -0.2066 -0.4885
vn -0.8273 -0.4545 0.3302
vn -0.7778 -0.5160 0.3588
vn -0.9835 -0.1802 -0.0168
vn -0.0246 -0.2747 0.9612
vn -0.2108 -0.2975 0.9312
vn -0.4593 -0.4264 0.7793
vn 0.1152 0.1653 -0.9795
vn 0.4055 0.3994 -0.8222
vn -0.0410 0.0350 -0.9985
vn -0.9507 -0.3032 -0.0656
vn -0.8355 -0.2808 -0.4723
vn -0.8525 -0.2474 -0.4604
vn -0.8248 -0.5394 0.1699
vn -0.6319 -0.7616 -0.1437
vn -0.8490 -0.3629 -0.3841
vn 0.9280 0.3700 -0.0436
vn 0.9436 0.3196 0.0867
vn 0.9449 0.3251 0.0383
vn -0.3301 0.0967 -0.9390
vn -0.5458 0.0535 -0.8362
vn -0.1388 0.0907 -0.9862
vn 0.6767 -0.0882 0.7310
vn 0.6755 -0.1241 0.7268
vn 0.6425 0.0103 0.7662
vn -0.0145 -0.1884 0.9820
vn -0.1427 -0.1697 0.9751
vn -0.3980 -0.3817 0.8342
vn 0.9344 0.3471 -0.0803
vn 0.8663 0.3708 -0.3346
vn 0.9254 0.2845 0.2504
vn 0.3927 -0.0188 -0.9195
vn 0.4381 0.3712 -0.8187
vn 0.5455 0.3245 -0.7727
vn 0.6074 0.3670 -0.7045
vn 0.6169 0.3416 -0.7090
vn 0.5621 -0.0071 -0.8271
vn 0.5741 0.3566 -0.7371
vn 0.5997 0.3592 -0.7151
vn 0.3056 0.3377 -0.8903
vn -0.0221 0.2818 -0.9592
vn -0.0843 0.2334 -0.9687
vn -0.0638 0.2615 -0.9631
vn 0.1307 0.2791 -0.9513
vn 0.1016 0.2774 -0.9554
vn 0.1064 0.2935 -0.9500
vn 0.8769 0.3923 -0.2778
vn 0.9597 0.2807 0.0100
vn 0.9752 0.2209 0.0144
vn 0.4821 -0.0849 0.8720
vn 0.5253 -0.2070 0.8254
vn 0.4837 -0.2274 0.8452
vn 0.2122 0.1804 -0.9604
vn 0.3003 0.3607 -0.8830
vn 0.4071 0.1949 -0.8923
vn 0.4778 0.4483 -0.7555
vn 0.0497 0.2434 -0.9687
vn 0.5592 0.4302 -0.7087
vn 0.7511 0.1253 0.6481
vn 0.8065 0.0894 0.5844
vn 0.7166 -0.0058 0.6974
vn 0.8683 0.1988 0.4544
vn 0.8927 0.2144 0.3964
vn 0.9090 0.2647 0.3219
vn -0.7180 -0.1135 -0.6867
vn -0.3394 -0.3070 -0.8891
vn -0.8041 -0.1332 -0.5794
vn -0.0907 0.0775 -0.9929
vn -0.3354 0.1832 -0.9241
vn -0.0619 0.0414 -0.9972
vn -0.7338 -0.4966 0.4636
vn -0.9006 -0.3928 0.1861
vn -0.7410 -0.4585 0.4906
vn -0.7680 -0.1323 -0.6267
vn -0.8680 -0.1777 -0.4637
vn -0.7401 -0.0613 -0.6697
vn -0.8504 -0.1620 -0.5006
vn -0.9040 -0.2255 -0.3633
vn -0.7065 -0.0689 -0.7043
vn 0.2922 0.2434 -0.9249
vn 0.2301 0.2293 -0.9458
vn 0.5359 0.2962 -0.7906
vn 0.6485 0.3136 -0.6936
vn 0.3837 0.2369 -0.8926
vn 0.5770 0.3788 -0.7236
vn -0.6303 -0.3130 0.7105
vn -0.8284 -0.3084 0.4675
vn -0.4164 -0.1999 0.8869
vn -0.1184 -0.2846 0.9513
vn -0.2846 -0.2834 0.9158
vn 0.0685 -0.3117 0.9477
vn 0.4418 0.4773 -0.7596
vn 0.4723 0.3506 -0.8087
vn 0.3980 0.3411 -0.8516
vn 0.9121 0.3358 -0.2353
vn 0.6338 0.4314 -0.6420
vn 0.8965 0.3106 -0.3160
vn 0.2415 0.6688 -0.7032
vn 0.1113 0.2862 -0.9517
vn 0.3651 0.4080 -0.8368
vn 0.8315 0.3952 -0.3904
vn 0.8988 0.3820 -0.2150
vn 0.8254 0.3355 -0.4540
vn 0.9036 0.2241 0.3650
vn 0.9669 0.2543 0.0210
vn 0.7926 0.1422 0.5929
vn 0.0143 0.2369 -0.9714
vn 0.0145 0.2966 -0.9549
vn -0.0118 0.2563 -0.9665
vn 0.2984 0.0125 -0.9543
vn 0.5721 0.1499 -0.8063
vn 0.5315 0.0103 -0.8470
vn -0.4900 -0.0320 -0.8711
vn -0.8366 -0.4158 -0.3567
vn -0.7705 -0.2434 -0.5892
vn -0.9405 -0.3385 -0.0291
vn -0.8985 -0.3009 -0.3197
vn -0.7718 -0.4165 0.4805
vn -0.9191 -0.3863 -0.0771
vn -0.8298 -0.3413 0.4414
vn -0.8078 -0.3036 0.5053
vn -0.8971 -0.2166 0.3852
vn -0.8838 -0.2379 0.4028
vn -0.8570 -0.4226 0.2950
vn 0.9054 0.1979 -0.3757
vn 0.5263 0.2577 -0.8103
vn 0.5690 0.2954 -0.7675
vn 0.9576 0.1774 0.2269
vn 0.9312 0.2222 0.2889
vn 0.9515 0.1636 -0.2607
vn -0.0937 -0.3702 0.9242
vn 0.3522 -0.1805 0.9184
vn 0.1783 -0.2265 0.9576
vn 0.8980 0.3518 -0.2643
vn 0.9476 0.3083 -0.0834
vn 0.9316 0.2860 -0.2242
vn 0.9738 0.2106 0.0858
vn 0.9916 0.1295 -0.0044
vn 0.9672 0.2509 0.0388
vn 0.4477 -0.0723 0.8912
vn 0.6078 -0.0493 0.7926
vn 0.7081 0.0368 0.7051
vn 0.4946 0.0097 0.8691
vn 0.7012 0.0987 0.7061
vn 0.6304 0.0739 0.7727
vn 0.6410 0.0598 0.7652
vn 0.7110 0.0547 0.7011
vn 0.5432 0.0105 0.8395
vn 0.9121 0.3453 0.2209
vn 0.6643 0.2329 0.7103
vn 0.6215 0.6805 0.3882
vn -0.1520 -0.1855 0.9708
vn -0.4417 -0.3521 0.8252
vn -0.3773 -0.2775 0.8835
vn 0.9065 0.0453 0.4197
vn 0.7290 0.0573 0.6822
vn 0.8692 0.1960 0.4539
vn 0.1287 0.0351 0.9911
vn -0.0508 -0.2498 0.9670
vn 0.0884 -0.1121 0.9898
vn 0.8981 0.2345 -0.3722
vn 0.6955 0.2607 -0.6696
vn 0.9663 0.1679 -0.1953
vn 0.7958 0.0393 0.6043
vn 0.6693 -0.0281 0.7425
vn 0.4981 -0.0272 0.8667
vn 0.7111 0.1018 0.6957
vn 0.6264 0.0310 0.7789
vn 0.5650 -0.1317 0.8145
vn 0.8279 0.2337 0.5100
vn 0.6112 0.0401 0.7904
vn 0.9065 -0.0109 0.4221
vn -0.1503 -0.4387 -0.8860
vn -0.1002 -0.2003 -0.9746
vn -0.3847 -0.0586 -0.9212
vn 0.4141 -0.2439 -0.8770
vn 0.5130 0.0235 -0.8581
vn 0.6447 0.2002 -0.7378
vn -0.0212 -0.0324 0.9993
vn -0.0418 -0.1187 0.9920
vn 0.3419 0.3092 0.8874
vn 0.9059 0.2961 0.3027
vn 0.9099 0.1703 0.3783
vn 0.5623 0.2113 0.7995
vn 0.9187 0.2884 0.2696
vn 0.8918 0.3526 -0.2836
vn 0.9175 0.3085 -0.2509
vn 0.0956 0.2271 0.9692
vn -0.2256 0.1203 0.9668
vn -0.3850 0.0904 0.9185
vn -0.4523 -0.4351 0.7785
vn -0.4774 -0.0780 0.8752
vn -0.3529 0.1727 0.9196
vn 0.9006 0.4150 -0.1290
vn 0.8958 0.4403 0.0602
vn 0.8362 0.4262 0.3452
vn 0.4822 0.2031 0.8522
vn 0.2344 0.2470 0.9402
vn 0.8909 0.2602 0.3723
vn 0.8736 0.3297 0.3579
vn 0.8334 0.4706 0.2897
vn 0.8576 0.4837 -0.1749
vn 0.5555 0.3350 -0.7610
vn 0.2804 0.0589 -0.9581
vn 0.2100 0.2046 -0.9560
vn -0.8228 -0.5673 -0.0336
vn -0.7613 -0.5078 -0.4031
vn -0.7657 -0.5868 -0.2633
vn 0.7597 0.5026 0.4126
vn 0.8318 0.4317 0.3489
vn 0.7764 0.4457 0.4456
vn 0.8410 0.4868 0.2362
vn 0.8165 0.4361 0.3783
vn 0.7890 0.4974 0.3607
vn 0.2847 -0.0558 -0.9570
vn 0.3244 -0.3712 -0.8701
vn 0.2419 -0.1793 -0.9536
vn -0.3672 -0.8702 -0.3284
vn -0.5606 -0.7135 -0.4202
vn -0.2556 -0.7673 -0.5881
vn 0.7586 0.6054 0.2410
vn 0.7106 0.6438 0.2839
vn 0.7906 0.4127 0.4524
vn -0.7857 -0.5754 -0.2272
vn -0.7153 -0.6001 0.3581
vn -0.8361 -0.5390 -0.1024
vn -0.1858 0.2504 0.9501
vn -0.4167 -0.0108 0.9090
vn -0.5753 -0.3362 0.7457
vn -0.5910 -0.7881 -0.1721
vn -0.6377 -0.7702 -0.0106
vn -0.5886 -0.6965 -0.4104
s 0
f 22//1 1//2 5//3
f 1//4 2//5 5//6
f 3//7 6//8 109//9
f 5//10 11//11 4//12
f 5//13 7//14 11//15
f 109//16 6//17 9//18
f 8//19 9//20 6//21
f 13//22 141//23 18//24
f 10//25 26//26 4//27
f 11//28 7//29 14//30
f 4//31 11//32 113//33
f 35//34 16//35 12//36
f 112//37 35//38 111//39
f 35//40 13//41 18//42
f 35//43 112//44 8//45
f 118//46 112//47 111//48
f 15//49 11//50 14//51
f 19//52 14//53 7//54
f 12//55 16//56 20//57
f 16//58 35//59 18//60
f 23//61 3//62 1//63
f 3//64 23//65 24//66
f 1//67 21//68 23//69
f 21//70 44//71 120//72
f 44//73 25//74 120//75
f 3//76 24//77 21//78
f 44//79 27//80 25//81
f 29//82 140//83 63//84
f 22//85 4//86 26//87
f 21//88 28//89 3//90
f 29//91 63//92 31//93
f 22//94 5//95 4//96
f 6//97 3//98 28//99
f 25//100 27//101 30//102
f 121//103 30//104 27//105
f 46//106 141//107 32//108
f 121//109 34//110 30//111
f 122//112 49//113 38//114
f 32//115 37//116 50//117
f 141//118 13//119 32//120
f 6//121 33//122 8//123
f 30//124 34//125 123//126
f 123//127 34//128 124//129
f 35//130 33//131 13//132
f 8//133 33//134 35//135
f 165//136 39//137 128//138
f 136//139 150//139 132//139
f 59//140 40//141 1//142
f 22//143 59//144 1//145
f 40//146 21//147 1//148
f 44//149 21//150 40//151
f 63//152 140//153 40//154
f 41//155 22//156 42//157
f 47//158 69//159 139//160
f 64//161 141//162 66//163
f 141//164 46//165 66//166
f 46//167 48//168 156//169
f 45//170 42//171 22//172
f 22//173 26//174 45//175
f 48//176 46//177 50//178
f 31//179 63//180 49//181
f 32//182 50//183 46//184
f 134//185 52//186 142//187
f 49//188 57//189 53//190
f 49//191 53//192 38//193
f 77//194 75//195 58//196
f 59//197 22//198 58//199
f 59//200 61//201 40//202
f 79//203 63//204 59//205
f 41//206 77//207 58//208
f 41//209 60//210 77//211
f 63//212 40//213 61//214
f 41//215 62//216 60//217
f 58//218 22//219 41//220
f 64//221 66//222 155//223
f 79//224 49//225 63//226
f 138//227 43//228 64//229
f 82//230 78//231 156//232
f 156//233 67//234 82//235
f 67//236 156//237 48//238
f 68//239 82//240 157//241
f 157//242 82//243 48//244
f 81//245 71//246 70//247
f 70//248 57//249 49//250
f 48//251 50//252 157//253
f 72//254 157//255 50//256
f 70//257 71//258 57//259
f 51//260 72//261 50//262
f 76//263 73//264 74//265
f 73//266 58//267 75//268
f 85//269 59//270 74//271
f 76//272 74//273 58//274
f 74//275 59//276 58//277
f 75//278 77//279 86//280
f 86//281 77//282 80//283
f 80//284 77//285 78//286
f 79//287 59//288 85//289
f 155//290 66//291 77//292
f 66//293 78//294 77//295
f 78//296 82//297 80//298
f 81//299 70//300 80//301
f 89//302 87//303 70//304
f 82//305 68//306 80//307
f 73//308 75//309 91//310
f 73//311 90//312 74//313
f 74//314 90//315 97//316
f 74//317 97//318 83//319
f 83//320 85//321 74//322
f 84//323 75//324 86//325
f 87//326 93//327 84//328
f 85//329 96//330 79//331
f 80//332 70//333 86//334
f 89//335 158//336 87//337
f 79//338 96//339 89//340
f 79//341 89//342 49//343
f 89//344 70//345 49//346
f 92//347 83//348 97//349
f 85//350 92//351 95//352
f 93//353 96//354 94//355
f 96//356 85//357 95//358
f 93//359 87//360 88//361
f 93//362 88//363 96//364
f 88//365 89//366 96//367
f 158//368 88//369 87//370
f 91//371 90//372 73//373
f 91//374 84//375 98//376
f 92//377 97//378 95//379
f 93//380 94//381 95//382
f 93//383 98//384 84//385
f 102//386 97//387 159//388
f 97//389 102//390 95//391
f 99//392 95//393 102//394
f 95//395 99//396 93//397
f 93//398 105//399 98//400
f 98//401 100//402 91//403
f 97//404 90//405 91//406
f 104//407 101//408 105//409
f 101//410 98//411 105//412
f 100//413 103//414 91//415
f 106//416 91//417 103//418
f 104//419 105//420 108//421
f 91//422 107//423 97//424
f 102//425 159//426 107//427
f 106//428 107//429 91//430
l 116 119
l 56 143
l 160 162
l 110 164
l 9 117
l 129 131
l 39 166
l 146 149
l 65 154
l 161 163
l 13 126
l 145 148
l 125 130
l 147 152
l 133 137
l 135 144
l 36 127
l 54 55
l 151 153
l 17 114
l 115 14
