# Blender 4.1.1
# www.blender.org
o FJ394_BP2579_FMA46804_Left_levator_labii_superioris_alaeque_nas
v 9.605412 -174.965347 1520.300415
v 10.476787 -175.385193 1517.410889
v 10.324400 -174.785873 1518.500000
v 9.100259 -173.854813 1523.470947
v 9.859398 -174.307999 1523.152466
v 9.800308 -174.301971 1523.071777
v 9.715016 -174.369263 1523.293701
v 9.806188 -174.519730 1523.147583
v 9.923503 -174.221909 1523.250000
v 10.179200 -173.532883 1522.699951
v 12.568052 -177.757812 1512.096069
v 10.929200 -175.532883 1516.699951
v 11.137800 -173.195679 1520.086304
v 11.219368 -172.729935 1519.868164
v 10.826583 -172.825378 1519.692627
v 10.929200 -173.073883 1520.000000
v 11.035072 -172.911530 1519.849121
v 11.056293 -172.986862 1519.861084
v 10.964401 -172.883667 1520.093018
v 11.194439 -172.766159 1519.915649
v 11.519834 -173.083069 1519.651489
v 12.914807 -179.535934 1504.902832
v 12.326497 -178.923035 1496.075684
v 12.379974 -178.941193 1496.156494
v 12.647789 -179.207016 1495.865723
v 12.344254 -179.465805 1504.325439
v 12.893337 -178.369553 1504.461914
v 12.548350 -179.325195 1507.625366
v 12.713263 -179.210236 1508.624146
v 12.554266 -178.819397 1509.607300
v 12.139410 -178.164612 1512.471191
v 12.333567 -178.656921 1513.299927
v 11.829200 -177.635895 1495.819946
v 12.537490 -176.859680 1495.197388
v 13.085023 -177.440125 1495.207031
v 12.946748 -177.529251 1502.233521
v 12.399371 -177.620941 1500.215698
v 12.870974 -177.623734 1501.360107
v 12.755478 -177.662323 1502.100464
v 12.520993 -176.888229 1495.222534
v 12.512877 -176.692963 1495.415894
v 12.531396 -176.981796 1495.473877
v 13.164631 -177.304596 1495.316895
v 12.729200 -176.258896 1497.949951
v 12.730856 -176.237442 1497.923218
v 12.578466 -178.350922 1512.897827
v 12.703729 -172.967438 1516.710083
v 12.936600 -174.035873 1517.300049
v 13.152649 -172.896393 1516.436523
v 12.011985 -172.825882 1519.535645
v 11.989900 -172.685883 1519.550049
v 12.448141 -179.060425 1497.486816
v 13.605979 -178.935333 1503.458862
v 13.196017 -177.485840 1495.191772
v 13.129641 -177.752792 1494.984863
v 13.545905 -177.553146 1495.328613
v 14.032981 -177.023453 1503.635010
v 13.847503 -177.120758 1502.263794
v 12.744563 -177.729584 1502.501099
v 14.586624 -177.491669 1509.776489
v 13.730664 -177.645493 1506.539307
v 13.465654 -176.238037 1499.762817
v 14.005239 -177.136505 1503.244019
v 14.063884 -176.886078 1504.695068
v 13.566975 -173.037018 1512.711060
v 13.963033 -173.288040 1512.450684
v 13.338040 -172.543076 1515.615356
v 14.523200 -177.485886 1509.800049
v 13.904393 -177.133408 1503.354858
v 14.608680 -176.034332 1507.965820
v 13.673203 -177.317871 1503.619751
v 14.757700 -176.585892 1507.099976
v 14.648077 -176.076263 1507.995850
v 14.284200 -176.435898 1512.349976
v 14.918496 -175.566513 1508.843994
v 14.458010 -174.319397 1511.623413
v 14.090878 -173.297424 1515.540649
v 10.479200 -175.385880 1517.410034
v 9.617840 -174.785873 1520.900024
v 9.741040 -174.215408 1522.841675
v 10.019742 -174.201187 1523.087769
v 10.179200 -173.532883 1522.699951
v 10.179200 -173.532883 1522.699951
v 10.179200 -173.532883 1522.699951
v 11.016999 -172.964645 1520.150146
v 10.880794 -173.281738 1521.003418
v 10.929200 -173.073883 1520.000000
v 11.035605 -172.992737 1519.878418
v 11.031100 -172.835876 1519.849976
v 11.237095 -172.990646 1519.957397
v 11.243975 -172.728745 1519.906982
v 11.228975 -172.835876 1519.987793
v 12.295965 -178.579132 1496.207275
v 12.429200 -179.043900 1497.500000
v 12.256613 -179.518692 1508.126587
v 12.706928 -179.313507 1508.766235
v 11.829200 -177.635895 1495.819946
v 11.829200 -177.635895 1495.819946
v 12.417907 -177.351273 1500.290405
v 12.844630 -177.376297 1495.007080
v 12.529103 -177.271622 1501.494873
v 12.984103 -177.856934 1502.117310
v 12.512903 -176.904739 1495.165771
v 12.505126 -176.673172 1495.402588
v 12.729200 -176.258896 1497.949951
v 12.488900 -174.335892 1514.000000
v 12.068886 -172.746582 1519.671021
v 11.960246 -172.758362 1519.551392
v 13.066090 -177.720215 1495.491577
v 13.062741 -177.306961 1495.421997
v 13.440885 -177.562469 1495.467896
v 13.405700 -177.635895 1495.550049
v 13.405700 -177.635895 1495.550049
v 13.629200 -177.635895 1506.099976
v 13.360800 -176.585892 1498.550049
v 13.360800 -176.585892 1498.550049
v 14.561004 -173.773026 1511.832031
v 14.079200 -173.336899 1512.349976
v 15.274532 -175.751740 1507.576782
v 14.700191 -175.764984 1508.344482
v 14.628723 -175.318390 1509.803589
v 14.781500 -175.219894 1509.550049
v 14.829200 -175.256897 1509.500000
v 14.229200 -174.485886 1511.130005
v 14.321655 -174.195206 1511.493774
v 10.322700 -175.161880 1521.219971
v 11.829200 -177.635895 1495.819946
vn -0.7319 0.5470 -0.4064
vn -0.9134 0.1776 -0.3662
vn -0.9052 0.3609 -0.2247
vn -0.7394 0.4525 -0.4985
vn -0.5055 0.7235 -0.4701
vn -0.7457 0.5492 -0.3774
vn -0.9535 -0.1390 -0.2675
vn -0.9889 0.0425 -0.1422
vn -0.9463 -0.1511 -0.2859
vn -0.7971 0.4223 -0.4316
vn -0.9486 0.2489 -0.1954
vn -0.8369 0.4058 -0.3672
vn -0.2224 0.9742 0.0394
vn -0.3262 0.8709 0.3676
vn -0.0893 0.9509 0.2964
vn -0.9251 0.1932 -0.3268
vn -0.8482 0.2854 -0.4463
vn -0.8843 0.3785 -0.2735
vn -0.7756 0.4143 -0.4763
vn -0.5372 0.7124 -0.4516
vn -0.7431 0.3837 -0.5483
vn -0.3464 -0.9135 0.2135
vn -0.3489 -0.9187 0.1850
vn -0.3406 -0.9173 0.2062
vn -0.8919 0.3678 -0.2630
vn -0.8498 0.2695 -0.4529
vn -0.8627 0.3769 -0.3371
vn 0.7043 -0.2479 0.6652
vn 0.7943 -0.1059 0.5983
vn 0.4644 -0.7342 0.4953
vn 0.6385 -0.6532 0.4070
vn 0.6831 -0.6086 0.4036
vn 0.8735 -0.1997 0.4440
vn 0.8360 -0.2719 0.4766
vn 0.6069 -0.6445 0.4652
vn 0.9020 -0.4018 0.1578
vn 0.8594 -0.1618 0.4851
vn 0.7255 0.5414 0.4249
vn 0.7839 0.2169 0.5817
vn 0.6765 0.3932 0.6227
vn 0.7533 0.1210 0.6465
vn 0.6551 0.0467 0.7541
vn 0.5545 -0.6296 0.5441
vn 0.5221 -0.7766 0.3526
vn 0.3960 -0.8039 0.4438
vn -0.7966 -0.6000 -0.0730
vn -0.1437 -0.9882 0.0533
vn -0.1238 -0.9889 0.0820
vn -0.9954 0.0055 0.0954
vn -0.9119 -0.4054 -0.0638
vn -0.7692 -0.6222 -0.1455
vn -0.3381 -0.9386 -0.0691
vn -0.0675 -0.9976 0.0161
vn -0.7362 -0.6663 -0.1185
vn -0.9006 0.4168 0.1233
vn -0.9754 0.2202 0.0067
vn -0.7159 0.6674 0.2052
vn -0.6922 0.6277 0.3563
vn -0.7472 0.5924 0.3013
vn -0.9233 0.2725 0.2705
vn -0.9559 0.2638 0.1293
vn -0.8878 0.4104 0.2082
vn -0.6648 0.6934 0.2781
vn -0.9334 0.3493 0.0827
vn -0.8855 0.4645 -0.0121
vn -0.8745 0.4815 -0.0588
vn 0.9911 -0.0383 -0.1278
vn 0.9884 0.0745 0.1326
vn 0.9355 -0.3500 0.0473
vn -0.9118 0.3869 -0.1375
vn -0.9003 0.4095 -0.1476
vn -0.8760 0.4819 -0.0174
vn -0.3120 -0.4482 -0.8377
vn -0.5159 -0.3025 -0.8015
vn -0.1016 -0.2917 -0.9511
vn -0.5186 -0.3160 -0.7945
vn -0.6352 -0.3364 -0.6952
vn -0.4573 -0.2541 -0.8522
vn -0.9304 0.0319 -0.3650
vn -0.9709 0.1477 -0.1885
vn -0.9254 0.1821 -0.3325
vn -0.8633 0.4885 0.1271
vn -0.9027 0.4302 -0.0035
vn -0.8440 0.5059 0.1779
vn -0.9566 0.0346 0.2892
vn -0.9226 0.3787 0.0733
vn -0.9463 0.2995 0.1217
vn -0.8431 0.5304 -0.0883
vn -0.8008 0.5966 0.0522
vn -0.7959 0.5514 -0.2500
vn 0.6595 0.7135 -0.2365
vn 0.8032 0.5347 -0.2625
vn 0.5691 0.6679 -0.4797
vn 0.3635 0.8923 -0.2678
vn 0.5930 0.7710 -0.2320
vn 0.5088 0.7116 -0.4845
vn -0.1648 0.9732 -0.1603
vn -0.2582 0.9655 -0.0341
vn 0.3265 0.9397 -0.1014
vn 0.5567 -0.6831 0.4727
vn 0.7795 -0.3044 0.5474
vn 0.8249 -0.2080 0.5256
vn -0.1500 0.9367 -0.3164
vn -0.3636 0.9237 -0.1206
vn -0.4922 0.7341 -0.4677
vn 0.1806 0.9808 0.0732
vn -0.0917 0.9958 0.0036
vn -0.0969 0.9940 0.0506
vn 0.8596 0.4327 0.2718
vn 0.1769 0.9629 0.2039
vn 0.3418 0.8976 0.2782
vn 0.3280 -0.6224 0.7107
vn 0.6413 -0.3946 0.6581
vn 0.6288 -0.5832 0.5144
vn 0.8708 -0.1166 0.4777
vn 0.7155 -0.3101 0.6261
vn 0.9827 0.1299 0.1317
vn 0.6413 -0.7649 -0.0601
vn 0.5384 -0.8378 -0.0909
vn 0.6019 -0.7976 -0.0401
vn 0.8754 -0.4588 -0.1523
vn 0.8962 -0.4281 -0.1160
vn 0.9126 -0.3475 -0.2155
vn 0.3988 -0.9170 -0.0040
vn 0.7002 -0.7035 0.1217
vn 0.4385 -0.8650 0.2440
vn -0.3243 -0.1399 -0.9356
vn -0.3294 -0.0912 -0.9398
vn -0.4515 -0.0928 -0.8874
vn 0.5768 -0.7407 -0.3445
vn 0.1847 -0.9070 -0.3785
vn 0.5243 -0.7852 -0.3296
vn 0.9430 0.3182 -0.0973
vn 0.9172 0.3909 -0.0777
vn 0.8745 0.4630 -0.1446
vn 0.7910 -0.6101 -0.0452
vn 0.8126 -0.5805 -0.0511
vn 0.8369 -0.5437 -0.0637
vn -0.2343 0.9716 -0.0338
vn -0.0029 0.9961 -0.0887
vn 0.0619 0.9980 -0.0089
vn 0.8831 -0.4075 -0.2325
vn 0.9300 -0.3127 -0.1934
vn 0.9457 -0.2987 -0.1284
vn -0.4629 0.8860 -0.0275
vn -0.4026 0.9110 -0.0897
vn -0.3459 0.9238 0.1640
vn -0.8388 0.5395 -0.0735
vn -0.8495 0.5208 -0.0850
vn -0.8210 0.5561 -0.1292
vn -0.8637 0.4821 -0.1470
vn -0.8753 0.3671 -0.3148
vn -0.8289 0.5259 -0.1908
vn -0.6523 0.7403 0.1627
vn -0.6236 0.7496 0.2221
vn -0.5041 0.8361 0.2164
vn -0.5025 0.8575 0.1105
vn -0.3974 0.9171 0.0303
vn -0.5309 0.8396 -0.1150
vn -0.5236 0.8477 -0.0851
vn -0.5971 0.8019 -0.0180
vn -0.6334 0.7697 -0.0802
vn -0.8321 0.5364 0.1408
vn -0.9072 0.4169 0.0568
vn -0.8880 0.4598 -0.0002
vn -0.7495 0.5928 -0.2948
vn -0.8891 0.4104 -0.2027
vn -0.7651 0.5143 -0.3875
vn -0.7725 0.4932 -0.4000
vn -0.9207 0.2753 -0.2765
vn -0.8493 0.3718 -0.3748
vn 0.8265 -0.4056 0.3903
vn 0.8466 -0.3557 0.3959
vn 0.7429 -0.6075 0.2813
vn 0.0799 0.9842 -0.1582
vn 0.2276 0.9613 0.1554
vn 0.0868 0.9891 0.1189
vn -0.8746 -0.3349 -0.3506
vn -0.9269 -0.1594 -0.3399
vn -0.8985 -0.2365 -0.3698
vn 0.7003 0.7139 0.0020
vn 0.3638 0.9264 -0.0973
vn 0.7044 0.6354 0.3164
vn 0.5356 0.8337 0.1344
vn 0.7291 0.6767 0.1023
vn 0.5712 0.8115 -0.1237
vn -0.7904 0.5256 -0.3145
vn -0.8307 0.5246 -0.1864
vn -0.7066 0.6824 -0.1875
vn 0.6206 0.6103 0.4924
vn 0.6503 0.6405 0.4084
vn 0.5795 0.7622 0.2885
vn 0.9459 -0.2633 -0.1897
vn 0.9097 -0.3608 -0.2055
vn 0.8492 -0.5134 -0.1232
vn 0.1506 -0.7869 0.5984
vn -0.1556 -0.8799 0.4490
vn 0.1976 -0.6162 0.7624
vn 0.3557 -0.9339 -0.0351
vn 0.8026 -0.5840 -0.1211
vn 0.9024 -0.4180 0.1047
vn 0.9491 -0.3149 0.0019
vn 0.9425 -0.3125 -0.1182
vn 0.9851 -0.1721 -0.0071
vn 0.8887 -0.3790 0.2580
vn 0.5106 -0.7697 0.3833
vn 0.7624 -0.6254 0.1662
vn 0.9914 -0.0232 0.1288
vn 0.9882 -0.0747 0.1337
vn 0.9679 -0.1552 0.1978
vn 0.9902 -0.0994 0.0984
vn 0.9358 -0.1976 0.2918
vn 0.9703 -0.2084 0.1226
vn 0.9358 -0.2402 0.2579
vn 0.9126 -0.2814 0.2964
vn 0.9770 -0.1947 0.0868
s 0
f 3//1 2//2 4//3
f 12//4 78//5 3//6
f 31//7 4//8 2//9
f 3//10 4//11 15//12
f 15//13 4//14 10//15
f 31//16 12//17 15//18
f 2//19 12//20 31//21
f 1//22 11//23 5//24
f 15//25 12//26 3//27
f 21//28 13//29 48//30
f 6//31 46//32 48//33
f 83//34 6//35 13//36
f 48//37 13//38 6//39
f 13//40 21//41 85//42
f 21//43 50//44 90//45
f 26//46 22//47 29//48
f 26//49 127//50 24//51
f 24//52 22//53 26//54
f 37//55 26//56 27//57
f 59//58 27//59 61//60
f 26//61 61//62 27//63
f 26//64 28//65 61//66
f 22//67 46//68 29//69
f 28//70 30//71 61//72
f 23//73 33//74 34//75
f 35//76 23//77 34//78
f 55//79 23//80 35//81
f 44//82 97//83 36//84
f 26//85 37//86 98//87
f 97//88 44//89 40//90
f 62//91 109//92 42//93
f 45//94 62//95 42//96
f 47//97 15//98 14//99
f 46//100 77//101 48//102
f 47//103 14//104 49//105
f 108//106 49//107 14//108
f 77//109 49//110 108//111
f 50//112 21//113 48//114
f 108//115 48//116 77//117
f 22//118 94//119 53//120
f 53//121 52//122 58//123
f 22//124 68//125 46//126
f 110//127 56//128 25//129
f 52//130 93//131 112//132
f 113//133 116//134 57//135
f 112//136 58//137 52//138
f 36//139 64//140 63//141
f 53//142 58//143 60//144
f 61//145 71//146 36//147
f 61//148 30//149 70//150
f 30//151 31//152 70//153
f 44//154 36//155 63//156
f 70//157 64//158 71//159
f 63//160 64//161 70//162
f 71//163 61//164 70//165
f 70//166 31//167 76//168
f 76//169 31//170 15//171
f 74//172 77//173 46//174
f 47//175 65//176 15//177
f 65//178 76//179 15//180
f 117//181 65//182 67//183
f 67//184 77//185 117//186
f 65//187 47//188 67//189
f 49//190 77//191 67//192
f 58//193 72//194 60//195
f 60//196 68//197 22//198
f 22//199 53//200 60//201
f 60//202 72//203 75//204
f 74//205 46//206 68//207
f 123//208 117//209 77//210
f 75//211 77//212 60//213
f 77//214 74//215 60//216
l 99 38
l 104 105
l 92 107
l 102 114
l 8 126
l 35 54
l 84 86
l 17 106
l 80 81
l 54 100
l 41 103
l 66 124
l 42 43
l 69 119
l 9 82
l 13 87
l 19 88
l 118 125
l 120 122
l 20 89
l 51 91
l 30 95
l 59 101
l 111 115
l 73 121
l 32 96
l 16 18
l 27 39
l 7 79
