# Blender 4.1.1
# www.blender.org
o FJ504_BP2735_FMA37484_Fourth_lumbrical_of_left_foot
v 88.828903 -110.019997 8.890529
v 88.959549 -110.000397 8.836096
v 88.884834 -110.454941 8.707060
v 91.706528 -112.296280 6.772383
v 89.951653 -109.927223 8.128412
v 91.004997 -110.612000 7.572839
v 88.977005 -110.100456 8.805990
v 90.046288 -109.849403 8.277186
v 89.370598 -109.728996 8.737509
v 92.387039 -115.339806 7.286467
v 90.981392 -112.000977 9.054585
v 93.451103 -112.704002 6.636589
v 93.442146 -112.654709 6.655084
v 91.071396 -111.257050 8.422633
v 91.111900 -111.207001 8.493109
v 91.031578 -111.940659 8.831723
v 91.443657 -111.974586 8.936573
v 91.529289 -111.654488 9.108639
v 90.876740 -111.789352 9.164933
v 90.466415 -111.574013 10.229677
v 90.961487 -111.393135 9.415701
v 91.214409 -111.605644 9.288991
v 90.930893 -111.665977 10.005654
v 88.771896 -109.496330 12.238198
v 88.963440 -109.495430 12.494058
v 90.137878 -109.576233 11.904013
v 89.000328 -108.867691 12.511937
v 88.842102 -108.642998 12.660909
v 88.850189 -108.635002 12.660710
v 89.197647 -109.929581 12.173112
v 88.994041 -108.901352 12.531698
v 92.326401 -115.326080 7.287366
v 92.518982 -115.760422 9.454226
v 91.632599 -111.595001 11.700109
v 100.518555 -125.772148 2.953683
v 99.025566 -118.450371 3.384900
v 93.413307 -117.128159 9.168585
v 97.156303 -116.666000 4.512188
v 93.431496 -117.012917 9.153590
v 94.436699 -113.887001 8.343369
v 97.746994 -116.474991 8.135624
v 98.935455 -126.802361 4.778955
v 97.336327 -123.574142 6.436598
v 94.221931 -115.733002 10.375999
v 98.609810 -126.478111 5.423491
v 103.862556 -125.674873 1.324817
v 99.286514 -118.988609 3.669520
v 94.212883 -115.730453 10.414061
v 100.582634 -122.446632 7.316951
v 98.543442 -126.302597 5.502257
v 100.324692 -124.231857 6.207347
v 104.812050 -124.879066 4.981291
v 102.477203 -131.420029 4.096254
v 106.706909 -127.314194 1.405809
v 101.775879 -124.297836 6.768029
v 102.361000 -131.207993 4.086000
v 103.098999 -126.918999 5.012529
v 103.107040 -126.926674 5.013885
v 103.115997 -126.926003 5.025770
v 103.109825 -126.918106 5.014600
v 103.100800 -126.922554 5.019885
v 103.397003 -127.445000 5.063890
v 103.591698 -127.712326 5.009618
v 103.398308 -127.446266 5.064023
v 103.400002 -127.445999 5.065730
v 103.399002 -127.444000 5.064929
v 103.398003 -127.445000 5.066070
v 103.611000 -127.692001 5.009540
v 107.009628 -126.991905 4.189612
v 108.236534 -129.475021 1.159806
v 108.330811 -129.369095 1.228356
v 108.223320 -129.467453 1.237000
v 104.094833 -128.112762 5.897119
v 109.548203 -131.199860 1.245412
v 107.197495 -136.886093 2.799055
v 109.401657 -131.378845 1.278876
v 107.362648 -132.614578 3.930426
v 107.303932 -132.272690 4.045047
v 107.544342 -131.918396 4.249928
v 107.406998 -131.856995 4.195310
v 109.086456 -130.821198 0.977677
v 112.841682 -135.343521 1.288584
v 108.101547 -132.857300 4.754718
v 108.660583 -128.838776 3.447938
v 108.807999 -128.919006 3.427560
v 108.999367 -138.121918 1.989112
v 109.377998 -134.710999 0.165494
v 112.308418 -135.416351 0.523690
v 112.357002 -135.430023 0.507537
v 107.912476 -132.853317 3.996565
v 108.096519 -132.619904 3.940751
v 107.410439 -132.078369 4.103840
v 107.809311 -132.800186 4.161093
v 107.426521 -131.888107 4.056578
v 107.688004 -131.968002 4.167580
v 108.082001 -132.485992 4.038350
v 113.006233 -143.426178 0.317669
v 109.333916 -139.769104 2.521511
v 113.165833 -144.080795 3.051912
v 109.405952 -134.799896 0.128885
v 111.538536 -141.684525 1.907936
v 109.531754 -138.742828 2.111805
v 110.300041 -139.617920 1.971440
v 111.928787 -131.524567 2.675499
v 112.452980 -131.797394 2.903406
v 114.336632 -135.594284 1.715228
v 114.278999 -135.632187 1.783484
v 114.707344 -138.201569 0.582914
v 113.928207 -134.709396 1.916578
v 113.907997 -134.806000 1.905770
v 114.260277 -135.314301 1.867827
v 113.084000 -143.604996 0.240656
v 116.063675 -146.834885 -0.751175
v 114.636002 -138.222000 0.624695
v 115.139000 -147.121994 -0.044880
v 117.718964 -147.334396 -0.441089
v 118.057404 -151.051727 -0.445352
v 115.925743 -144.392288 3.080808
v 115.088264 -137.601013 1.053917
v 117.904861 -151.528839 -0.768159
v 117.064003 -149.063004 1.930741
v 117.982628 -152.463760 1.373836
v 122.376152 -156.501480 -0.937948
v 118.626022 -152.004898 1.365975
v 119.019608 -150.456680 1.136317
v 118.566437 -150.579376 1.336016
v 119.282791 -153.773026 -1.018202
v 119.901604 -154.394073 1.092997
v 121.639748 -155.424683 0.683764
v 122.044243 -154.630096 -0.165996
v 121.716095 -154.623810 0.804290
v 123.148384 -157.293793 -1.123558
v 123.441872 -157.231995 -1.420946
v 121.382973 -155.717453 1.163501
v 119.496666 -153.601181 0.952836
v 120.592003 -153.417999 1.144472
v 121.567780 -154.609543 0.657457
v 123.598518 -158.200302 -1.464135
v 123.697647 -158.605865 -0.818236
v 123.528008 -158.329453 -1.523570
v 123.550438 -158.625488 -0.472922
v 123.436356 -158.586288 -1.032822
v 123.093910 -158.272827 -0.179748
v 122.094002 -157.154007 0.291635
v 88.978195 -109.887367 8.776109
v 89.042427 -110.140755 8.602958
v 89.264877 -109.778801 8.716568
v 88.974403 -110.486000 8.821949
v 89.886581 -111.241158 8.389729
v 89.018745 -110.138962 8.809747
v 90.460899 -110.074875 8.064475
v 91.587029 -110.529312 7.389775
v 91.092949 -110.228706 7.079214
v 89.965866 -109.479752 8.986772
v 89.985298 -109.927002 8.195889
v 93.059502 -112.275002 6.837978
v 91.074631 -112.577835 8.140290
v 91.134872 -111.877258 8.615529
v 90.797432 -111.553642 9.304394
v 91.522606 -112.098236 10.862962
v 89.510902 -110.916000 12.027609
v 88.954033 -109.773277 12.324292
v 90.717583 -109.878998 11.654963
v 89.034370 -108.875015 12.530720
v 88.842102 -108.642998 12.660909
v 88.850189 -108.635002 12.660710
v 88.930397 -109.489998 12.463509
v 88.984352 -109.480423 12.469055
v 89.207298 -108.806999 12.453609
v 88.842407 -109.009117 12.256185
v 89.059898 -108.911003 12.612709
v 92.050529 -115.409683 9.856545
v 97.449562 -116.884781 4.475282
v 102.123001 -130.843002 3.731370
v 107.003204 -127.696548 1.312250
v 107.080002 -127.667999 1.291130
v 103.098999 -126.918999 5.012529
v 103.102180 -126.918404 5.020140
v 103.103996 -126.932999 5.018179
v 103.110374 -126.928009 5.016462
v 103.105164 -126.926842 5.023552
v 103.113197 -126.919624 5.017062
v 103.115997 -126.926003 5.025770
v 103.115997 -126.926003 5.025770
v 103.115997 -126.926003 5.025770
v 103.111000 -126.912003 5.019820
v 103.107933 -126.918365 5.024252
v 103.397598 -127.445793 5.064638
v 103.398170 -127.445236 5.063891
v 103.397003 -127.445000 5.063890
v 103.591698 -127.712318 5.009619
v 103.398689 -127.446442 5.064288
v 103.398003 -127.446999 5.064700
v 103.399002 -127.445999 5.063449
v 103.398811 -127.445763 5.065694
v 103.399414 -127.445183 5.064981
v 103.400002 -127.445999 5.065730
v 103.398308 -127.444580 5.065313
v 103.398682 -127.444717 5.065555
v 103.611000 -127.692001 5.009540
v 108.533882 -129.411957 1.169128
v 108.198235 -129.390671 1.299659
v 107.278999 -132.235992 3.915330
v 107.298195 -132.229111 4.045176
v 107.278999 -132.235992 3.915330
v 107.464333 -131.845398 4.116571
v 107.518822 -131.838638 4.113961
v 107.858582 -131.671768 4.002863
v 108.900002 -137.845001 2.009501
v 107.459999 -132.582993 4.102370
v 107.915802 -132.867050 3.967658
v 107.623734 -132.707230 3.383514
v 108.101265 -132.526199 3.985496
v 108.246445 -132.110657 3.845341
v 109.528999 -138.746002 2.112540
v 112.820999 -135.350006 1.322020
v 113.928207 -134.709396 1.916578
v 113.907997 -134.806000 1.905770
v 115.132004 -147.110001 -0.041632
v 117.064003 -149.063004 1.930741
v 118.146004 -152.190994 1.292861
v 122.939377 -155.722702 -1.446205
v 123.035736 -157.433807 -1.361194
v 121.739983 -156.192596 0.558252
v 123.622002 -158.313004 -1.214598
v 123.086197 -158.216873 -0.187574
v 123.658646 -158.624832 -0.920894
v 123.629066 -158.492462 -0.956554
v 123.675003 -158.429993 -0.908779
v 123.582954 -158.691925 -0.651136
v 123.755997 -158.669998 -0.886671
v 123.538002 -158.630005 -0.477465
v 122.094002 -157.154007 0.291635
v 91.111900 -111.207001 8.493109
v 107.595001 -128.953995 1.805860
v 108.300003 -129.451004 1.217210
vn -0.1337 0.4694 -0.8728
vn -0.5016 0.2897 -0.8151
vn -0.2520 0.5393 -0.8035
vn -0.2761 0.2300 -0.9332
vn -0.6942 0.0734 -0.7160
vn -0.4594 0.2472 -0.8531
vn -0.7513 -0.3609 -0.5526
vn -0.4857 -0.3072 -0.8183
vn -0.5581 -0.2396 -0.7944
vn 0.6948 0.6068 0.3862
vn 0.6381 0.6269 0.4470
vn 0.6062 0.6694 0.4295
vn -0.8934 -0.2327 -0.3844
vn -0.8318 0.1113 0.5438
vn -0.9346 -0.3252 -0.1437
vn -0.2575 -0.4454 0.8575
vn -0.3131 -0.5731 0.7573
vn -0.0065 -0.2779 0.9606
vn 0.1844 0.3087 0.9331
vn 0.0531 -0.0736 0.9959
vn -0.3034 -0.3655 0.8800
vn -0.8678 -0.3845 -0.3148
vn -0.9420 0.0308 -0.3341
vn -0.9333 -0.2664 -0.2408
vn -0.0680 -0.3586 0.9310
vn -0.3688 -0.5522 0.7477
vn -0.0560 -0.3107 0.9489
vn 0.7006 0.7134 -0.0122
vn 0.7066 0.7053 0.0566
vn 0.5665 0.8184 0.0960
vn 0.5706 0.8209 0.0237
vn 0.5599 0.8274 0.0444
vn 0.3401 0.9402 0.0205
vn 0.2757 0.9475 0.1618
vn 0.0131 0.9639 0.2661
vn 0.1442 0.9895 0.0007
vn -0.8229 -0.5583 -0.1057
vn -0.9452 -0.2552 -0.2038
vn -0.9950 -0.0294 -0.0959
vn -0.5526 0.8209 -0.1442
vn -0.6584 0.6899 -0.3009
vn -0.1134 0.9865 0.1178
vn -0.7197 0.4047 -0.5642
vn -0.7214 0.5460 -0.4260
vn -0.7901 0.0763 -0.6082
vn 0.1461 0.6021 -0.7849
vn 0.0237 0.7384 -0.6739
vn -0.1511 0.4127 -0.8983
vn -0.8932 -0.2168 -0.3939
vn -0.8873 -0.2430 -0.3921
vn -0.8800 -0.2297 -0.4159
vn -0.8731 0.0218 -0.4871
vn -0.8507 -0.3758 -0.3675
vn -0.8760 -0.3027 -0.3756
vn -0.2851 0.5904 -0.7551
vn -0.2875 0.5638 -0.7742
vn 0.0007 0.6966 -0.7174
vn -0.0159 -0.2049 0.9787
vn -0.0166 -0.2464 0.9690
vn 0.4690 0.1215 0.8748
vn 0.3495 0.2034 0.9146
vn 0.3347 0.1605 0.9286
vn 0.1276 -0.0949 0.9873
vn -0.3616 0.0310 -0.9318
vn -0.3930 -0.5504 -0.7367
vn -0.3321 0.0203 -0.9430
vn -0.7465 -0.3286 -0.5786
vn -0.7302 -0.2825 -0.6221
vn -0.4552 -0.0987 -0.8849
vn -0.0647 -0.3224 0.9444
vn -0.0508 -0.4238 0.9043
vn 0.3688 0.1130 0.9226
vn -0.8170 -0.3197 -0.4799
vn -0.8332 -0.2581 -0.4890
vn -0.5724 -0.2940 -0.7655
vn -0.8876 -0.4600 0.0235
vn -0.8599 -0.4900 0.1431
vn -0.8928 -0.4465 -0.0591
vn -0.5107 -0.0241 -0.8594
vn -0.4358 -0.0054 -0.9000
vn -0.5877 -0.1563 -0.7938
vn -0.8200 -0.2616 -0.5090
vn -0.5047 -0.0562 -0.8614
vn -0.5943 -0.1706 -0.7859
vn 0.7622 0.6440 0.0658
vn 0.6599 0.7497 0.0500
vn 0.7033 0.7044 -0.0961
vn -0.7008 -0.3556 -0.6184
vn -0.7203 -0.4280 -0.5459
vn -0.7301 -0.3453 -0.5898
vn -0.0485 -0.4875 0.8718
vn -0.3842 -0.6567 0.6489
vn -0.2721 -0.5698 0.7754
vn 0.5859 0.8097 0.0320
vn 0.6066 0.7949 -0.0110
vn 0.7356 0.6182 0.2770
vn 0.5147 0.7980 -0.3134
vn 0.5562 0.7880 -0.2639
vn 0.5550 0.7475 -0.3650
vn 0.8654 0.1785 0.4682
vn 0.7549 0.5192 0.4006
vn 0.8590 0.4108 0.3057
vn -0.4644 -0.1569 -0.8716
vn -0.4372 -0.1032 -0.8934
vn -0.4382 -0.1502 -0.8863
vn -0.8464 -0.4593 -0.2695
vn -0.7272 -0.6670 0.1620
vn -0.8640 -0.4291 -0.2635
vn -0.8527 -0.5120 0.1036
vn -0.8715 -0.4900 -0.0198
vn -0.8563 -0.5161 -0.0203
vn -0.3429 -0.5605 0.7538
vn -0.4903 -0.5766 0.6536
vn -0.0394 -0.3859 0.9217
vn 0.4237 0.6437 -0.6373
vn 0.5018 0.6564 -0.5633
vn 0.6284 0.7716 -0.0986
vn 0.7217 0.6630 -0.1991
vn 0.6664 0.6873 -0.2891
vn 0.7759 0.6293 -0.0448
vn 0.6202 0.2069 0.7567
vn 0.5837 0.2343 0.7775
vn 0.4704 0.0482 0.8812
vn 0.5665 0.1246 0.8146
vn 0.5654 0.3630 0.7406
vn 0.4429 -0.1701 0.8803
vn 0.7129 0.4956 0.4962
vn 0.4399 0.0388 0.8972
vn 0.4800 0.0121 0.8772
vn 0.3111 0.4541 -0.8349
vn 0.1145 0.2953 -0.9485
vn 0.2489 0.4204 -0.8725
vn -0.0652 -0.5705 0.8187
vn -0.0612 -0.5300 0.8458
vn 0.0625 -0.7260 0.6848
vn -0.9281 -0.3620 -0.0876
vn -0.7971 -0.6034 0.0238
vn -0.7444 -0.6448 0.1736
vn 0.7716 0.6353 0.0314
vn 0.7439 0.6679 0.0228
vn 0.6829 0.7167 -0.1415
vn -0.2901 -0.4608 0.8388
vn -0.2581 -0.5257 0.8106
vn 0.2090 -0.6882 0.6948
vn -0.8086 -0.5482 -0.2138
vn -0.7805 -0.5912 -0.2032
vn -0.8121 -0.5712 -0.1190
vn -0.0005 -0.3366 0.9417
vn -0.0081 -0.2638 0.9646
vn 0.0201 -0.1592 0.9870
vn 0.7210 -0.0937 0.6865
vn 0.4671 0.0425 0.8832
vn 0.3847 0.0886 0.9188
vn -0.7850 -0.6146 -0.0772
vn -0.8241 -0.5607 -0.0804
vn -0.7851 -0.6109 -0.1025
vn 0.0608 -0.2481 0.9668
vn -0.0904 -0.3515 0.9318
vn -0.0899 -0.2963 0.9509
vn -0.2634 -0.3798 0.8868
vn -0.3402 -0.3343 0.8789
vn -0.1387 -0.3185 0.9377
vn 0.7721 0.6335 0.0501
vn 0.6845 0.7188 -0.1219
vn 0.7750 0.5099 0.3733
vn 0.7406 0.6280 0.2388
vn 0.8231 0.4032 0.3999
vn 0.9216 0.3283 0.2069
vn -0.5953 -0.3453 -0.7256
vn -0.6503 -0.3848 -0.6550
vn -0.6178 -0.3430 -0.7076
vn -0.1532 0.1964 -0.9685
vn 0.1497 0.2514 -0.9562
vn 0.1647 0.2126 -0.9632
vn 0.5346 0.7101 -0.4583
vn 0.4319 0.6918 -0.5787
vn 0.4359 0.6800 -0.5896
vn -0.3310 -0.4749 0.8154
vn -0.2122 -0.3309 0.9195
vn -0.2610 -0.4588 0.8493
vn 0.6089 0.2479 0.7535
vn 0.3837 0.0006 0.9234
vn 0.6991 0.2718 0.6613
vn -0.5339 -0.2223 -0.8158
vn -0.5432 -0.2173 -0.8110
vn -0.1634 0.0673 -0.9843
vn -0.5777 -0.2573 -0.7747
vn -0.6318 -0.4252 -0.6481
vn -0.5695 -0.2654 -0.7779
vn 0.0732 0.1864 -0.9797
vn 0.1685 0.2369 -0.9568
vn 0.1613 0.3316 -0.9295
vn 0.0411 0.0332 0.9986
vn 0.1609 0.1206 0.9796
vn 0.3096 0.0140 0.9508
vn 0.6748 0.5949 -0.4366
vn 0.7501 0.6205 -0.2289
vn 0.7438 0.6320 -0.2175
vn -0.1992 0.1947 -0.9604
vn -0.2049 0.1794 -0.9622
vn -0.2054 0.3954 -0.8952
vn -0.5741 -0.2863 -0.7671
vn -0.4603 -0.3479 -0.8167
vn -0.5336 -0.2347 -0.8126
vn -0.7885 -0.6073 -0.0967
vn -0.7905 -0.5995 -0.1251
vn -0.7888 -0.6105 -0.0715
vn -0.1876 -0.5215 0.8324
vn -0.2434 -0.0556 0.9683
vn -0.1865 -0.2871 0.9396
vn -0.0180 -0.2821 0.9592
vn -0.2648 -0.5202 0.8120
vn -0.1710 -0.3349 0.9266
vn 0.0976 0.2091 -0.9730
vn 0.1730 0.2195 -0.9601
vn 0.1545 0.2420 -0.9579
vn -0.4270 -0.5149 0.7434
vn -0.4135 -0.5792 0.7025
vn -0.4944 -0.5028 0.7090
vn 0.4438 0.0908 0.8915
vn 0.7244 0.3544 0.5913
vn 0.4387 0.0994 0.8931
vn -0.1969 -0.2066 0.9584
vn 0.2749 -0.1609 0.9479
vn 0.2371 -0.0588 0.9697
vn 0.5779 0.4310 -0.6931
vn 0.5467 0.5806 -0.6034
vn 0.5116 0.4572 -0.7275
vn 0.6294 0.5051 -0.5905
vn 0.6170 0.4947 -0.6120
vn 0.6965 0.5067 -0.5081
vn 0.4842 0.8734 -0.0525
vn 0.7099 0.5467 -0.4440
vn 0.7589 0.5140 -0.3998
vn 0.3860 -0.2140 0.8974
vn 0.3503 -0.2884 0.8911
vn 0.3492 -0.3176 0.8816
vn 0.4138 0.1540 0.8973
vn 0.5008 0.0995 0.8598
vn 0.3356 -0.0916 0.9375
vn -0.7559 -0.6100 0.2378
vn -0.6976 -0.6462 0.3094
vn -0.7304 -0.6334 0.2557
vn -0.7733 -0.0438 -0.6325
vn -0.6945 -0.1772 -0.6974
vn -0.7232 -0.1729 -0.6686
vn -0.7748 -0.6172 0.1367
vn -0.7656 -0.6111 0.2010
vn -0.8149 -0.5730 -0.0877
vn -0.4726 -0.2992 -0.8290
vn -0.5977 -0.3661 -0.7132
vn -0.4722 -0.1245 -0.8726
vn -0.6802 -0.0082 -0.7330
vn -0.5198 -0.2479 -0.8176
vn -0.6031 -0.4290 -0.6725
vn -0.2136 0.0449 -0.9759
vn 0.0639 0.0757 -0.9951
vn 0.3332 -0.0783 -0.9396
vn -0.0078 0.0324 -0.9994
vn 0.1392 0.1753 -0.9746
vn 0.2100 0.2002 -0.9570
vn -0.5849 -0.4513 0.6739
vn -0.5687 -0.1723 0.8043
vn -0.5079 -0.5945 0.6234
vn -0.0033 -0.0101 -0.9999
vn 0.1864 0.1996 -0.9620
vn 0.3245 0.2745 -0.9052
vn 0.3236 0.4373 -0.8390
vn 0.2139 0.4001 -0.8911
vn 0.2213 0.4308 -0.8749
vn 0.1648 0.3747 -0.9124
vn -0.0219 0.5294 -0.8481
vn 0.0803 0.3433 -0.9358
vn -0.4125 -0.1483 -0.8988
vn -0.3691 -0.0938 -0.9246
vn -0.5307 -0.1852 -0.8271
vn 0.2579 0.3325 -0.9072
vn 0.8249 0.4812 -0.2967
vn 0.7086 0.4850 -0.5125
vn -0.7666 -0.5758 -0.2843
vn -0.8080 -0.5544 -0.1996
vn -0.8141 -0.4692 -0.3423
vn 0.3113 0.4581 -0.8326
vn 0.3215 0.2624 -0.9098
vn 0.2994 0.4753 -0.8273
vn 0.2711 0.3180 -0.9085
vn -0.2016 0.1878 -0.9613
vn -0.5747 0.3726 -0.7286
vn -0.8237 -0.4998 -0.2679
vn -0.7520 -0.3876 -0.5332
vn -0.8180 -0.4022 -0.4111
vn 0.0657 -0.0077 0.9978
vn -0.0970 -0.3922 0.9147
vn 0.0599 -0.1426 0.9880
vn 0.6600 0.3560 -0.6616
vn 0.6454 0.4532 -0.6148
vn 0.7004 0.3450 -0.6248
vn 0.7609 0.2410 0.6024
vn 0.6119 0.0809 0.7868
vn 0.8987 0.2883 0.3305
vn -0.8820 -0.4356 0.1799
vn -0.5742 -0.4436 0.6881
vn -0.6317 -0.5331 0.5628
vn 0.0356 0.2517 -0.9671
vn 0.1208 0.2511 -0.9604
vn 0.1884 0.2458 -0.9508
vn 0.5285 0.0882 0.8444
vn 0.4595 0.0994 0.8826
vn 0.2313 0.1312 0.9640
vn -0.6905 -0.3892 -0.6097
vn -0.7163 -0.3016 -0.6292
vn -0.6219 -0.3585 -0.6962
vn -0.0653 -0.0543 -0.9964
vn -0.0109 0.1995 -0.9798
vn 0.0790 0.1525 -0.9851
vn -0.8181 -0.4328 -0.3787
vn -0.7583 -0.6193 -0.2035
vn -0.8240 -0.5510 -0.1320
vn -0.8180 -0.5630 -0.1181
vn -0.7731 -0.4507 -0.4463
vn -0.7730 -0.5722 -0.2740
vn 0.0961 -0.0350 -0.9948
vn 0.2523 0.0998 -0.9625
vn 0.2457 0.1090 -0.9632
vn 0.8869 0.2970 0.3539
vn 0.9411 0.3378 0.0102
vn 0.9190 0.3202 -0.2300
vn 0.0143 -0.2570 0.9663
vn -0.0696 -0.2230 0.9723
vn 0.0209 -0.1845 0.9826
vn 0.1142 -0.1132 0.9870
vn 0.1081 -0.1535 0.9822
vn 0.1071 -0.1909 0.9757
vn 0.5151 -0.0267 0.8567
vn 0.5019 0.0049 0.8649
vn 0.3805 -0.1911 0.9048
vn -0.0217 -0.2127 0.9769
vn 0.1387 -0.2672 0.9536
vn -0.0259 -0.2589 0.9656
vn 0.5858 0.5318 -0.6116
vn 0.8741 0.3088 -0.3749
vn 0.9928 0.0793 0.0897
vn 0.8618 0.2998 0.4092
vn 0.6798 0.2367 0.6942
vn 0.6291 0.1513 0.7625
vn -0.0427 0.0422 -0.9982
vn -0.0402 -0.1139 -0.9927
vn 0.1140 0.4800 -0.8699
vn 0.6533 0.7186 -0.2386
vn 0.6068 0.2755 -0.7455
vn 0.6689 0.3645 -0.6479
vn 0.7742 0.5396 0.3307
vn 0.8629 0.5034 -0.0443
vn 0.7922 0.3652 0.4889
vn 0.7349 0.4237 0.5296
vn 0.6822 0.3152 0.6597
vn 0.6612 0.4283 0.6159
vn 0.5028 -0.0713 0.8615
vn 0.3752 0.0513 0.9255
vn 0.5094 -0.2033 0.8362
vn 0.3844 0.0687 0.9206
vn 0.3556 0.0306 0.9341
vn 0.5039 -0.0623 0.8615
vn 0.8074 -0.0054 0.5900
vn 0.7530 0.5055 0.4212
vn 0.7240 0.6876 -0.0542
vn 0.2117 0.5157 -0.8302
vn 0.5569 0.6338 -0.5368
vn 0.2611 0.4918 -0.8306
vn 0.7829 0.6008 -0.1615
vn 0.5906 0.6229 -0.5130
vn 0.6678 0.5332 -0.5194
vn 0.1056 -0.1438 0.9840
vn 0.0555 -0.3730 0.9262
vn -0.1061 0.0087 0.9943
vn 0.3165 0.0772 0.9455
vn 0.6004 0.1569 0.7842
vn 0.3768 0.1613 0.9121
vn -0.0138 -0.1721 0.9850
vn 0.0125 -0.1400 0.9901
vn -0.0718 -0.1795 0.9811
vn -0.3274 -0.3217 0.8884
vn -0.2944 -0.2922 0.9099
vn -0.2070 -0.2236 0.9524
vn 0.4161 0.1770 0.8919
vn 0.3755 0.0730 0.9239
vn 0.4247 0.2283 0.8761
vn -0.7489 -0.6550 -0.1009
vn -0.6147 -0.7874 0.0462
vn -0.7182 -0.6893 0.0952
vn -0.6619 -0.7360 -0.1422
vn -0.6411 -0.7498 0.1636
vn -0.7535 -0.6575 -0.0064
vn -0.7809 -0.4451 0.4383
vn -0.2519 -0.5117 0.8214
vn -0.2347 -0.6668 0.7073
vn -0.5997 -0.6845 0.4145
vn -0.4969 -0.6260 0.6011
vn -0.8681 -0.4105 0.2790
vn 0.7994 0.3156 0.5113
vn 0.8732 0.3219 0.3659
vn 0.8833 0.1817 0.4321
vn -0.1272 -0.2423 0.9618
vn 0.0417 -0.2471 0.9681
vn -0.0053 -0.2275 0.9738
vn 0.7565 -0.1889 0.6262
vn 0.8393 0.2250 0.4950
vn 0.9657 0.0677 0.2508
vn 0.7866 0.4540 0.4184
vn 0.8193 0.2239 0.5278
vn 0.6461 0.1308 0.7520
vn -0.5673 -0.6681 -0.4815
vn -0.6218 -0.7832 0.0033
vn -0.7106 -0.3688 -0.5992
vn 0.9050 0.2455 -0.3474
vn 0.9742 0.1510 -0.1676
vn 0.9392 0.3124 -0.1423
vn -0.7591 -0.3727 -0.5338
vn -0.7491 -0.4475 -0.4884
vn -0.7791 -0.5643 -0.2732
vn 0.8628 0.3936 0.3173
vn 0.7925 0.5550 0.2526
vn 0.8869 0.4005 0.2303
s 0
f 4//1 3//2 2//3
f 4//4 2//5 6//6
f 2//7 5//8 6//9
f 12//10 8//11 15//12
f 11//13 14//14 32//15
f 146//16 14//17 154//18
f 14//19 146//20 32//21
f 33//22 20//23 11//24
f 25//25 172//26 48//27
f 18//28 40//29 13//30
f 13//31 234//32 18//33
f 18//34 22//35 23//36
f 11//37 20//38 19//39
f 19//40 20//41 22//42
f 26//43 18//44 23//45
f 26//46 23//47 24//48
f 20//49 161//50 30//51
f 20//52 33//53 161//54
f 24//55 27//56 26//57
f 171//58 25//59 34//60
f 163//61 170//62 34//63
f 38//64 4//65 153//66
f 32//67 3//68 4//69
f 25//70 48//71 34//72
f 42//73 32//74 35//75
f 32//76 37//77 11//78
f 4//79 36//80 35//81
f 32//82 4//83 35//84
f 47//85 13//86 40//87
f 33//88 11//89 37//90
f 48//91 172//92 39//93
f 18//94 41//95 40//96
f 18//97 26//98 41//99
f 48//100 163//101 34//102
f 35//103 36//104 46//105
f 42//106 45//107 32//108
f 37//109 32//110 45//111
f 48//112 39//113 43//114
f 41//115 74//116 40//117
f 74//118 41//119 52//120
f 52//121 163//122 49//123
f 49//124 163//125 48//126
f 41//127 163//128 52//129
f 54//130 46//131 36//132
f 43//133 51//134 44//135
f 51//136 48//137 44//138
f 175//139 47//140 40//141
f 48//142 51//143 49//144
f 42//145 56//146 45//147
f 43//148 50//149 51//150
f 52//151 49//152 55//153
f 56//154 42//155 174//156
f 51//157 50//158 53//159
f 53//160 73//161 51//162
f 175//163 40//164 72//165
f 40//166 76//167 72//168
f 35//169 86//170 42//171
f 46//172 54//173 87//174
f 52//175 69//176 74//177
f 51//178 73//179 49//180
f 52//181 55//182 84//183
f 100//184 35//185 46//186
f 100//187 86//188 35//189
f 87//190 54//191 70//192
f 72//193 76//194 201//195
f 82//196 74//197 69//198
f 69//199 85//200 82//201
f 86//202 75//203 42//204
f 174//205 98//206 56//207
f 98//208 83//209 53//210
f 73//211 53//212 83//213
f 87//214 70//215 88//216
f 79//217 203//218 211//219
f 83//220 84//221 55//222
f 73//223 83//224 55//225
f 81//226 74//227 89//228
f 108//229 89//230 74//231
f 82//232 108//233 74//234
f 211//235 213//236 79//237
f 105//238 84//239 83//240
f 103//241 102//242 112//243
f 100//244 97//245 86//246
f 112//247 102//248 209//249
f 75//250 86//251 101//252
f 101//253 98//254 75//255
f 101//256 86//257 103//258
f 113//259 87//260 88//261
f 99//262 83//263 98//264
f 113//265 88//266 114//267
f 107//268 82//269 104//270
f 104//271 82//272 85//273
f 100//274 113//275 97//276
f 100//277 87//278 113//279
f 103//280 97//281 101//282
f 106//283 114//284 216//285
f 101//286 219//287 98//288
f 97//289 115//290 101//291
f 83//292 99//293 118//294
f 114//295 106//296 116//297
f 105//298 118//299 111//300
f 98//301 122//302 99//303
f 113//304 114//305 116//306
f 118//307 105//308 83//309
f 117//310 97//311 113//312
f 115//313 97//314 117//315
f 219//316 127//317 122//318
f 98//319 219//320 122//321
f 120//322 113//323 116//324
f 111//325 125//326 119//327
f 99//328 221//329 124//330
f 124//331 121//332 99//333
f 125//334 118//335 220//336
f 121//337 118//338 99//339
f 116//340 119//341 125//342
f 125//343 111//344 118//345
f 123//346 120//347 116//348
f 130//349 123//350 116//351
f 131//352 130//353 125//354
f 137//355 125//356 136//357
f 220//358 126//359 125//360
f 135//361 126//362 220//363
f 125//364 130//365 116//366
f 138//367 123//368 132//369
f 123//370 138//371 120//372
f 126//373 135//374 129//375
f 137//376 126//377 129//378
f 128//379 124//380 221//381
f 128//382 134//383 124//384
f 125//385 126//386 136//387
f 127//388 139//389 122//390
f 140//391 139//392 127//393
f 122//394 143//395 128//396
f 144//397 134//398 128//399
f 233//400 223//401 129//402
f 135//403 224//404 129//405
f 129//406 223//407 130//408
f 130//409 137//410 129//411
f 139//412 143//413 122//414
f 142//415 223//416 141//417
f 128//418 143//419 144//420
f 233//421 141//422 223//423
l 65 192
l 197 199
l 1 7
l 156 173
l 93 96
l 28 29
l 202 235
l 67 188
l 133 222
l 10 149
l 225 228
l 66 189
l 109 110
l 178 186
l 95 207
l 217 218
l 92 91
l 162 168
l 94 212
l 226 232
l 148 150
l 21 159
l 190 198
l 147 155
l 227 229
l 57 58
l 20 160
l 31 167
l 164 169
l 77 90
l 78 210
l 181 183
l 191 200
l 60 177
l 182 184
l 193 195
l 80 204
l 165 166
l 71 176
l 59 180
l 205 206
l 208 214
l 103 215
l 16 158
l 62 64
l 61 179
l 9 145
l 63 68
l 230 231
l 151 152
l 72 236
l 17 157
l 185 187
l 194 196
