# Blender 4.1.1
# www.blender.org
o FJ556_BP2731_FMA37719_Second_lumbrical_of_right_foot
v -103.026016 -179.810455 2.651224
v -102.848030 -180.235474 3.345526
v -102.918671 -180.461868 3.749283
v -102.746101 -180.425674 3.721266
v -102.736732 -180.253922 3.986058
v -102.642998 -180.264008 3.919604
v -102.635002 -180.065002 3.942794
v -100.866852 -176.514084 1.343428
v -100.270416 -177.172806 1.292578
v -95.966522 -165.844772 -1.163573
v -100.190720 -177.855118 3.203446
v -101.530716 -178.870438 3.959311
v -99.716072 -177.141800 3.115408
v -101.526764 -178.840012 4.020654
v -98.712067 -175.662323 2.866935
v -98.142860 -170.619171 1.623188
v -99.171028 -173.754730 2.544407
v -95.737541 -170.568771 0.291531
v -97.047203 -171.300995 2.235473
v -97.783600 -169.895004 1.419053
v -92.768417 -163.280609 -0.462769
v -95.673569 -162.585541 0.036381
v -92.850372 -158.406769 -1.074811
v -94.183853 -153.179901 1.191044
v -92.576714 -162.325790 1.640855
v -94.365433 -162.815414 1.933882
v -93.222710 -148.317535 3.364420
v -89.779022 -141.003067 2.522852
v -92.037880 -147.560776 1.708023
v -91.096512 -141.021530 4.039766
v -92.242889 -156.600510 2.968711
v -89.115524 -152.625336 3.079204
v -89.103378 -148.869064 2.021920
v -90.311913 -139.420517 4.202746
v -88.843140 -134.748230 5.542042
v -88.976608 -139.031631 3.773738
v -90.265114 -142.084381 3.315516
v -89.618233 -141.166443 2.524854
v -90.163284 -138.711227 4.785826
v -88.591599 -136.668732 3.540068
v -88.782349 -137.085617 3.235060
v -90.771141 -156.435410 2.749903
v -88.471298 -139.401001 2.748420
v -88.002754 -135.088730 3.641680
v -89.020340 -136.037094 3.431955
v -88.551231 -134.311569 3.678286
v -87.929649 -134.172012 4.146618
v -87.758301 -133.576004 4.366850
v -88.746155 -133.832382 5.674354
v -86.696861 -131.795532 4.584002
v -86.424171 -146.930695 5.605178
v -87.931564 -144.872955 6.804858
v -85.096245 -135.420700 4.358743
v -87.078712 -131.534653 5.056019
v -88.077744 -131.305725 6.499009
v -86.801178 -126.971481 7.790534
v -83.497940 -138.399521 6.210840
v -87.198898 -127.391525 7.805289
v -87.138420 -127.812675 7.438393
v -83.703232 -119.521576 9.814996
v -85.184700 -122.585777 9.148086
v -85.670929 -123.623375 8.916940
v -81.820824 -126.289787 10.193261
v -79.714241 -120.314003 9.132587
v -83.257072 -119.323273 8.669514
v -84.798195 -121.142418 9.397446
v -82.475685 -116.656120 10.075421
v -79.246948 -110.628868 11.195258
v -83.134712 -119.040131 8.866864
v -82.106056 -132.829147 6.726605
v -82.314598 -133.419998 7.069690
v -81.588341 -131.356796 7.811010
v -80.926201 -129.063004 7.598120
v -80.943901 -128.490005 7.581640
v -80.413307 -118.802467 12.236053
v -81.568306 -131.690872 8.480271
v -80.415665 -117.967339 12.564460
v -81.972298 -116.619003 9.651878
v -82.670792 -116.535660 10.945687
v -82.808571 -115.801491 11.504424
v -84.167747 -120.014435 9.661799
v -81.577698 -125.583000 10.477810
v -79.454895 -120.081360 9.587164
v -80.694519 -117.574585 11.641570
v -79.606705 -120.178818 9.573269
v -79.881546 -113.402016 12.391877
v -82.573196 -115.334000 11.973008
v -82.547836 -115.933189 10.963037
v -81.698837 -113.326637 12.857955
v -81.721390 -113.357834 12.638785
v -81.815804 -113.220001 12.670009
v -80.072701 -112.386002 11.518509
v -80.754402 -112.959999 12.456009
v -81.297440 -112.550354 12.847302
v -81.176109 -112.585739 13.100116
v -81.137299 -112.463997 12.991609
v -78.416458 -113.218430 11.669831
v -80.089203 -113.631508 13.373740
v -80.121101 -114.157997 13.449609
v -80.062584 -114.047958 13.580255
v -78.207695 -111.815323 11.987678
v -80.450867 -112.746117 12.335280
v -79.775200 -112.672997 12.039708
v -80.188087 -112.498001 12.452256
v -80.311897 -112.414001 12.951408
v -80.580498 -111.853996 13.327209
v -80.229637 -112.447617 13.525500
v -80.947632 -112.218178 13.504270
v -78.446152 -110.471245 11.959683
v -77.609756 -110.323784 11.999828
v -78.348618 -110.423447 11.928859
v -78.181305 -110.154930 11.997433
v -78.241615 -110.553604 12.087990
v -103.029999 -179.869003 2.626254
v -103.096092 -179.825439 2.648392
v -103.091003 -180.356995 3.205523
v -102.968544 -180.413986 3.261498
v -102.834999 -180.457001 3.874744
v -102.695503 -180.197891 3.917309
v -102.736725 -180.253952 3.986069
v -102.642998 -180.264008 3.919604
v -102.635002 -180.065002 3.942794
v -101.475014 -178.787674 3.870833
v -101.499001 -178.867996 3.976204
v -99.734200 -177.143005 3.116213
v -100.615997 -176.921997 3.436743
v -100.691658 -176.895447 3.584585
v -91.729027 -147.444763 1.892459
v -91.835297 -159.832001 1.973372
v -89.739098 -140.964813 2.575065
v -90.892731 -140.614258 4.236112
v -90.174896 -138.751999 4.440401
v -90.222504 -139.009003 4.332581
v -88.277878 -135.103958 4.048598
v -88.166199 -135.332993 3.940580
v -87.873283 -133.975159 4.026051
v -88.301323 -134.080109 4.283163
v -87.768478 -133.687576 4.229889
v -88.864799 -134.373993 5.725680
v -88.439819 -133.727066 5.699465
v -87.320999 -131.820007 4.745150
v -87.186554 -131.528488 4.834251
v -86.405930 -129.612915 5.770318
v -86.042015 -126.409241 8.094066
v -84.927727 -122.525719 9.039971
v -83.451477 -137.690582 6.346399
v -84.605598 -123.501999 8.211300
v -84.867699 -121.196999 9.360809
v -83.342590 -118.190216 8.932280
v -81.461311 -130.519485 7.296352
v -82.692268 -116.552063 10.929875
v -82.826988 -115.750427 11.333596
v -83.035774 -136.531433 7.026308
v -81.264198 -114.268997 11.515009
v -81.834396 -113.574997 12.339309
v -81.834396 -113.574997 12.339309
v -82.125664 -113.357269 12.756313
v -81.598907 -113.368507 12.513621
v -81.666214 -112.953217 12.624580
v -81.545189 -113.055199 12.584538
v -81.698936 -113.246445 12.633002
v -81.638435 -113.224403 12.658098
v -81.704628 -113.120163 12.290345
v -81.513100 -113.218002 12.640208
v -80.072701 -112.386002 11.518509
v -80.072701 -112.386002 11.518509
v -80.072701 -112.386002 11.518509
v -80.072701 -112.386002 11.518509
v -80.072701 -112.386002 11.518509
v -80.687218 -112.605515 12.207109
v -81.128899 -112.653999 12.905909
v -81.119034 -112.651825 12.951508
v -81.128899 -112.653999 12.905909
v -81.117043 -112.659210 12.950930
v -79.225189 -110.645393 11.189787
v -78.971603 -110.141289 11.130857
v -79.679054 -114.089966 13.234113
v -80.113808 -114.060333 13.423803
v -79.852623 -114.286133 13.596908
v -80.121101 -114.157997 13.449609
v -80.121101 -114.157997 13.449609
v -80.121101 -114.157997 13.449609
v -78.784103 -112.045998 11.958508
v -80.110870 -112.954964 12.403081
v -79.775200 -112.672997 12.039708
v -79.991440 -112.758110 12.349144
v -80.049896 -112.744003 12.323408
v -80.311897 -112.414001 12.951408
v -80.580498 -111.853996 13.327209
v -80.580498 -111.853996 13.327209
v -80.580498 -111.853996 13.327209
v -80.230057 -112.382774 13.517914
v -80.301262 -112.412910 12.980608
v -78.796600 -110.608002 11.310908
v -78.673599 -111.127998 11.983008
v -78.471413 -110.346237 12.347533
v -78.351402 -110.136002 12.086908
v -78.180405 -110.225540 12.222384
v -78.138000 -110.561996 12.220908
v -78.200508 -110.156425 12.215856
v -78.199921 -110.156830 12.216274
v -94.177299 -153.201004 1.197612
vn 0.4839 -0.7025 -0.5218
vn 0.6673 -0.7172 -0.2010
vn 0.4072 -0.7092 -0.5755
vn -0.8410 0.3925 0.3723
vn -0.8682 0.3306 0.3700
vn -0.7733 0.4267 0.4689
vn -0.7031 -0.3439 0.6224
vn -0.7199 -0.1450 0.6788
vn -0.8053 -0.2696 0.5280
vn 0.6079 -0.5792 -0.5431
vn 0.6736 -0.7335 -0.0912
vn 0.6330 -0.7480 -0.1996
vn -0.6899 0.5953 0.4118
vn -0.7080 0.5642 0.4247
vn -0.7443 0.6169 0.2558
vn -0.3637 -0.0506 -0.9301
vn -0.1103 -0.3387 -0.9344
vn -0.3831 -0.2020 -0.9013
vn -0.7408 0.5785 0.3414
vn -0.7533 0.4683 0.4618
vn -0.7759 0.5879 0.2287
vn -0.2576 0.0486 -0.9650
vn -0.1130 -0.1053 -0.9880
vn -0.2109 0.2428 -0.9469
vn -0.8729 0.3126 -0.3747
vn -0.8740 0.3785 -0.3047
vn -0.8205 0.4892 0.2957
vn -0.7378 0.5033 0.4499
vn -0.9441 0.2984 -0.1402
vn -0.7645 0.4851 0.4245
vn -0.8894 0.4141 -0.1937
vn -0.8850 0.2436 -0.3968
vn -0.8429 0.1572 -0.5145
vn -0.8581 0.0142 -0.5133
vn -0.8820 0.2994 -0.3639
vn -0.9528 0.3032 0.0121
vn 0.7038 -0.5684 0.4262
vn 0.6602 -0.7481 0.0664
vn 0.7793 -0.5920 0.2056
vn 0.2496 -0.2498 0.9356
vn -0.0702 -0.0104 0.9975
vn -0.0434 0.2001 0.9788
vn 0.7485 -0.3695 0.5507
vn 0.7860 -0.5530 0.2765
vn 0.7757 -0.5781 0.2531
vn 0.6738 -0.3115 0.6700
vn 0.6405 -0.3075 0.7037
vn 0.6984 -0.3492 0.6248
vn 0.2776 0.0145 0.9606
vn 0.1435 0.0860 0.9859
vn 0.2009 0.1320 0.9707
vn 0.6720 -0.3415 0.6571
vn 0.7830 -0.4544 0.4247
vn 0.6529 -0.3333 0.6802
vn 0.8169 -0.5633 -0.1240
vn 0.5992 -0.6438 -0.4760
vn 0.8494 -0.5188 -0.0972
vn 0.7093 -0.6449 -0.2846
vn 0.7789 -0.5514 -0.2988
vn 0.8718 -0.4887 -0.0325
vn -0.8228 0.4337 0.3673
vn -0.8814 0.4241 -0.2078
vn -0.7835 0.5198 0.3404
vn 0.6118 -0.2580 0.7477
vn 0.0908 0.0726 0.9932
vn 0.3087 0.0360 0.9505
vn 0.1986 -0.3145 -0.9282
vn 0.0085 -0.1792 -0.9838
vn 0.4603 -0.4286 -0.7775
vn 0.5648 -0.3671 -0.7391
vn 0.1918 -0.1249 -0.9735
vn 0.3915 -0.1942 -0.8995
vn -0.7096 0.3911 0.5861
vn -0.7811 0.3245 0.5335
vn -0.7968 0.4803 0.3667
vn -0.1457 0.4848 0.8624
vn -0.6667 0.2962 0.6840
vn -0.4601 0.4826 0.7453
vn 0.5834 0.1333 0.8012
vn 0.0151 0.0023 0.9999
vn 0.0740 0.0869 0.9935
vn -0.6190 0.3782 0.6883
vn -0.5168 0.2505 0.8186
vn -0.9423 0.1986 0.2695
vn 0.5350 -0.2733 -0.7995
vn 0.0590 -0.1702 -0.9836
vn 0.0521 0.0241 -0.9984
vn -0.8319 0.1458 -0.5354
vn -0.9671 0.2520 -0.0362
vn -0.9046 0.2317 -0.3579
vn -0.9805 0.1964 -0.0032
vn -0.9376 0.1126 0.3291
vn -0.9581 0.1588 0.2382
vn -0.4903 0.1488 -0.8588
vn -0.6421 0.2579 -0.7219
vn -0.2850 0.2296 -0.9306
vn -0.6763 -0.1574 0.7197
vn -0.8175 -0.4854 0.3099
vn -0.9476 -0.2750 0.1627
vn -0.3968 0.2611 0.8800
vn -0.6698 0.5786 0.4654
vn -0.2236 0.0415 0.9738
vn 0.9317 -0.3610 -0.0407
vn 0.8925 -0.3305 0.3068
vn 0.7055 -0.2902 0.6466
vn 0.8076 -0.5743 -0.1340
vn 0.9511 -0.3037 0.0557
vn 0.9977 -0.0667 -0.0083
vn 0.4212 -0.1100 0.9003
vn 0.0138 -0.0383 0.9992
vn -0.1234 0.1330 0.9834
vn 0.6221 -0.0024 -0.7829
vn 0.5659 0.0189 -0.8242
vn 0.7832 -0.1265 -0.6087
vn -0.5856 -0.0479 0.8092
vn -0.7547 -0.0094 0.6560
vn -0.9337 0.1349 0.3317
vn 0.5541 -0.0813 -0.8285
vn 0.4109 0.1016 -0.9060
vn 0.2684 0.3015 -0.9149
vn -0.6914 0.2761 -0.6676
vn -0.3604 0.2805 -0.8896
vn -0.2695 0.2277 -0.9357
vn -0.5482 0.2292 -0.8044
vn -0.6019 0.1055 -0.7916
vn -0.3898 0.2476 -0.8870
vn -0.9023 0.2680 -0.3378
vn -0.9696 0.2088 0.1275
vn -0.9277 0.2826 -0.2440
vn -0.8596 0.3172 -0.4005
vn -0.5455 0.3106 -0.7785
vn -0.8239 0.2808 -0.4923
vn -0.8099 0.3400 -0.4780
vn -0.4157 0.3458 -0.8412
vn -0.5188 0.3219 -0.7920
vn 0.9155 -0.3722 -0.1525
vn 0.9478 -0.3068 0.0866
vn 0.9134 -0.1830 0.3637
vn 0.7309 -0.4243 0.5345
vn 0.9541 -0.2963 0.0440
vn 0.9473 -0.2424 -0.2094
vn 0.9777 -0.1674 0.1271
vn 0.3927 -0.7319 0.5569
vn 0.9081 -0.3976 0.1317
vn 0.1811 -0.2278 0.9567
vn 0.5834 -0.4368 0.6847
vn -0.1073 -0.1650 0.9804
vn 0.0191 -0.1507 0.9884
vn 0.2912 -0.2019 0.9351
vn 0.4761 -0.3484 0.8074
vn 0.8704 -0.1818 -0.4576
vn 0.7417 0.0623 -0.6678
vn 0.9010 -0.3073 -0.3061
vn -0.0096 -0.0441 0.9990
vn -0.4033 -0.0718 0.9123
vn -0.5011 -0.0003 0.8654
vn -0.2849 -0.2197 0.9330
vn -0.4503 -0.0744 0.8898
vn -0.5392 -0.0287 0.8417
vn -0.0932 0.2523 -0.9631
vn -0.1145 0.0964 -0.9887
vn -0.0518 0.3284 -0.9431
vn -0.6726 0.3654 -0.6435
vn -0.5766 0.3522 -0.7372
vn -0.6395 0.1481 -0.7544
vn -0.8698 0.3777 -0.3175
vn -0.9772 0.1540 -0.1464
vn -0.9190 0.3729 -0.1279
vn -0.9071 0.2261 0.3552
vn -0.6983 0.1220 0.7054
vn -0.9020 0.3991 -0.1647
vn -0.1997 0.2636 -0.9437
vn -0.4523 0.3165 -0.8338
vn -0.3426 0.2628 -0.9020
vn -0.9825 0.1791 0.0504
vn -0.8976 0.1476 0.4154
vn -0.9423 0.1896 0.2760
vn 0.7838 -0.5636 0.2607
vn 0.9270 -0.1271 -0.3528
vn 0.8977 -0.4171 0.1422
vn 0.1442 -0.2973 0.9438
vn 0.0552 -0.3038 0.9511
vn 0.5484 -0.3383 0.7647
vn 0.8257 -0.1123 -0.5529
vn 0.5748 -0.0278 -0.8179
vn 0.5498 -0.0320 -0.8347
vn -0.6570 0.0674 0.7509
vn -0.5349 -0.0441 0.8438
vn -0.5720 -0.0010 0.8203
vn -0.7381 0.2718 -0.6176
vn -0.8626 0.3362 -0.3780
vn -0.7371 0.3721 -0.5642
vn 0.1649 0.1976 -0.9663
vn 0.3594 0.0300 -0.9327
vn 0.0180 0.1585 -0.9872
vn 0.1274 0.2250 -0.9660
vn 0.2681 0.1147 -0.9565
vn 0.1278 0.1060 -0.9861
vn -0.9267 0.1979 0.3194
vn -0.9520 0.0135 0.3057
vn -0.7615 0.6069 0.2277
vn -0.7908 0.3618 -0.4937
vn -0.1574 0.3076 -0.9384
vn -0.3853 0.3705 -0.8451
vn -0.6254 0.3731 -0.6853
vn -0.2049 0.3170 -0.9260
vn -0.8181 0.3541 -0.4531
vn 0.6433 -0.6294 0.4359
vn 0.7230 -0.4016 0.5622
vn 0.6933 -0.3903 0.6059
vn -0.8257 0.4133 -0.3838
vn -0.8259 0.4133 -0.3834
vn -0.8419 0.3678 -0.3948
vn 0.1543 0.4620 -0.8734
vn 0.0641 0.4729 -0.8788
vn 0.3179 0.3907 -0.8639
vn 0.7982 -0.0094 -0.6024
vn 0.8281 -0.1492 -0.5403
vn 0.8624 -0.1481 -0.4840
vn 0.8197 -0.1857 -0.5419
vn 0.8325 -0.2271 -0.5053
vn 0.7814 -0.1248 -0.6115
vn 0.1027 -0.2439 0.9643
vn 0.0273 -0.1579 0.9871
vn -0.0236 -0.1957 0.9804
vn -0.5910 0.4425 -0.6745
vn -0.8316 0.1049 -0.5453
vn -0.7663 0.3556 -0.5351
vn -0.2439 0.3445 -0.9065
vn -0.2184 0.3403 -0.9146
vn -0.0964 0.2803 -0.9551
vn -0.6355 0.4042 -0.6578
vn -0.7135 0.2156 -0.6667
vn -0.5417 0.5384 -0.6455
vn 0.1437 -0.3455 0.9273
vn 0.2835 -0.3688 0.8852
vn 0.1267 -0.2745 0.9532
vn 0.3723 -0.2586 0.8913
vn 0.1833 -0.2324 0.9552
vn 0.4161 -0.3965 0.8183
vn 0.7963 -0.1515 -0.5857
vn 0.5218 -0.0251 -0.8527
vn 0.7041 -0.0895 -0.7045
vn 0.6196 -0.3393 0.7078
vn 0.4596 -0.3824 0.8016
vn 0.7014 -0.1174 0.7030
vn -0.4900 -0.0814 0.8679
vn -0.6096 -0.0306 0.7921
vn -0.5705 -0.0118 0.8212
vn -0.5948 -0.0328 0.8032
vn -0.6283 0.0305 0.7773
vn -0.6213 0.0036 0.7835
vn 0.2480 0.2177 -0.9440
vn -0.0426 0.2616 -0.9642
vn -0.0556 0.2871 -0.9563
vn 0.1246 0.2560 -0.9586
vn 0.0403 0.2658 -0.9632
vn 0.1787 0.1952 -0.9644
vn 0.2838 0.2065 -0.9364
vn 0.1182 0.3057 -0.9448
vn 0.2275 0.2613 -0.9381
vn -0.9435 0.3212 -0.0813
vn -0.8874 0.4594 -0.0399
vn -0.9116 0.3220 -0.2557
vn -0.6695 0.3532 -0.6535
vn -0.5669 0.4223 -0.7073
vn -0.5917 0.4216 -0.6872
vn -0.5887 -0.0613 0.8060
vn -0.7338 -0.0301 0.6787
vn -0.7623 0.0861 0.6415
vn -0.0618 0.0069 -0.9981
vn 0.2175 0.1039 -0.9705
vn 0.1120 -0.0051 -0.9937
vn 0.6551 -0.3707 0.6583
vn 0.6407 -0.3324 0.6921
vn 0.6004 -0.2677 0.7535
vn 0.9142 -0.3486 0.2067
vn 0.9565 -0.2841 -0.0669
vn 0.9405 -0.2741 0.2006
vn -0.6352 -0.0869 0.7674
vn -0.5699 -0.1807 0.8016
vn -0.7347 -0.0189 0.6781
vn 0.4455 0.1404 -0.8842
vn 0.7446 -0.1842 -0.6416
vn 0.5486 0.0380 -0.8352
vn 0.4459 0.2398 -0.8623
vn 0.1601 0.1290 -0.9786
vn 0.1009 0.2607 -0.9601
vn -0.9283 0.2629 0.2631
vn -0.9006 0.3967 -0.1775
vn -0.9304 0.3643 0.0401
vn -0.4795 -0.1701 0.8609
vn -0.6863 -0.0854 0.7223
vn -0.6255 -0.1237 0.7703
vn 0.8942 -0.2944 0.3372
vn 0.9919 -0.1210 -0.0380
vn 0.7478 -0.5114 0.4234
vn 0.7835 -0.5626 0.2639
vn 0.9802 -0.1140 -0.1619
vn 0.9318 -0.3061 0.1950
vn 0.8914 -0.2290 -0.3911
vn 0.9587 -0.2771 0.0646
vn 0.9452 -0.2752 -0.1759
vn 0.7939 0.0671 -0.6043
vn 0.8799 0.0455 -0.4730
vn 0.8192 -0.0085 -0.5735
vn 0.3989 0.0029 -0.9170
vn 0.1082 0.2920 -0.9503
vn 0.0987 0.1686 -0.9807
vn 0.9274 -0.1943 -0.3196
vn 0.8931 -0.1650 -0.4184
vn 0.9504 -0.3038 -0.0670
vn 0.5264 -0.4465 0.7236
vn 0.6648 -0.3403 0.6650
vn 0.6594 -0.1407 0.7385
vn 0.8993 -0.2137 0.3816
vn 0.9692 -0.2345 -0.0758
vn 0.8784 -0.2201 0.4243
vn -0.9212 -0.0679 0.3831
vn -0.9132 0.3919 0.1117
vn -0.9149 0.3973 0.0719
vn -0.9166 0.3563 0.1813
vn -0.9424 0.2546 -0.2169
vn -0.9576 0.2879 0.0085
vn -0.9505 0.1843 -0.2501
vn -0.9438 0.3131 0.1061
vn -0.9549 0.2863 -0.0785
vn -0.5657 0.6718 -0.4782
vn -0.1612 0.7461 -0.6460
vn -0.4315 0.6716 -0.6023
vn -0.0937 0.3938 -0.9144
vn -0.3781 0.4393 -0.8149
vn -0.1984 0.3826 -0.9024
vn -0.2048 0.3905 -0.8976
vn -0.1756 0.4138 -0.8933
vn -0.2775 0.3999 -0.8735
vn -0.4680 0.6244 -0.6254
vn -0.5547 0.5020 -0.6635
vn -0.5784 0.4764 -0.6622
vn -0.2724 0.4732 -0.8378
vn -0.6346 0.5611 -0.5314
vn -0.6479 0.5444 -0.5327
vn -0.3344 0.6997 -0.6313
vn -0.3060 0.5598 -0.7700
vn -0.1376 0.5247 -0.8401
vn 0.3715 -0.3159 0.8730
vn 0.5249 -0.2824 0.8029
vn 0.4250 -0.3154 0.8484
vn 0.9933 0.1044 0.0490
vn 0.9482 -0.1585 -0.2753
vn 0.9347 0.1645 -0.3151
vn 0.8157 -0.1753 -0.5512
vn 0.6696 0.0017 -0.7427
vn 0.8415 -0.0934 -0.5320
vn 0.8051 -0.2199 0.5509
vn 0.7776 -0.2109 0.5923
vn 0.7021 -0.2669 0.6601
vn 0.9695 -0.1126 -0.2176
vn 0.9210 -0.3334 -0.2016
vn 0.9472 -0.0474 -0.3170
vn 0.8851 0.0230 -0.4648
vn 0.8649 -0.0153 -0.5018
vn 0.8728 -0.3575 -0.3323
vn -0.6961 -0.0718 0.7144
vn -0.3196 -0.1950 0.9273
vn -0.3988 -0.1766 0.8999
vn -0.6354 0.7116 0.2998
vn -0.7855 0.5996 0.1534
vn -0.6673 0.5490 0.5033
vn -0.8220 0.5589 0.1089
vn -0.8038 0.5779 -0.1409
vn -0.7571 0.6003 -0.2577
vn -0.4691 -0.1204 0.8749
vn -0.6979 0.0003 0.7162
vn -0.4160 -0.1447 0.8978
vn -0.8985 0.4381 0.0280
vn -0.7640 0.4722 -0.4397
vn -0.7827 0.4627 -0.4163
vn -0.6181 0.5101 -0.5982
vn -0.5738 0.5007 -0.6481
vn -0.6397 0.5806 -0.5037
vn -0.5569 -0.1659 0.8138
vn -0.4555 -0.1436 0.8786
vn -0.6021 -0.2343 0.7633
vn 0.0657 0.7117 -0.6994
vn 0.0658 0.7116 -0.6995
vn -0.1576 0.6735 -0.7222
vn 0.7674 -0.2208 0.6019
vn 0.8256 -0.1946 0.5296
vn 0.7044 -0.2302 0.6714
vn 0.9278 -0.0107 -0.3729
vn 0.9321 -0.0073 -0.3620
vn 0.9305 0.0367 -0.3644
vn 0.8593 0.0200 -0.5111
vn 0.8011 -0.0028 -0.5985
vn 0.5238 0.2602 -0.8112
vn 0.5963 -0.3117 0.7397
vn 0.4729 -0.2516 0.8444
vn 0.4671 -0.2497 0.8482
vn 0.7974 0.1407 -0.5868
vn 0.8756 0.0024 -0.4831
vn 0.7327 0.0020 -0.6806
vn 0.6542 0.7544 0.0530
vn 0.8516 0.4884 0.1906
vn 0.8038 0.4763 0.3565
vn 0.8408 0.0277 -0.5407
vn 0.6776 -0.0205 -0.7351
vn 0.8651 0.0901 -0.4934
vn 0.5199 0.8382 0.1648
vn 0.5557 0.8163 0.1580
vn 0.5555 0.8149 0.1655
vn -0.3898 0.6944 0.6049
vn 0.2883 -0.0454 0.9565
vn -0.1515 0.1367 0.9790
vn 0.4619 0.2938 0.8369
vn -0.1052 0.5189 -0.8484
vn 0.8848 0.4079 0.2252
vn 0.9038 0.3041 0.3012
vn 0.8684 0.2362 0.4360
vn -0.3835 -0.0375 0.9228
vn -0.4419 -0.0187 0.8969
vn -0.2922 0.0008 0.9563
vn -0.4366 -0.0270 0.8992
vn -0.4162 0.0571 0.9075
vn -0.2895 -0.0078 0.9571
vn -0.6575 0.2507 0.7105
vn -0.5167 0.3247 0.7922
vn -0.4739 0.3807 0.7940
vn -0.0690 -0.1093 0.9916
vn -0.4102 -0.1025 0.9062
vn -0.2038 -0.1316 0.9701
vn 0.0107 0.0041 0.9999
vn -0.0105 0.0213 0.9997
vn 0.3268 0.0720 0.9423
s 0
f 9//1 3//2 1//3
f 115//4 116//5 7//6
f 4//7 7//8 116//9
f 9//10 11//11 3//12
f 7//13 14//14 115//15
f 8//16 9//17 1//18
f 115//19 14//20 8//21
f 20//22 9//23 8//24
f 20//25 8//26 16//27
f 16//28 8//29 17//30
f 20//31 10//32 9//33
f 10//34 20//35 22//36
f 12//37 3//38 11//39
f 13//40 15//41 125//42
f 13//43 11//44 15//45
f 125//46 12//47 11//48
f 15//49 126//50 123//51
f 125//52 15//53 12//54
f 11//55 9//56 18//57
f 11//58 18//59 15//60
f 17//61 8//62 14//63
f 15//64 19//65 126//66
f 9//67 10//68 18//69
f 18//70 10//71 21//72
f 17//73 26//74 16//75
f 19//76 17//77 127//78
f 19//79 26//80 17//81
f 16//82 26//83 22//84
f 21//85 10//86 23//87
f 10//88 22//89 202//90
f 202//91 22//92 27//93
f 10//94 24//95 23//96
f 202//97 27//98 24//99
f 25//100 19//101 15//102
f 18//103 25//104 15//105
f 18//106 21//107 25//108
f 25//109 26//110 19//111
f 23//112 33//113 21//114
f 26//115 27//116 22//117
f 33//118 23//119 28//120
f 24//121 29//122 23//123
f 23//124 29//125 28//126
f 24//127 27//128 30//129
f 30//130 29//131 24//132
f 30//133 34//134 29//135
f 21//136 129//137 25//138
f 42//139 129//140 21//141
f 32//142 42//143 21//144
f 26//145 42//146 31//147
f 26//148 25//149 42//150
f 21//151 33//152 32//153
f 31//154 27//155 26//156
f 31//157 52//158 27//159
f 29//160 35//161 37//162
f 128//163 37//164 36//165
f 128//166 36//167 38//168
f 27//169 39//170 30//171
f 35//172 29//173 34//174
f 36//175 41//176 38//177
f 42//178 32//179 51//180
f 51//181 31//182 42//183
f 57//184 33//185 53//186
f 27//187 52//188 39//189
f 28//190 40//191 44//192
f 53//193 33//194 28//195
f 44//196 53//197 28//198
f 67//199 41//200 36//201
f 36//202 35//203 147//204
f 37//205 35//206 36//207
f 67//208 134//209 41//210
f 132//211 131//212 139//213
f 44//214 47//215 53//216
f 33//217 51//218 32//219
f 57//220 51//221 33//222
f 135//223 50//224 137//225
f 140//226 39//227 58//228
f 56//229 60//230 35//231
f 35//232 60//233 147//234
f 31//235 51//236 52//237
f 63//238 52//239 51//240
f 57//241 53//242 70//243
f 77//244 52//245 63//246
f 77//247 39//248 52//249
f 58//250 39//251 77//252
f 53//253 47//254 54//255
f 54//256 65//257 53//258
f 53//259 65//260 68//261
f 134//262 67//263 69//264
f 61//265 60//266 56//267
f 77//268 62//269 58//270
f 66//271 60//272 61//273
f 51//274 153//275 63//276
f 51//277 57//278 153//279
f 63//280 82//281 77//282
f 64//283 70//284 53//285
f 64//286 53//287 68//288
f 87//289 81//290 62//291
f 77//292 87//293 62//294
f 146//295 70//296 71//297
f 71//298 70//299 73//300
f 73//301 72//302 71//303
f 75//304 153//305 57//306
f 70//307 64//308 74//309
f 146//310 71//311 76//312
f 75//313 57//314 72//315
f 72//316 73//317 85//318
f 78//319 68//320 65//321
f 149//322 147//323 60//324
f 60//325 88//326 149//327
f 88//328 78//329 149//330
f 79//331 154//332 60//333
f 66//334 79//335 60//336
f 80//337 79//338 66//339
f 78//340 88//341 68//342
f 80//343 89//344 79//345
f 153//346 179//347 63//348
f 84//349 75//350 72//351
f 83//352 150//353 64//354
f 72//355 85//356 84//357
f 84//358 86//359 177//360
f 97//361 83//362 64//363
f 87//364 77//365 99//366
f 68//367 88//368 92//369
f 92//370 88//371 93//372
f 91//373 87//374 99//375
f 87//376 160//377 81//378
f 170//379 151//380 94//381
f 181//382 95//383 164//384
f 105//385 184//386 171//387
f 84//388 85//389 86//390
f 75//391 84//392 182//393
f 113//394 64//395 68//396
f 85//397 101//398 86//399
f 113//400 97//401 64//402
f 108//403 177//404 86//405
f 97//406 113//407 198//408
f 103//409 166//410 104//411
f 185//412 183//412 167//412
f 86//413 101//414 186//415
f 173//416 106//416 188//416
f 108//417 86//418 187//419
f 181//420 107//421 95//422
f 107//423 191//424 95//425
f 110//426 175//427 168//428
f 101//429 195//430 169//431
f 112//432 195//433 101//434
l 2 114
l 49 133
l 197 200
l 162 180
l 48 136
l 55 59
l 148 152
l 96 172
l 174 189
l 5 6
l 117 118
l 4 122
l 138 141
l 98 178
l 111 194
l 45 46
l 119 124
l 144 145
l 109 176
l 90 156
l 155 161
l 100 193
l 190 192
l 120 121
l 196 113
l 157 159
l 142 143
l 43 130
l 158 163
l 102 165
l 199 201
