# Blender 4.1.1
# www.blender.org
o FJ609_BP2572_FMA55608_Right_depressor_septi_nasi
v -16.364010 -179.175232 1480.928223
v -16.420794 -178.714874 1481.596680
v -15.806100 -179.879898 1481.560059
v -16.688999 -178.979889 1481.920044
v -16.696743 -179.131073 1481.335083
v -15.859080 -178.323349 1482.785034
v -16.671570 -178.932999 1481.875244
v -15.984756 -177.839584 1482.803223
v -15.732626 -177.829788 1483.781128
v -14.055335 -180.992523 1480.665161
v -14.589000 -180.329895 1480.219971
v -16.224546 -177.919815 1482.207642
v -14.023888 -178.409973 1484.419189
v -15.639000 -177.329895 1484.300049
v -14.582478 -177.130798 1484.862183
v -14.672544 -181.045807 1480.826172
v -13.497539 -180.914780 1481.072266
v -13.655146 -180.918503 1481.052612
v -11.962729 -178.423340 1486.141846
v -12.758907 -181.853027 1480.795776
v -11.629885 -178.630463 1486.177734
v -13.648219 -178.262482 1484.228271
v -11.600929 -179.215500 1485.601929
v -10.251222 -179.264206 1484.943848
v -13.905627 -181.129547 1480.361206
v -11.949607 -179.183334 1485.598755
v -11.793796 -178.903381 1485.801392
v -10.394976 -182.958893 1481.117676
v -9.313735 -181.657700 1481.605103
v -10.535103 -180.637268 1482.605469
v -10.281198 -180.572479 1483.382690
v -9.112998 -180.570663 1484.714600
v -8.892102 -183.648453 1480.901855
v -9.792251 -183.919342 1480.571899
v -8.545093 -182.895584 1481.216553
v -9.262929 -182.260925 1481.004150
v -8.657263 -181.982178 1481.424927
v -7.869750 -181.321228 1483.526733
v -11.561074 -178.379242 1486.156616
v -7.028791 -183.516144 1481.957642
v -8.281113 -182.801590 1481.479858
v -8.255687 -182.614624 1481.000366
v -7.989542 -182.581894 1480.964844
v -8.045290 -182.579895 1480.959961
v -8.139040 -182.431900 1481.410034
v -8.407381 -180.118561 1488.477295
v -9.540097 -178.238220 1487.307129
v -7.512651 -184.138428 1481.038940
v -7.180639 -184.104477 1481.597046
v -6.189102 -183.643890 1481.066284
v -7.491590 -184.024048 1481.605591
v -5.698141 -182.242676 1489.280640
v -5.177800 -181.567062 1491.479736
v -9.160703 -180.426437 1484.722656
v -4.962524 -183.969360 1481.155884
v -5.139040 -183.790894 1480.660034
v -4.910781 -183.912750 1481.274902
v -5.483290 -184.171066 1482.221802
v -4.984164 -184.022736 1482.570679
v -5.068707 -184.184555 1481.912964
v -4.964419 -183.712067 1482.839600
v -6.168558 -183.643707 1481.039062
v -5.142463 -183.781693 1480.663696
v -4.780674 -183.314651 1481.444580
v -5.589040 -183.779892 1482.780029
v -5.438443 -183.573715 1484.388062
v -4.673377 -182.818695 1486.212402
v -4.475756 -182.941788 1489.766846
v -5.042828 -182.098160 1490.891846
v -3.691137 -182.140396 1492.973389
v -5.502824 -179.992935 1490.224976
v -4.791873 -183.818298 1481.082153
v -4.577491 -184.573380 1480.702759
v -3.356746 -183.724899 1484.063721
v -4.654248 -184.063492 1482.467773
v -4.670685 -184.173950 1482.414917
v -4.483614 -183.967606 1481.021973
v -3.905124 -183.699661 1480.950073
v -3.830305 -183.689072 1484.166138
v -4.604632 -183.679977 1483.006226
v -2.796087 -183.108765 1490.729492
v -2.939404 -183.344681 1490.742432
v -3.997174 -183.004135 1489.947632
v -4.667373 -182.600235 1490.568604
v -5.608020 -182.359680 1489.642700
v -3.158912 -181.489731 1492.655273
v -3.966122 -180.793503 1491.959595
v -3.856139 -183.680756 1480.974487
v -1.951675 -183.786758 1479.884399
v -2.589040 -183.629898 1480.000000
v -2.620076 -183.592239 1488.147217
v -3.896376 -183.328735 1484.414062
v -2.866221 -183.332397 1486.834351
v -4.320751 -183.306168 1486.365234
v -3.212980 -183.179886 1492.810059
v -3.125416 -182.689636 1494.709351
v -2.644811 -183.064972 1494.199829
v -0.909580 -183.391510 1480.449585
v -3.637870 -181.679886 1495.060059
v -3.307317 -181.601624 1495.318481
v -3.066403 -182.486237 1494.722290
v -3.199927 -181.232864 1495.255615
v -2.117629 -182.895844 1489.183472
v -3.248390 -180.628723 1493.691406
v -3.579183 -180.539780 1494.062012
v -3.343034 -180.377060 1493.982056
v -3.247201 -181.524933 1495.274658
v -2.895494 -180.827698 1494.978394
v -2.889040 -180.779892 1494.969971
v -0.747429 -183.918747 1487.987549
v -1.165936 -184.072632 1489.985107
v -1.989040 -183.479889 1479.869995
v -1.638646 -183.785660 1491.764038
v -1.891681 -183.268051 1491.645264
v -1.604319 -182.373657 1493.554443
v -0.980114 -183.929886 1489.660034
v -0.858161 -183.179886 1480.209961
v -0.690243 -183.043625 1482.166626
v -0.924031 -182.734863 1480.154907
v -1.182015 -183.979156 1489.663208
v -1.154145 -183.481033 1491.447510
v -1.168457 -183.073990 1492.025024
v -16.665646 -179.303177 1481.397827
v -16.739401 -179.129898 1481.260010
v -16.703009 -179.211823 1481.498901
v -16.688999 -178.979889 1481.920044
v -16.091141 -178.296555 1482.722900
v -16.089001 -178.355896 1482.760010
v -16.172621 -177.737335 1483.677002
v -16.141500 -177.629898 1483.660034
v -16.141500 -177.629898 1483.660034
v -14.589000 -180.329895 1480.219971
v -14.589000 -180.329895 1480.219971
v -15.639000 -177.329895 1484.300049
v -15.548528 -177.259827 1484.264160
v -15.229977 -177.410507 1483.996216
v -13.638926 -181.566086 1480.814453
v -13.391829 -180.927628 1480.962891
v -13.456699 -180.536652 1480.866211
v -14.139000 -176.952896 1484.859985
v -12.790481 -177.796249 1485.626221
v -11.770015 -178.349289 1486.120239
v -12.039000 -179.429886 1485.609985
v -7.578547 -184.043045 1481.027344
v -9.304427 -182.162125 1480.969849
v -9.339040 -181.529892 1481.750000
v -9.198724 -178.328995 1487.366943
v -7.889187 -182.915558 1480.960571
v -8.125280 -182.655426 1480.967163
v -8.001180 -182.764572 1481.072876
v -7.989542 -182.581894 1480.964844
v -8.045290 -182.579895 1480.959961
v -8.139040 -182.431900 1481.410034
v -8.139040 -182.431900 1481.410034
v -8.139040 -182.431900 1481.410034
v -5.139040 -183.790894 1480.660034
v -4.970725 -183.483627 1481.361328
v -5.439040 -184.281891 1481.709961
v -4.967134 -184.244370 1482.009521
v -5.142463 -183.781693 1480.663696
v -5.416060 -183.179886 1483.510010
v -5.903594 -182.864578 1485.527466
v -5.954040 -183.029892 1485.310059
v -5.207761 -182.405823 1491.435547
v -6.047490 -179.557892 1489.589966
v -4.839040 -183.779892 1481.060059
v -3.939040 -183.629898 1480.939941
v -3.936071 -183.416397 1483.955811
v -4.689040 -182.856888 1486.209961
v -4.289042 -180.477478 1491.475952
v -2.941440 -183.808807 1480.221802
v -2.632217 -183.675369 1480.046997
v -3.026774 -183.706451 1480.054565
v -2.589040 -183.629898 1480.000000
v -3.339040 -183.735886 1484.109985
v -2.589040 -183.571899 1488.310059
v -3.212980 -183.179886 1492.810059
v -3.600200 -182.429886 1492.660034
v -3.637870 -181.679886 1495.060059
v -3.554681 -180.476715 1493.352905
v -3.189040 -180.566895 1494.160034
v -2.963829 -180.778290 1494.931030
v -0.880640 -184.046677 1489.122925
v -2.289040 -183.789886 1492.660034
v -1.946993 -183.411011 1479.862305
v -1.762707 -183.285004 1479.846191
v -1.689040 -183.179886 1479.810059
v -1.520067 -183.491379 1491.703613
v -0.789043 -184.028900 1488.760010
v -0.890004 -183.922760 1489.696533
v -0.858161 -183.179886 1480.209961
v -0.927844 -183.021881 1480.260132
v -0.858161 -183.179886 1480.209961
v -0.436751 -182.623245 1480.338745
v -1.048504 -183.182434 1482.411621
v -1.198030 -183.479889 1491.459961
v -8.589040 -182.729889 1480.900024
v -4.989040 -184.022888 1481.109985
v -16.688999 -178.979889 1481.920044
vn -0.6976 -0.3086 -0.6466
vn -0.2503 0.0932 -0.9637
vn -0.6788 -0.3067 -0.6672
vn -0.6976 -0.7163 -0.0150
vn -0.6873 -0.6749 -0.2684
vn -0.5439 -0.8196 0.1803
vn -0.1962 0.5412 -0.8177
vn -0.3303 0.6065 -0.7232
vn -0.0956 0.8270 -0.5540
vn 0.6364 0.6551 -0.4072
vn 0.6481 0.6342 -0.4215
vn 0.4159 0.8003 -0.4320
vn -0.6336 -0.5052 0.5859
vn -0.8061 -0.4484 0.3860
vn -0.7966 -0.4832 0.3632
vn -0.4926 -0.7184 0.4912
vn -0.6008 -0.7433 0.2944
vn -0.5934 -0.5233 0.6115
vn -0.4077 -0.5691 0.7141
vn -0.4110 -0.5484 0.7282
vn -0.3850 -0.6061 0.6960
vn -0.4740 -0.8701 0.1351
vn -0.6355 -0.7185 0.2825
vn -0.4981 -0.8565 0.1351
vn 0.0281 0.9336 -0.3572
vn -0.1603 0.9710 -0.1774
vn -0.0356 0.9711 -0.2360
vn -0.5805 -0.6569 0.4812
vn -0.4975 -0.5213 0.6934
vn -0.6183 -0.3221 0.7169
vn -0.1849 -0.5622 -0.8061
vn -0.4285 -0.6774 -0.5979
vn -0.1352 -0.3594 -0.9233
vn 0.4443 0.6927 -0.5681
vn 0.6543 0.6295 -0.4191
vn 0.5959 0.6186 -0.5121
vn 0.5619 0.6649 -0.4921
vn 0.3484 0.8317 -0.4323
vn 0.4711 0.7612 -0.4457
vn -0.6040 -0.0475 0.7955
vn -0.6077 -0.0602 0.7919
vn -0.6147 0.0812 0.7845
vn -0.4143 -0.8344 0.3636
vn -0.5426 -0.7057 0.4556
vn -0.4131 -0.6574 0.6302
vn 0.1730 0.8584 -0.4828
vn 0.4614 0.7213 -0.5165
vn 0.5361 0.6520 -0.5361
vn -0.5830 -0.0212 0.8122
vn -0.5879 -0.1681 0.7913
vn -0.4778 -0.3239 0.8166
vn 0.2420 0.8282 -0.5055
vn 0.2167 0.8910 -0.3991
vn 0.0756 0.9289 -0.3627
vn -0.6186 -0.3402 0.7083
vn -0.4642 -0.6196 0.6329
vn -0.5950 -0.5159 0.6163
vn -0.2912 -0.9285 0.2305
vn -0.5094 -0.8539 -0.1066
vn -0.1736 -0.8623 -0.4757
vn 0.2988 0.8604 -0.4129
vn 0.2619 0.6308 -0.7304
vn 0.4582 0.6087 -0.6477
vn -0.2121 0.9720 -0.1011
vn -0.0979 0.9331 -0.3461
vn -0.0436 0.9355 -0.3505
vn 0.8236 -0.0194 -0.5668
vn 0.6597 -0.2724 -0.7004
vn 0.6381 -0.1654 -0.7520
vn -0.5846 -0.6305 0.5106
vn -0.6676 -0.4252 0.6112
vn -0.5759 -0.5352 0.6180
vn 0.3438 0.7408 -0.5770
vn -0.0052 0.7182 -0.6958
vn 0.4724 0.6129 -0.6334
vn 0.1042 0.8071 -0.5812
vn 0.2307 0.8228 -0.5193
vn 0.2428 0.8687 -0.4317
vn -0.4029 0.2839 0.8701
vn -0.4558 0.0275 0.8897
vn -0.4893 0.3976 0.7762
vn 0.1206 0.5571 -0.8216
vn 0.1430 0.4264 -0.8932
vn 0.1420 0.2244 -0.9641
vn 0.0193 -0.4727 -0.8810
vn -0.0344 -0.3210 -0.9465
vn -0.0077 -0.2670 -0.9637
vn 0.3216 0.7254 -0.6086
vn 0.3395 0.6504 -0.6795
vn 0.4011 0.5914 -0.6995
vn 0.5548 0.5921 -0.5845
vn 0.3033 0.4714 -0.8281
vn 0.5365 0.6690 -0.5145
vn 0.3659 0.8398 -0.4012
vn 0.5185 0.7305 -0.4444
vn 0.4724 0.5530 -0.6863
vn -0.3917 -0.8677 0.3061
vn -0.6109 -0.6491 0.4533
vn -0.5299 -0.6897 0.4934
vn -0.5149 -0.8106 0.2789
vn -0.5791 -0.6470 0.4959
vn -0.3013 -0.8914 0.3386
vn 0.3331 0.7758 -0.5360
vn 0.5401 0.7444 -0.3926
vn 0.4581 0.7016 -0.5459
vn 0.6292 0.6819 -0.3732
vn 0.5733 0.7021 -0.4223
vn 0.5398 0.7115 -0.4498
vn -0.3641 -0.9272 -0.0879
vn -0.4731 -0.7627 0.4410
vn -0.5282 -0.8008 0.2823
vn -0.3922 -0.1308 0.9105
vn -0.3203 -0.3403 0.8841
vn -0.5872 -0.2369 0.7740
vn -0.0061 0.0653 -0.9978
vn -0.0806 0.1279 -0.9885
vn 0.0194 0.3648 -0.9309
vn 0.4298 0.7459 -0.5088
vn 0.3689 0.8044 -0.4657
vn 0.3535 0.7348 -0.5789
vn -0.0660 -0.9468 0.3151
vn -0.1730 -0.8673 0.4668
vn -0.0055 -0.8283 0.5602
vn -0.7098 -0.6272 0.3206
vn -0.5250 -0.7197 0.4542
vn -0.2454 -0.8572 0.4527
vn 0.4111 0.5029 -0.7604
vn 0.3561 0.4395 -0.8246
vn 0.3533 0.5400 -0.7639
vn -0.4550 -0.4377 -0.7755
vn -0.3960 -0.5018 -0.7691
vn -0.3694 -0.4163 -0.8308
vn 0.3455 0.7092 -0.6145
vn 0.4421 0.7028 -0.5573
vn 0.4220 0.8165 -0.3941
vn 0.1281 0.8499 -0.5111
vn 0.0989 0.8892 -0.4468
vn 0.2204 0.8798 -0.4212
vn 0.6062 0.5976 0.5249
vn 0.5972 0.7233 0.3466
vn 0.5937 0.7186 0.3620
vn 0.3174 0.8815 -0.3496
vn 0.2818 0.8619 -0.4215
vn 0.4011 0.8794 -0.2565
vn -0.5768 0.2314 0.7834
vn -0.4995 -0.1490 0.8534
vn -0.5537 0.4868 0.6756
vn 0.1075 0.9290 0.3540
vn -0.3670 0.7287 0.5782
vn 0.1108 0.9258 0.3613
vn -0.0456 -0.9827 0.1794
vn -0.1180 -0.9670 0.2259
vn -0.1168 -0.9645 0.2369
vn -0.1554 -0.9495 0.2726
vn 0.1922 -0.9796 -0.0593
vn 0.0623 -0.9979 0.0195
vn 0.4046 0.8678 -0.2883
vn 0.4983 0.8404 -0.2132
vn 0.2577 0.9657 -0.0324
vn -0.0504 0.8075 -0.5877
vn 0.0964 0.6118 -0.7851
vn 0.2994 0.7769 -0.5539
vn -0.4612 -0.8549 0.2375
vn -0.6362 -0.7592 0.1374
vn -0.6804 -0.6947 0.2334
vn 0.3472 0.9306 -0.1160
vn 0.1871 0.9528 -0.2390
vn 0.4244 0.8629 -0.2746
vn -0.6445 0.4218 0.6377
vn -0.4432 0.8439 0.3023
vn -0.4964 0.3755 0.7827
vn 0.1218 -0.9916 -0.0446
vn -0.1571 -0.9816 0.1087
vn -0.0570 -0.9759 -0.2107
vn 0.2074 -0.0306 -0.9778
vn -0.0445 -0.1111 -0.9928
vn 0.1031 -0.3572 -0.9283
vn -0.0254 -0.9703 -0.2404
vn -0.2036 -0.9695 0.1368
vn -0.1002 -0.9880 -0.1175
vn -0.3684 -0.8290 0.4208
vn -0.4978 -0.6285 0.5976
vn -0.4111 -0.8005 0.4361
vn 0.1498 -0.9678 -0.2022
vn -0.0489 -0.9950 0.0869
vn 0.0939 -0.9500 0.2978
vn 0.6719 -0.5888 -0.4493
vn 0.5903 -0.5878 -0.5532
vn 0.5448 -0.6120 -0.5733
vn -0.0338 -0.8282 0.5593
vn -0.0887 -0.7312 0.6764
vn 0.0786 -0.8504 0.5202
vn 0.1958 -0.1120 -0.9742
vn 0.0142 0.4585 -0.8886
vn 0.0196 0.1812 -0.9832
vn 0.0953 -0.9929 -0.0708
vn 0.0086 -0.9722 0.2341
vn 0.2431 -0.9657 0.0912
vn 0.0087 -0.9945 0.1042
vn 0.0373 -0.9972 -0.0642
vn -0.1365 -0.9895 -0.0481
vn 0.3452 -0.9381 0.0270
vn 0.3566 -0.9323 -0.0614
vn 0.4179 -0.9056 -0.0722
vn -0.2227 -0.9745 0.0270
vn -0.1419 -0.9307 0.3370
vn -0.1681 -0.9857 0.0124
vn -0.0740 -0.9774 0.1981
vn -0.2776 -0.9548 0.1063
vn -0.1122 -0.9135 0.3910
vn -0.1431 -0.9439 0.2976
vn -0.3061 -0.8568 0.4150
vn -0.1465 -0.9358 0.3207
vn -0.5510 0.8127 0.1893
vn -0.5050 0.8406 0.1961
vn -0.4239 0.9040 0.0562
vn -0.0717 0.9063 -0.4165
vn 0.2223 0.8689 -0.4423
vn 0.4177 0.8829 -0.2147
vn 0.6751 -0.5044 -0.5383
vn 0.7166 -0.5420 -0.4390
vn 0.6544 -0.4931 -0.5733
vn -0.1590 -0.9814 0.1077
vn -0.2305 -0.9687 -0.0922
vn -0.1010 -0.9948 0.0118
vn -0.5409 0.2557 -0.8013
vn -0.4306 0.3394 -0.8363
vn -0.5708 0.3264 -0.7534
vn 0.1908 -0.9567 0.2197
vn 0.0541 -0.9979 0.0344
vn 0.0136 -0.9997 -0.0203
vn 0.4256 -0.9036 0.0492
vn 0.5391 -0.8368 -0.0958
vn 0.5864 -0.7969 -0.1454
vn -0.3891 -0.8195 0.4207
vn -0.5729 -0.6626 0.4825
vn -0.3335 -0.7643 0.5519
vn -0.2106 -0.8741 0.4378
vn -0.4499 -0.6720 0.5883
vn -0.3731 -0.8424 0.3889
vn -0.4625 -0.8610 0.2118
vn -0.6098 -0.7674 0.1983
vn -0.5686 -0.8030 0.1785
vn -0.2828 -0.9431 0.1748
vn -0.4210 -0.8220 0.3834
vn -0.1564 -0.9315 0.3284
vn -0.3792 -0.9137 0.1464
vn -0.2401 -0.9647 -0.1079
vn -0.3138 -0.9494 -0.0090
vn -0.3880 -0.8936 0.2258
vn -0.4827 -0.8581 0.1755
vn -0.6447 -0.6741 0.3605
vn -0.5792 0.8080 0.1081
vn -0.5455 0.8278 0.1310
vn -0.1499 0.9822 0.1134
vn 0.3769 0.9066 -0.1899
vn 0.5589 0.7858 -0.2648
vn 0.6883 0.6408 -0.3401
vn 0.5254 0.8485 -0.0634
vn 0.8277 0.5602 -0.0324
vn 0.7604 0.6355 0.1344
vn 0.6208 0.7626 -0.1818
vn 0.7569 0.6146 -0.2221
vn 0.7251 0.6745 -0.1391
vn 0.7320 0.5372 -0.4191
vn 0.6664 0.6805 -0.3047
vn 0.6471 0.6175 -0.4472
vn -0.8992 -0.3647 -0.2416
vn -0.9478 -0.2248 -0.2260
vn -0.9156 -0.3572 -0.1846
vn -0.0856 -0.9963 -0.0022
vn -0.4953 -0.8621 0.1074
vn -0.4104 -0.8825 0.2298
vn -0.5544 -0.6502 -0.5195
vn -0.5098 -0.5619 -0.6514
vn -0.6614 -0.3931 -0.6388
vn 0.0419 0.9985 -0.0351
vn -0.1162 0.9062 -0.4065
vn 0.0463 0.9627 -0.2666
vn -0.6148 -0.7407 -0.2709
vn -0.7732 -0.6339 0.0207
vn -0.7318 -0.6448 0.2209
vn 0.0067 -0.9988 0.0490
vn 0.1372 -0.9696 -0.2026
vn -0.0576 -0.9951 0.0798
vn 0.7657 -0.6088 -0.2076
vn 0.8812 -0.4584 -0.1156
vn 0.8602 -0.4608 -0.2184
vn -0.1484 -0.9688 0.1986
vn -0.2487 -0.9626 0.1079
vn -0.2195 -0.9720 0.0841
vn 0.1353 -0.9858 0.0993
vn 0.3081 -0.9507 0.0351
vn 0.1400 -0.9772 0.1595
vn -0.5630 -0.7512 0.3446
vn -0.6333 -0.7029 0.3238
vn -0.2577 -0.9148 0.3111
vn -0.2967 -0.9316 0.2100
vn -0.5504 -0.7923 0.2633
vn -0.2902 -0.9426 0.1655
vn -0.8494 -0.2716 0.4525
vn -0.8540 -0.3995 0.3334
vn -0.8812 -0.4070 0.2405
vn 0.8489 0.0456 0.5267
vn 0.6854 -0.1706 0.7079
vn 0.7192 -0.3029 0.6253
vn 0.6752 0.6828 -0.2791
vn 0.6993 0.6591 -0.2769
vn 0.7178 0.6857 -0.1207
vn -0.4089 0.6457 0.6449
vn -0.6591 0.7025 0.2686
vn -0.8008 0.5966 0.0527
vn -0.6321 0.4981 0.5935
vn -0.3960 0.5668 0.7224
vn -0.6071 0.5405 0.5825
vn 0.2000 -0.9735 -0.1113
vn 0.0057 -0.9979 0.0647
vn -0.2267 -0.9631 0.1454
vn -0.3325 -0.8974 -0.2901
vn -0.0575 -0.9976 -0.0393
vn -0.1505 -0.9819 -0.1151
vn 0.4453 -0.8764 0.1832
vn 0.3761 -0.8969 0.2328
vn 0.2315 -0.9405 0.2487
vn 0.5514 -0.8342 0.0058
vn 0.6353 -0.7716 -0.0324
vn 0.3398 -0.9395 -0.0443
vn -0.0413 -0.9909 0.1280
vn 0.0259 -0.9615 0.2735
vn -0.5039 -0.8342 0.2241
vn -0.2879 -0.8979 0.3329
vn -0.4505 -0.8816 0.1409
vn -0.4960 -0.8492 0.1809
vn 0.7030 0.6849 -0.1919
vn 0.6884 0.6497 -0.3223
vn 0.7270 0.6697 -0.1518
vn -0.4770 -0.8764 0.0669
vn -0.6026 -0.7681 0.2165
vn -0.5674 -0.8183 0.0920
vn 0.5738 0.7859 -0.2305
vn 0.7240 0.6621 -0.1934
vn 0.5641 0.8184 0.1099
vn 0.7255 -0.6014 0.3346
vn 0.5748 -0.7678 0.2832
vn 0.6438 -0.7273 0.2377
vn 0.7124 -0.5312 0.4585
vn 0.9371 -0.2602 0.2328
vn 0.7555 -0.2104 0.6204
vn 0.8731 0.4869 0.0260
vn 0.8274 0.4557 0.3282
vn 0.9393 0.1917 0.2846
vn 0.8337 -0.2946 0.4671
vn 0.9534 -0.1993 0.2266
vn 0.9183 -0.0243 0.3951
vn 0.7987 -0.5758 0.1744
vn 0.7901 -0.6098 0.0616
vn 0.8391 -0.5201 0.1593
vn 0.3815 -0.9179 -0.1090
vn 0.4539 -0.8370 -0.3058
vn 0.6556 -0.7305 -0.1912
vn 0.4246 -0.9006 -0.0928
vn 0.5734 -0.8096 -0.1253
vn 0.4845 -0.8744 -0.0264
vn 0.5310 0.8463 0.0426
vn 0.6246 0.7645 0.1593
vn 0.6060 0.7810 0.1509
s 0
f 2//1 10//2 3//3
f 2//4 11//5 10//6
f 132//7 123//8 12//9
f 17//10 133//11 12//12
f 26//13 2//14 3//15
f 26//16 3//17 16//18
f 128//19 126//20 22//21
f 13//22 134//23 8//24
f 12//25 130//26 15//27
f 23//28 19//29 136//30
f 20//31 16//32 10//33
f 25//34 133//35 17//36
f 17//37 12//38 21//39
f 22//40 126//41 143//42
f 13//43 27//44 134//45
f 12//46 15//47 21//48
f 140//49 136//50 19//51
f 17//52 21//53 24//54
f 27//55 13//56 26//57
f 28//58 16//59 20//60
f 30//61 29//62 25//63
f 31//64 30//65 25//66
f 139//67 24//68 25//69
f 23//70 46//71 19//72
f 36//73 137//74 29//75
f 25//76 24//77 31//78
f 19//79 46//80 47//81
f 137//82 35//83 144//84
f 35//85 137//86 36//87
f 145//88 45//89 197//90
f 37//91 36//92 29//93
f 146//94 38//95 37//96
f 28//97 26//98 16//99
f 52//100 26//101 28//102
f 30//103 54//104 29//105
f 31//106 24//107 54//108
f 48//109 49//110 33//111
f 49//112 40//113 33//114
f 62//115 144//116 35//117
f 45//118 50//119 148//120
f 33//121 40//122 28//123
f 52//124 28//125 68//126
f 37//127 45//128 145//129
f 50//130 45//131 37//132
f 50//133 37//134 38//135
f 29//136 54//137 38//138
f 54//139 24//140 39//141
f 54//142 39//143 71//144
f 47//145 46//146 87//147
f 147//148 87//149 165//150
f 28//151 40//152 67//153
f 28//154 162//155 68//156
f 38//157 54//158 64//159
f 64//160 50//161 38//162
f 26//163 52//164 53//165
f 71//166 64//167 54//168
f 70//169 87//170 46//171
f 60//172 48//173 55//174
f 62//175 57//176 144//177
f 60//178 58//179 48//180
f 58//181 65//182 48//183
f 59//184 58//185 60//186
f 76//187 158//188 157//189
f 61//190 65//191 58//192
f 62//193 64//194 57//195
f 66//196 49//197 65//198
f 65//199 61//200 66//201
f 169//202 51//203 161//204
f 94//205 82//206 163//207
f 162//208 83//209 68//210
f 52//211 86//212 53//213
f 52//214 164//215 86//216
f 98//217 64//218 71//219
f 157//220 74//221 76//222
f 74//223 157//224 88//225
f 167//226 57//227 64//228
f 66//229 61//230 81//231
f 59//232 79//233 91//234
f 74//235 80//236 76//237
f 162//238 82//239 83//240
f 68//241 84//242 52//243
f 81//244 84//245 68//246
f 84//247 81//248 95//249
f 85//250 178//251 100//252
f 86//253 164//254 99//255
f 71//256 170//257 103//258
f 71//259 103//260 119//261
f 170//262 115//263 103//264
f 115//265 170//266 104//267
f 99//268 105//269 86//270
f 110//271 93//272 74//273
f 173//274 167//275 64//276
f 98//277 173//278 64//279
f 88//280 175//281 74//282
f 61//283 93//284 81//285
f 79//286 93//287 91//288
f 74//289 93//290 80//291
f 95//292 81//293 97//294
f 84//295 177//296 96//297
f 97//298 96//299 95//300
f 96//301 100//302 178//303
f 108//304 102//305 101//306
f 115//307 104//308 109//309
f 102//310 108//311 99//312
f 99//313 108//314 105//315
f 89//316 110//317 88//318
f 93//319 110//320 111//321
f 183//322 113//323 184//324
f 191//325 118//326 89//327
f 175//328 88//329 110//330
f 81//331 93//332 111//333
f 116//334 103//335 122//336
f 111//337 97//338 81//339
f 103//340 115//341 122//342
f 121//343 113//344 183//345
f 184//346 113//347 101//348
f 114//349 101//350 113//351
f 101//352 114//353 108//354
f 195//355 193//356 194//357
f 110//358 89//359 118//360
f 195//361 194//362 120//363
f 119//364 103//365 190//366
l 117 186
l 1 124
l 149 154
l 78 166
l 188 196
l 131 135
l 52 69
l 181 182
l 4 125
l 14 129
l 150 155
l 5 7
l 141 142
l 151 152
l 112 172
l 6 9
l 20 34
l 90 171
l 174 185
l 127 199
l 56 63
l 18 138
l 91 176
l 156 160
l 107 179
l 180 106
l 35 41
l 43 44
l 42 153
l 75 159
l 73 77
l 189 183
l 72 198
l 92 168
l 187 192
l 31 32
