# Blender 4.1.1
# www.blender.org
o FJ695_BP2734_FMA37483_Fourth_lumbrical_of_right_foot
v -125.060020 -158.248657 -1.289827
v -125.319832 -158.824020 -0.990852
v -125.318001 -158.792999 -0.977483
v -125.088074 -158.860168 -0.762540
v -125.140076 -158.897125 -0.612906
v -125.042267 -158.588089 -0.997202
v -124.976997 -157.854996 -1.280458
v -125.159035 -158.088486 -1.298706
v -124.235039 -157.221085 -1.303820
v -123.841019 -156.621887 -1.110523
v -123.781891 -157.094864 -0.844541
v -123.972084 -156.534500 -1.071711
v -123.716125 -155.937561 -0.973498
v -123.583000 -155.184998 -0.802485
v -125.034538 -158.727432 -0.755505
v -125.119003 -158.839005 -0.576851
v -125.189873 -158.778107 -0.897531
v -124.931770 -158.761658 -0.491607
v -124.637001 -158.516006 -1.027278
v -124.891998 -158.667999 -0.440571
v -124.630554 -158.519730 -1.036821
v -123.391998 -156.912994 -1.130188
v -123.672997 -157.688995 -0.823095
v -123.285004 -156.895004 0.435887
v -123.984375 -155.347900 -0.871880
v -123.233612 -154.504639 0.055994
v -123.449669 -154.865906 1.039885
v -123.105797 -154.840454 0.891118
v -120.953728 -151.847061 -0.611362
v -116.638145 -137.242279 1.472756
v -115.671097 -137.834824 0.511590
v -122.393448 -156.551254 0.001224
v -122.759178 -156.168259 0.500189
v -119.826233 -152.382401 -0.857718
v -120.190857 -153.260696 -0.947189
v -120.665245 -153.596939 1.677140
v -120.144997 -149.684998 0.732332
v -118.091179 -146.921280 2.541384
v -115.626656 -143.236694 -0.586732
v -118.374001 -145.100006 2.129841
v -113.422577 -135.142471 0.661629
v -115.628426 -136.292130 1.764215
v -112.465553 -133.894073 1.018482
v -114.147240 -133.714645 2.134097
v -113.005318 -131.327499 2.687361
v -114.736572 -144.829453 2.339191
v -114.595116 -144.065094 0.482180
v -116.698326 -144.346741 3.397228
v -112.893806 -133.648361 3.233428
v -108.353348 -128.222305 2.824180
v -107.621620 -127.313461 3.143094
v -111.534050 -130.582535 2.905836
v -112.454178 -130.942078 2.744130
v -112.468002 -131.729996 3.349190
v -112.277733 -133.620193 0.786032
v -111.904999 -130.432007 3.282780
v -110.843102 -129.728821 3.515016
v -111.046471 -129.412415 3.327536
v -111.133156 -129.723862 4.430118
v -109.407066 -129.177216 1.089855
v -109.628410 -128.484009 3.502409
v -112.974350 -142.852264 2.055448
v -113.453453 -142.464706 1.599374
v -112.650749 -141.307922 1.922859
v -110.954079 -138.832657 2.220161
v -112.098999 -140.335999 1.047161
v -109.603600 -128.734039 4.174448
v -104.694649 -127.032173 1.398008
v -109.197998 -127.809998 4.189400
v -109.151840 -127.826202 4.035409
v -108.391624 -127.726662 1.232217
v -112.600708 -141.233734 1.975949
v -105.934425 -133.090500 3.315050
v -108.771240 -137.575699 3.057802
v -108.916634 -137.836121 2.010576
v -109.575806 -133.163391 4.032991
v -109.563789 -133.170959 4.038647
v -109.478897 -133.095734 3.821459
v -109.560997 -132.959000 4.011280
v -109.508286 -133.145462 4.268166
v -109.169914 -132.394012 4.018060
v -109.000175 -132.150436 3.995660
v -109.336769 -132.250854 4.010327
v -108.604263 -132.076935 4.533612
v -108.741852 -131.715286 3.848397
v -108.825714 -132.011215 3.966120
v -108.736000 -131.522995 4.127000
v -107.937599 -131.415726 4.460619
v -107.986000 -131.184006 4.358950
v -107.904091 -131.424744 4.459278
v -107.706001 -131.216995 4.325020
v -107.887878 -131.214691 4.431508
v -107.973999 -127.425003 4.870900
v -104.380547 -123.082741 5.495857
v -103.617317 -121.959015 2.345671
v -101.292908 -120.208191 3.136359
v -108.091858 -136.653442 3.209715
v -105.212067 -127.924202 4.854391
v -105.195587 -127.903954 4.830963
v -105.214073 -127.917450 4.855094
v -105.006470 -127.832245 4.945807
v -105.129066 -127.651497 5.074708
v -104.669998 -127.275002 5.138189
v -104.426361 -126.926872 4.996725
v -104.431999 -126.950996 5.008820
v -104.411095 -126.933281 5.008261
v -104.414001 -126.896004 5.013120
v -104.437790 -126.924522 5.012613
v -102.857666 -121.062447 6.170105
v -102.840996 -121.446838 2.823426
v -101.911705 -129.258560 4.443671
v -106.000977 -133.537888 2.918071
v -102.574348 -123.233978 6.793153
v -96.851357 -113.921928 9.337042
v -90.755821 -109.939301 8.049044
v -93.448883 -111.304703 6.719548
v -101.514938 -128.612106 4.707102
v -98.777718 -124.804169 5.939783
v -100.513000 -120.847000 7.977169
v -95.837105 -113.239197 9.753859
v -95.157227 -117.922188 6.639890
v -99.592133 -126.163155 5.573874
v -97.815834 -123.183807 6.300614
v -92.687271 -111.250572 7.055750
v -92.775261 -111.330193 9.232379
v -93.821800 -111.538986 7.002152
v -97.896538 -123.362816 6.393124
v -94.342796 -116.385185 9.569650
v -94.085632 -116.144501 9.401745
v -93.935097 -116.004097 7.236989
v -95.828964 -115.346252 10.465716
v -92.296082 -112.457458 9.360691
v -92.073212 -112.178726 9.386619
v -95.358208 -113.573555 8.422983
v -93.600868 -111.549782 7.207281
v -90.137398 -109.687752 8.687018
v -90.196098 -109.805878 9.011239
v -92.507271 -111.836403 8.704381
v -92.270134 -111.654091 9.097828
v -92.012230 -111.849739 9.349116
v -92.801842 -111.908775 9.595846
v -91.258629 -111.235657 12.077796
v -93.319603 -111.614998 10.074409
v -92.783516 -111.635506 9.689799
v -90.144867 -108.706017 12.589481
v -91.193001 -109.721001 8.319769
v -90.271599 -109.531998 8.955759
v -91.946938 -111.232712 8.222017
v -91.041420 -109.993317 12.615416
v -91.811012 -111.991692 11.290428
v -91.480698 -109.762001 11.603409
v -90.357399 -110.175003 12.109208
v -90.097763 -108.569778 12.586919
v -89.870773 -108.849556 12.812424
v -125.043686 -158.387787 -1.163074
v -124.876091 -158.300385 -1.074809
v -125.314560 -158.856918 -0.992048
v -125.334000 -158.841003 -0.981253
v -125.308342 -158.850494 -0.951428
v -125.091743 -158.677628 -0.919658
v -125.133003 -158.455002 -1.043818
v -125.140076 -158.897125 -0.612907
v -124.976997 -157.854996 -1.280458
v -124.416000 -157.395004 -1.423898
v -123.777550 -155.767303 -1.101891
v -125.030724 -158.809036 -0.700186
v -125.082436 -158.401520 -0.925564
v -125.119003 -158.839005 -0.576851
v -124.931770 -158.761658 -0.491607
v -124.637001 -158.516006 -1.027278
v -124.891998 -158.667999 -0.440571
v -123.672997 -157.688995 -0.823095
v -123.672997 -157.688995 -0.823095
v -116.338997 -136.860992 1.637600
v -116.161339 -137.029892 1.481912
v -120.685928 -151.015442 0.496126
v -118.374001 -145.100006 2.129841
v -115.010002 -134.783997 1.857760
v -115.010002 -134.783997 1.857760
v -113.192001 -131.440002 2.720770
v -113.192001 -131.440002 2.720770
v -112.755997 -131.156998 2.653460
v -112.755997 -131.156998 2.653460
v -112.755997 -131.156998 2.653460
v -119.225998 -151.112000 1.557841
v -114.498466 -144.020767 2.560925
v -115.101997 -138.029007 3.203881
v -112.111755 -130.517197 2.937428
v -112.011292 -130.485443 2.980409
v -111.375572 -130.864487 3.274718
v -112.468002 -131.729996 3.349190
v -112.598000 -132.110001 3.348490
v -112.468002 -131.729996 3.349190
v -111.856003 -131.942993 3.480200
v -111.259003 -129.606995 3.486770
v -111.004921 -129.562912 3.436217
v -111.060234 -129.584991 3.447999
v -109.821571 -128.316666 3.647447
v -110.388962 -137.754181 2.358536
v -109.941002 -128.787994 3.640940
v -109.592003 -128.470993 3.513060
v -109.793755 -128.640259 4.258078
v -109.112190 -127.923599 4.219493
v -109.559090 -133.171295 4.030906
v -109.589996 -133.162994 4.052250
v -109.568634 -133.028244 4.028922
v -109.261002 -133.104996 4.002440
v -109.185333 -132.035675 4.035724
v -109.534836 -131.861588 4.024475
v -109.288002 -132.214005 4.144340
v -109.288002 -132.214005 4.144340
v -108.686249 -132.006653 3.915981
v -109.032913 -131.406845 4.160991
v -108.930130 -132.343384 3.813178
v -108.566200 -132.218140 4.018273
v -108.798019 -131.533447 4.068026
v -108.736000 -131.522995 4.127000
v -107.931633 -131.273743 4.381882
v -107.944000 -131.414993 4.433930
v -107.986000 -131.184006 4.358950
v -107.911819 -131.430191 4.490162
v -107.847641 -131.300751 4.484306
v -107.900215 -131.430328 4.495862
v -107.898193 -131.284760 4.488334
v -107.706001 -131.216995 4.325020
v -107.706001 -131.216995 4.325020
v -107.706001 -131.216995 4.325020
v -107.862000 -131.237000 4.513530
v -107.973999 -127.425003 4.870900
v -105.949997 -124.709000 4.793570
v -105.949997 -124.709000 4.793570
v -105.949997 -124.709000 4.793570
v -102.749222 -121.399750 2.847843
v -105.265999 -128.110001 4.841470
v -105.265999 -128.110001 4.841470
v -105.205002 -127.919998 4.855289
v -105.215622 -127.914757 4.851729
v -105.216957 -127.905426 4.851658
v -105.244385 -127.891411 4.861783
v -105.031250 -127.811714 4.897505
v -105.031975 -127.808952 4.980371
v -105.108543 -127.728989 4.902656
v -105.144135 -127.654442 4.827584
v -104.423569 -126.917900 4.997331
v -104.434837 -126.915176 5.013313
v -104.431999 -126.950996 5.008820
v -104.431999 -126.950996 5.008820
v -104.431999 -126.950996 5.008820
v -104.407677 -126.923370 5.009271
v -104.422897 -126.930687 5.025106
v -104.419449 -126.920715 5.025968
v -104.414001 -126.896004 5.013120
v -104.414001 -126.896004 5.013120
v -104.414001 -126.896004 5.013120
v -101.100189 -119.759422 3.139559
v -93.254700 -115.079659 7.417399
v -92.779800 -111.306000 7.172978
v -91.951698 -112.377533 9.097248
v -93.067421 -112.340790 8.772845
v -90.524765 -110.077629 8.624118
v -92.577003 -111.634003 9.120998
v -92.522919 -111.640762 9.158774
v -92.166626 -111.707230 8.133128
v -92.951965 -111.945229 8.987753
v -92.609505 -111.649765 9.601240
v -92.319298 -112.055000 9.375388
v -91.684799 -111.375000 8.794168
v -92.327797 -111.665001 9.804249
v -92.486725 -111.624878 9.791456
v -93.319603 -111.614998 10.074409
v -91.193001 -109.721001 8.319769
v -90.232742 -109.682884 9.554377
v -91.636703 -110.903999 10.661609
v -91.636703 -110.903999 10.661609
v -91.636703 -110.903999 10.661609
v -91.636703 -110.903999 10.661609
v -90.817902 -111.265999 11.809608
v -90.817902 -111.265999 11.809608
v -90.817902 -111.265999 11.809608
v -91.480698 -109.762001 11.603409
v -90.346176 -110.061798 12.198892
v -90.262482 -109.668961 12.395741
v -90.002953 -109.440559 12.645911
v -90.143402 -108.799004 12.525708
v -89.912788 -108.710358 12.677478
v -122.138206 -156.576324 0.113638
v -112.794487 -134.110992 0.833442
v -123.285004 -156.895004 0.435887
v -104.880997 -132.544998 3.864460
vn -0.6541 0.5326 0.5371
vn -0.5826 0.4344 0.6870
vn -0.6372 0.4523 0.6240
vn -0.8680 0.3558 0.3464
vn -0.7958 0.5211 0.3085
vn -0.7760 0.5198 0.3571
vn 0.2813 -0.3990 -0.8728
vn 0.3342 -0.4286 -0.8394
vn 0.3693 -0.3739 -0.8508
vn 0.6030 -0.3530 -0.7154
vn 0.5141 -0.2879 -0.8079
vn 0.5548 -0.4137 -0.7218
vn -0.9471 -0.1715 0.2715
vn -0.9682 -0.2014 0.1487
vn -0.9563 0.0127 0.2921
vn -0.9519 -0.0290 0.3051
vn -0.9120 0.0194 0.4098
vn -0.9284 -0.2598 0.2655
vn 0.7328 -0.4628 -0.4988
vn 0.4862 -0.4110 -0.7712
vn 0.7496 -0.5358 -0.3886
vn 0.3451 -0.7673 0.5405
vn 0.2110 -0.7606 0.6139
vn 0.4113 -0.8608 0.2999
vn -0.2487 0.1619 -0.9549
vn -0.2359 0.2565 -0.9373
vn -0.1497 0.1800 -0.9722
vn -0.1405 0.1141 -0.9835
vn -0.1179 0.0207 -0.9928
vn -0.2411 0.2185 -0.9456
vn 0.4105 -0.1583 -0.8980
vn 0.1577 -0.1508 -0.9759
vn 0.3923 -0.3017 -0.8690
vn -0.7829 0.5408 -0.3075
vn -0.7709 0.5837 -0.2551
vn -0.7691 0.5503 -0.3249
vn -0.4475 0.1942 -0.8729
vn -0.4693 0.3327 -0.8179
vn -0.4544 0.3284 -0.8280
vn -0.5661 0.8195 0.0887
vn -0.7617 0.6430 0.0793
vn -0.7420 0.6525 0.1539
vn -0.4592 0.2330 0.8572
vn -0.5397 0.4301 0.7237
vn -0.4042 0.2235 0.8869
vn -0.8962 0.4214 0.1391
vn -0.8193 0.5435 -0.1828
vn -0.7755 0.5979 0.2030
vn -0.1597 0.0742 0.9844
vn -0.4743 0.0944 0.8753
vn -0.3871 -0.0680 0.9195
vn -0.7322 0.3621 -0.5769
vn -0.6884 0.3046 -0.6583
vn -0.3205 0.1821 -0.9296
vn -0.4306 0.3383 -0.8368
vn -0.2713 0.3300 -0.9041
vn -0.1268 0.1084 -0.9860
vn 0.6001 -0.4132 0.6850
vn 0.4410 -0.5568 0.7039
vn 0.5678 -0.5365 0.6243
vn -0.0148 -0.4682 0.8835
vn 0.0781 -0.6323 0.7708
vn 0.2345 -0.6285 0.7416
vn 0.7388 -0.5696 -0.3601
vn 0.4602 -0.4875 -0.7420
vn 0.7494 -0.5534 -0.3635
vn -0.2145 -0.1449 0.9659
vn -0.3790 -0.3059 0.8734
vn -0.3960 -0.1575 0.9046
vn 0.2352 -0.4598 0.8563
vn 0.0322 -0.2542 0.9666
vn 0.1593 -0.4223 0.8923
vn 0.6972 -0.5766 0.4259
vn 0.4503 -0.4771 0.7547
vn 0.5790 -0.4572 0.6751
vn 0.7496 -0.4402 -0.4942
vn 0.7456 -0.4474 -0.4939
vn 0.5559 -0.2754 -0.7843
vn 0.8491 -0.5076 -0.1458
vn 0.8359 -0.5416 -0.0889
vn 0.6031 -0.7973 0.0252
vn 0.8367 -0.4371 -0.3299
vn 0.7504 -0.4305 -0.5016
vn 0.6319 -0.3716 -0.6802
vn -0.5961 0.2989 0.7452
vn -0.8737 0.3183 0.3678
vn -0.7419 0.3395 0.5782
vn -0.9328 0.3398 0.1200
vn -0.8972 0.2455 0.3670
vn -0.9392 0.2675 0.2155
vn -0.0973 0.0890 -0.9913
vn -0.1565 0.0669 -0.9854
vn -0.2347 0.0136 -0.9720
vn -0.7046 0.1952 0.6822
vn -0.7702 0.1683 0.6152
vn -0.7027 0.1860 0.6867
vn -0.7433 0.4139 0.5255
vn -0.6977 0.2228 0.6809
vn -0.7945 0.1563 0.5867
vn -0.5894 0.1907 0.7850
vn -0.6598 0.2060 0.7227
vn -0.6005 0.1787 0.7794
vn -0.6595 0.1083 0.7439
vn -0.7054 0.2807 0.6509
vn -0.6954 0.2537 0.6723
vn -0.4247 0.2615 -0.8667
vn -0.5218 0.4846 -0.7021
vn -0.3182 0.2119 -0.9240
vn -0.5483 0.6039 -0.5785
vn -0.7656 0.6268 -0.1445
vn -0.7014 0.6025 -0.3810
vn 0.1738 -0.0301 -0.9843
vn -0.0474 -0.0286 -0.9985
vn 0.1371 0.0470 -0.9894
vn -0.8098 0.5689 0.1435
vn -0.8518 0.5065 0.1339
vn -0.7565 0.6197 0.2091
vn -0.4991 0.2830 -0.8190
vn -0.5175 0.3110 -0.7972
vn -0.3396 0.1149 -0.9335
vn -0.6455 0.2787 -0.7111
vn -0.5126 0.4706 -0.7182
vn -0.5482 0.5582 -0.6228
vn -0.6375 0.1866 0.7475
vn -0.6483 0.1993 0.7348
vn -0.6121 0.1532 0.7758
vn -0.3239 0.6602 0.6777
vn 0.1630 -0.3690 0.9150
vn 0.4431 -0.3807 0.8116
vn 0.3377 -0.3564 0.8712
vn 0.3613 -0.4124 0.8363
vn 0.3411 -0.3828 0.8585
vn -0.0122 -0.6572 0.7536
vn 0.7919 -0.5902 0.1567
vn 0.5838 -0.5682 0.5799
vn 0.6443 -0.5670 0.5132
vn 0.6297 -0.2971 -0.7178
vn 0.4727 -0.3164 -0.8225
vn 0.6153 -0.2890 -0.7334
vn 0.2122 0.2991 -0.9303
vn 0.0426 0.3603 -0.9319
vn 0.2142 0.2775 -0.9365
vn -0.6239 0.2411 0.7434
vn -0.4111 0.3338 0.8482
vn -0.6385 0.2660 0.7222
vn -0.2933 0.0883 0.9519
vn -0.4944 0.0401 0.8683
vn -0.5056 0.0256 0.8624
vn 0.2119 -0.1133 0.9707
vn 0.3073 -0.0281 0.9512
vn 0.1992 -0.1525 0.9680
vn -0.4092 0.6000 0.6875
vn -0.4237 0.6053 0.6739
vn -0.3765 0.5758 0.7258
vn -0.4950 0.5009 -0.7100
vn -0.3678 0.5119 -0.7764
vn -0.4531 0.5559 -0.6969
vn -0.4524 0.7196 -0.5267
vn -0.4554 0.7674 -0.4514
vn -0.5364 0.7366 -0.4120
vn -0.6842 0.0793 0.7250
vn -0.6683 0.1133 0.7352
vn -0.5888 0.2649 0.7636
vn 0.7471 0.0182 -0.6645
vn 0.7456 0.0629 -0.6634
vn 0.5266 -0.1134 -0.8425
vn 0.8154 -0.5679 -0.1121
vn 0.7405 -0.6716 0.0222
vn 0.8364 -0.5215 -0.1688
vn 0.5765 -0.1948 -0.7935
vn 0.5618 -0.1177 -0.8189
vn 0.4042 -0.1131 -0.9076
vn 0.5020 -0.1527 -0.8512
vn 0.1743 -0.0263 -0.9843
vn 0.2229 -0.0464 -0.9737
vn 0.7084 -0.5693 0.4171
vn 0.6946 -0.6259 0.3547
vn 0.6397 -0.5728 0.5126
vn 0.6546 -0.6207 0.4316
vn 0.3618 -0.5851 0.7258
vn 0.6184 -0.4973 0.6085
vn 0.7974 -0.5588 -0.2277
vn 0.8420 -0.5336 0.0790
vn 0.6506 -0.7296 0.2107
vn -0.2389 0.0892 0.9669
vn -0.6602 0.1873 0.7274
vn -0.2164 0.0202 0.9761
vn -0.6888 0.6385 0.3434
vn -0.6546 0.6857 0.3183
vn -0.8423 0.4595 0.2819
vn 0.8218 -0.4961 -0.2803
vn 0.7130 -0.4893 -0.5022
vn 0.7196 -0.5351 -0.4426
vn -0.0276 0.1334 -0.9907
vn 0.1570 0.1321 -0.9787
vn 0.2395 -0.0485 -0.9697
vn -0.4666 0.7921 0.3935
vn -0.5656 0.7218 0.3990
vn -0.7522 0.5674 0.3350
vn -0.6500 0.6929 -0.3120
vn -0.5265 0.5515 -0.6470
vn -0.4839 0.6382 -0.5988
vn -0.7051 0.7058 -0.0683
vn -0.7426 0.6697 -0.0014
vn -0.7380 0.6748 0.0034
vn -0.1182 0.1832 -0.9759
vn 0.1059 -0.1120 -0.9880
vn -0.1205 0.2174 -0.9686
vn 0.2293 0.2857 -0.9305
vn 0.2866 0.2567 -0.9230
vn 0.4616 -0.0873 -0.8828
vn -0.7338 0.6779 0.0444
vn -0.7530 0.6580 0.0074
vn -0.7001 0.7117 0.0579
vn -0.7179 0.6278 -0.3008
vn -0.6457 0.6568 -0.3895
vn -0.8363 0.5049 -0.2135
vn 0.3405 -0.0436 -0.9392
vn 0.5686 -0.3030 -0.7647
vn 0.3250 -0.1123 -0.9390
vn 0.3602 -0.4061 0.8399
vn 0.3150 -0.3496 0.8824
vn 0.2122 -0.2522 0.9441
vn 0.7173 -0.6769 0.1651
vn 0.6797 -0.7331 0.0230
vn 0.6885 -0.7237 0.0464
vn 0.1332 -0.2321 0.9635
vn 0.3894 -0.4720 0.7909
vn 0.0852 -0.2068 0.9747
vn -0.7657 0.4348 -0.4741
vn -0.6834 0.3789 -0.6241
vn -0.8265 0.2936 -0.4803
vn -0.7082 0.4829 0.5150
vn -0.7267 0.4434 0.5246
vn -0.6847 0.4105 0.6022
vn -0.3728 0.0060 0.9279
vn -0.4687 0.1732 0.8662
vn -0.4785 0.1628 0.8629
vn -0.3642 0.5582 0.7455
vn -0.5225 0.3674 0.7694
vn -0.6112 0.4735 0.6342
vn 0.5690 -0.5637 0.5987
vn 0.6141 -0.5831 0.5318
vn 0.4073 -0.6799 0.6098
vn 0.7305 -0.5446 -0.4121
vn 0.7559 -0.5396 -0.3707
vn 0.7079 -0.5153 -0.4830
vn 0.5734 -0.1953 -0.7957
vn 0.5517 -0.2484 -0.7962
vn 0.5788 -0.2649 -0.7712
vn -0.2832 0.0165 0.9589
vn -0.4854 0.1430 0.8625
vn -0.3546 0.0038 0.9350
vn -0.3460 -0.0588 0.9364
vn -0.6632 0.4132 0.6241
vn -0.5197 0.2175 0.8262
vn -0.6304 0.6765 -0.3807
vn -0.7083 0.6663 -0.2330
vn -0.6976 0.6648 -0.2672
vn -0.7832 0.5893 0.1983
vn -0.7266 0.4072 0.5534
vn -0.7820 0.5988 0.1732
vn 0.2005 0.1401 -0.9696
vn 0.3433 0.0671 -0.9368
vn 0.2973 0.1039 -0.9491
vn -0.4241 -0.0414 0.9047
vn -0.5744 0.0874 0.8139
vn -0.7402 0.3975 0.5423
vn -0.7469 0.6466 0.1549
vn -0.7115 0.6916 0.1246
vn -0.7559 0.6506 0.0730
vn -0.6012 0.7772 -0.1861
vn -0.6261 0.7520 -0.2062
vn -0.6402 0.7533 -0.1508
vn -0.5946 0.7042 -0.3881
vn -0.6159 0.7155 -0.3297
vn -0.6277 0.6928 -0.3550
vn 0.4920 -0.1197 -0.8623
vn 0.1269 -0.0321 -0.9914
vn 0.4519 -0.0091 -0.8920
vn 0.6400 -0.0970 -0.7623
vn 0.7562 -0.3139 -0.5741
vn 0.6150 -0.2603 -0.7443
vn 0.2997 -0.4161 0.8585
vn 0.1043 -0.3427 0.9336
vn 0.1625 -0.3520 0.9218
vn 0.0612 -0.5586 0.8272
vn 0.2391 -0.5432 0.8049
vn 0.2257 -0.6251 0.7472
vn 0.7100 -0.2058 -0.6735
vn 0.4352 -0.0866 -0.8962
vn 0.4783 -0.0569 -0.8764
vn 0.6297 -0.3322 -0.7022
vn 0.4947 -0.2582 -0.8298
vn 0.7632 -0.3028 -0.5708
vn -0.6471 0.2612 0.7163
vn -0.6992 0.3328 0.6327
vn -0.7823 0.4973 0.3752
vn -0.4571 0.6332 -0.6246
vn -0.4446 0.6248 -0.6418
vn -0.4107 0.7842 -0.4651
vn 0.9159 -0.3370 -0.2179
vn 0.8115 -0.4383 -0.3864
vn 0.7778 -0.4456 -0.4432
vn 0.8083 -0.3826 -0.4476
vn 0.8306 -0.4188 -0.3669
vn 0.8052 -0.3147 -0.5027
vn 0.3313 -0.3875 0.8603
vn 0.2920 -0.5642 0.7723
vn 0.0548 -0.4070 0.9118
vn 0.1382 -0.4933 0.8588
vn 0.0573 -0.4918 0.8688
vn -0.0144 -0.4232 0.9059
vn 0.5292 -0.1115 -0.8411
vn 0.5101 -0.0994 -0.8544
vn 0.4454 0.0089 -0.8953
vn 0.7651 -0.5495 0.3357
vn 0.6134 -0.5337 0.5822
vn 0.6353 -0.5409 0.5512
vn 0.8719 -0.4891 0.0248
vn 0.8909 -0.4302 -0.1456
vn 0.8782 -0.4781 0.0119
vn 0.4525 -0.5653 0.6897
vn 0.3133 -0.0192 0.9495
vn 0.6199 -0.4521 0.6413
vn 0.8932 -0.4361 -0.1100
vn 0.8377 -0.5241 0.1533
vn 0.8226 -0.5408 0.1759
vn 0.3925 -0.8034 0.4477
vn 0.6685 -0.5383 0.5132
vn 0.6426 -0.6463 0.4116
vn 0.8325 -0.4613 0.3067
vn 0.8530 -0.5217 0.0136
vn 0.8622 -0.5024 0.0652
vn 0.7158 -0.1479 -0.6825
vn 0.6884 -0.2460 -0.6824
vn 0.4775 0.0794 -0.8750
vn -0.5316 0.7540 -0.3857
vn -0.3221 0.7726 -0.5472
vn -0.4641 0.8013 -0.3775
vn -0.1722 0.7356 -0.6551
vn -0.1796 0.7477 -0.6392
vn -0.2404 0.7153 -0.6561
vn 0.4617 0.1320 -0.8772
vn 0.4963 0.2568 -0.8293
vn 0.7684 0.0628 -0.6369
vn 0.1965 -0.4845 0.8524
vn 0.1206 -0.4605 0.8794
vn 0.1609 -0.4532 0.8768
vn 0.8385 -0.4695 -0.2765
vn 0.8556 -0.3871 -0.3436
vn 0.8513 -0.4812 -0.2094
vn 0.3920 -0.0965 0.9149
vn 0.2047 -0.0124 0.9788
vn 0.5559 0.0578 0.8292
vn 0.3014 0.3736 -0.8773
vn 0.3535 0.3859 -0.8521
vn 0.4038 0.4740 -0.7824
vn -0.3764 0.0745 0.9235
vn -0.4435 0.1501 0.8836
vn -0.7135 0.3531 0.6052
vn -0.6926 0.4664 0.5502
vn -0.7395 0.4463 0.5040
vn -0.7493 0.3633 0.5537
vn 0.2336 0.8746 -0.4248
vn 0.3654 0.8273 -0.4267
vn 0.0978 0.9242 -0.3692
vn 0.8611 0.3499 -0.3688
vn 0.8820 -0.0279 -0.4703
vn 0.8822 0.1331 -0.4517
vn -0.4085 0.8067 -0.4271
vn -0.5531 0.7205 -0.4184
vn -0.6272 0.7177 -0.3026
vn 0.0004 0.6362 -0.7715
vn -0.3109 0.7830 -0.5387
vn -0.3141 0.7849 -0.5342
vn -0.2554 0.8783 -0.4041
vn -0.2556 0.8783 -0.4040
vn -0.2420 0.8907 -0.3848
vn -0.5023 0.8617 -0.0721
vn -0.5002 0.8659 0.0103
vn -0.5863 0.8086 -0.0501
vn -0.5956 0.7995 0.0781
vn -0.7064 0.6529 0.2731
vn -0.6570 0.6596 0.3651
vn 0.0765 -0.3867 0.9190
vn -0.2192 -0.1368 0.9660
vn -0.2054 -0.1824 0.9615
vn 0.5020 0.5084 -0.6997
vn 0.3878 0.4271 -0.8168
vn 0.4893 0.3555 -0.7964
vn 0.3742 0.4182 -0.8277
vn 0.3144 0.3668 -0.8756
vn 0.4890 0.3492 -0.7994
s 0
f 163//1 17//2 10//3
f 24//4 10//5 17//6
f 21//7 8//8 23//9
f 23//10 8//11 22//12
f 24//13 25//14 10//15
f 25//16 24//17 27//18
f 173//19 22//20 32//21
f 286//22 167//23 172//24
f 34//25 165//26 29//27
f 165//28 34//29 9//30
f 22//31 8//32 35//33
f 14//34 26//35 29//36
f 13//37 14//38 29//39
f 26//40 25//41 27//42
f 36//43 176//44 28//45
f 37//46 26//47 27//48
f 37//49 30//50 26//51
f 26//52 30//53 29//54
f 30//55 41//56 29//57
f 41//58 30//59 31//60
f 33//61 167//62 286//63
f 32//64 22//65 35//66
f 36//67 28//68 288//69
f 286//70 185//71 33//72
f 286//73 46//74 185//75
f 47//76 35//77 39//78
f 35//79 62//80 32//81
f 62//82 35//83 47//84
f 36//85 38//86 176//87
f 37//88 40//89 30//90
f 39//91 34//92 29//93
f 176//94 38//95 177//96
f 48//97 177//98 38//99
f 40//100 174//101 30//102
f 177//103 48//104 175//105
f 29//106 41//107 39//108
f 31//109 51//110 41//111
f 43//112 39//113 41//114
f 41//115 51//116 71//117
f 43//118 60//119 39//120
f 31//121 30//122 50//123
f 175//124 54//125 180//126
f 182//127 181//127 191//127
f 38//128 185//129 46//130
f 46//131 48//132 38//133
f 62//134 186//135 32//136
f 47//137 39//138 66//139
f 66//140 39//141 199//142
f 48//143 49//144 175//145
f 49//146 54//147 175//148
f 187//149 49//150 192//151
f 52//152 183//153 193//154
f 30//155 58//156 50//157
f 50//158 58//159 61//160
f 59//161 192//162 49//163
f 62//164 47//165 63//166
f 47//167 65//168 63//169
f 62//170 63//171 64//172
f 62//173 64//174 73//175
f 62//176 74//177 186//178
f 47//179 75//180 65//181
f 72//182 63//183 65//184
f 113//185 49//186 48//187
f 202//188 198//189 194//190
f 70//191 67//192 49//193
f 60//194 68//195 39//196
f 198//197 202//198 69//199
f 94//200 50//201 61//202
f 230//203 201//204 203//205
f 95//206 68//207 60//208
f 95//209 96//210 68//211
f 233//212 71//213 125//214
f 64//215 72//216 73//217
f 72//218 65//219 73//220
f 46//221 97//222 48//223
f 199//224 39//225 112//226
f 48//227 97//228 113//229
f 78//230 211//231 85//232
f 80//233 84//234 81//235
f 49//236 93//237 70//238
f 70//239 93//240 231//241
f 74//242 62//243 111//244
f 111//245 62//246 112//247
f 112//248 39//249 68//250
f 113//251 93//252 49//253
f 113//254 109//255 93//256
f 114//257 50//258 94//259
f 229//260 109//261 232//262
f 68//263 96//264 116//265
f 113//266 131//267 109//268
f 51//269 125//270 71//271
f 115//272 233//273 125//274
f 110//275 126//276 255//277
f 111//278 112//279 121//280
f 121//281 122//282 111//283
f 97//284 118//285 113//286
f 119//287 113//288 128//289
f 121//290 68//291 124//292
f 112//293 68//294 121//295
f 131//296 120//297 109//298
f 50//299 114//300 134//301
f 121//302 123//303 122//304
f 121//305 130//306 123//307
f 118//308 128//309 113//310
f 128//311 131//312 119//313
f 124//314 68//315 116//316
f 127//317 128//318 118//319
f 132//320 129//321 123//322
f 150//323 128//324 127//325
f 123//326 130//327 132//328
f 132//329 130//330 133//331
f 136//332 133//333 130//334
f 137//335 121//336 124//337
f 134//338 143//339 261//340
f 257//341 135//342 146//343
f 124//344 271//345 137//346
f 277//347 131//348 128//349
f 278//350 129//351 132//352
f 136//353 140//354 133//355
f 151//356 143//357 134//358
f 131//359 145//360 120//361
f 148//362 267//363 272//364
f 141//365 142//366 266//367
f 141//368 149//369 142//370
f 151//371 134//372 114//373
f 273//374 143//375 151//376
f 144//377 270//378 274//379
f 115//380 125//381 147//382
f 151//383 114//384 154//385
f 277//386 145//387 131//388
f 276//389 280//390 152//391
f 280//392 153//393 152//394
l 1 7
l 237 241
l 15 157
l 139 262
l 138 263
l 196 200
l 282 284
l 204 207
l 2 3
l 90 226
l 158 166
l 269 275
l 195 197
l 102 239
l 283 285
l 104 105
l 103 240
l 169 171
l 117 289
l 107 244
l 142 258
l 86 208
l 108 246
l 18 20
l 248 250
l 256 260
l 4 159
l 219 221
l 5 16
l 245 252
l 53 179
l 87 212
l 220 224
l 6 19
l 160 161
l 206 210
l 214 216
l 242 243
l 249 253
l 184 188
l 76 79
l 88 89
l 77 205
l 215 217
l 222 227
l 42 44
l 106 247
l 98 99
l 162 168
l 155 170
l 9 164
l 279 281
l 223 228
l 57 190
l 91 218
l 235 238
l 12 13
l 11 156
l 56 189
l 55 287
l 100 234
l 265 268
l 101 236
l 251 254
l 259 264
l 45 178
l 82 83
l 209 213
l 92 225
