# Blender v2.90.1 OBJ File: 'main-plane-base1.blend'
# www.blender.org
mtllib main-plane-base-test-tex1.mtl
o Cube
v -8.770714 3.515396 -0.276542
v -8.770714 3.515396 0.276543
v 8.770714 3.515396 -0.276543
v 8.770714 3.515396 0.276542
v -8.770714 -3.515396 -0.276542
v -8.770714 -3.515396 0.276543
v 8.770714 -3.515396 -0.276543
v 8.770714 -3.515396 0.276542
v -8.770714 3.195815 0.276543
v -8.770714 -3.195815 0.276543
v 8.770714 -3.195815 0.276542
v 8.770714 3.195815 0.276542
v -7.973376 -3.195815 0.276543
v -3.189350 -3.195815 0.276542
v -2.392012 -3.195815 0.276542
v 2.392013 -3.195815 0.276542
v 3.189351 -3.195815 0.276542
v 7.973376 -3.195815 0.276542
v -7.973376 3.195815 0.276543
v -3.189350 3.195815 0.276542
v -2.392012 3.195815 0.276542
v 2.392013 3.195815 0.276542
v 3.189351 3.195815 0.276542
v 7.973376 3.195815 0.276542
v 8.770714 -3.195815 0.276542
v 8.770714 3.195815 0.276542
v 7.973376 -3.195815 0.276542
v 7.973376 3.195815 0.276542
vt 0.296875 0.484375
vt 0.274653 0.484375
vt 0.274653 0.787405
vt 0.704948 0.666667
vt 0.260503 0.666667
vt 0.260503 0.681818
vt 0.916258 0.772094
vt 0.916258 0.266969
vt 0.175408 0.266969
vt 0.352273 0.750000
vt 0.363636 0.750000
vt 0.363636 0.750000
vt 0.136364 0.738636
vt 0.136364 0.738636
vt 0.136364 0.750000
vt 0.363636 0.738636
vt 0.363636 0.738636
vt 0.352273 0.738636
vt 0.724479 0.499882
vt 0.280035 0.499882
vt 0.280035 0.515033
vt 0.701041 0.772727
vt 0.256597 0.772727
vt 0.256597 0.787879
vt 0.045455 0.250000
vt 1.000000 0.295455
vt 0.909091 1.250000
vt 0.977778 0.000000
vt 0.511111 0.333333
vt 0.955555 0.333333
vt 0.488889 0.000000
vt 0.000000 0.000000
vt 0.000000 0.333333
vt 0.488889 0.651515
vt 0.000000 0.666667
vt 0.488889 0.666667
vt 0.296875 0.484375
vt 0.296875 0.787405
vt 0.704948 0.681818
vt 0.175409 0.772094
vt 0.136364 0.750000
vt 0.724479 0.515033
vt 0.701041 0.787879
vt 0.000000 0.250000
vt 0.488889 0.333333
vt 0.488889 0.000000
vt 0.977778 0.333333
vt 0.955555 0.333333
vt 0.488889 0.333333
vt 0.488889 0.348485
vt 0.466666 0.772727
vt 0.488889 0.666667
vt 0.466666 0.681818
vt 0.000000 0.666667
vt 0.022222 0.772727
vt 0.022222 0.681818
vt 0.466667 0.878788
vt 0.488889 1.000000
vt 0.466667 0.984848
vt 0.466667 1.000000
vt 0.466667 0.893939
vt 0.466666 0.666667
vt 0.466667 0.787879
vt 0.022222 0.893939
vt 0.000000 1.000000
vt 0.022222 0.984848
vt 0.022222 1.000000
vt 0.022222 0.878788
vt 0.022222 0.666667
vt 0.022222 0.787879
vn 0.0000 0.0000 1.0000
vn -0.0000 0.0000 -1.0000
vn 0.0000 -1.0000 0.0000
vn 1.0000 0.0000 0.0000
vn 0.0000 1.0000 0.0000
vn -1.0000 0.0000 0.0000
usemtl Material
s off
f 18/1/1 11/2/1 12/3/1
f 9/4/1 10/5/1 13/6/1
f 3/7/2 7/8/2 5/9/2
f 11/10/1 26/11/1 12/12/1
f 27/13/1 18/14/1 25/15/1
f 12/12/1 26/11/1 24/16/1
f 28/17/1 24/16/1 18/18/1
f 22/19/1 16/20/1 17/21/1
f 20/22/1 14/23/1 15/24/1
f 6/25/3 5/26/3 7/27/3
f 7/28/4 26/29/4 11/30/4
f 4/31/5 3/32/5 1/33/5
f 10/34/6 5/35/6 6/36/6
f 11/2/1 18/1/1 27/37/1
f 18/1/1 12/3/1 28/38/1
f 9/4/1 13/6/1 19/39/1
f 3/7/2 5/9/2 1/40/2
f 27/13/1 25/15/1 11/41/1
f 12/12/1 24/16/1 28/17/1
f 22/19/1 17/21/1 23/42/1
f 20/22/1 15/24/1 21/43/1
f 6/25/3 7/27/3 8/44/3
f 4/45/4 26/29/4 3/46/4
f 3/46/4 26/29/4 7/28/4
f 8/47/1 11/30/1 25/48/1
f 7/28/4 11/30/4 8/47/4
f 4/31/5 1/33/5 2/49/5
f 5/35/6 9/50/6 1/33/6
f 1/33/6 9/50/6 2/49/6
f 9/50/6 5/35/6 10/34/6
s 1
f 20/51/1 2/52/1 19/53/1
f 6/54/1 14/55/1 13/56/1
f 2/52/1 22/57/1 4/58/1
f 4/58/1 24/59/1 26/60/1
f 24/59/1 4/58/1 23/61/1
f 23/61/1 4/58/1 22/57/1
f 19/53/1 2/52/1 9/62/1
f 22/57/1 2/52/1 21/63/1
f 21/63/1 2/52/1 20/51/1
f 17/64/1 8/65/1 18/66/1
f 18/66/1 8/65/1 25/67/1
f 17/64/1 16/68/1 8/65/1
f 8/65/1 16/68/1 6/54/1
f 6/54/1 13/56/1 10/69/1
f 14/55/1 6/54/1 15/70/1
f 15/70/1 6/54/1 16/68/1
