# Blender 4.1.1
# www.blender.org
mtllib block1.mtl
o Cube
v 0.500000 9.868228 -3.817126
v 0.500000 1.332712 -3.817126
v 0.500000 9.868228 3.817126
v 0.500000 1.332712 3.817126
v -0.500000 9.884151 -3.830638
v -0.500000 1.316789 -3.830638
v -0.500000 9.884151 3.830638
v -0.500000 1.316789 3.830638
v 1.000000 11.695125 -5.367372
v 1.000000 -0.494185 -5.367372
v 1.000000 11.695125 5.367372
v 1.000000 -0.494185 5.367372
v -1.000000 -0.494185 -5.367372
v -1.000000 -0.494185 5.367372
v -1.000000 11.695125 5.367372
v -1.000000 11.695125 -5.367372
vn -0.0000 1.0000 -0.0000
vn -0.0000 -0.0000 1.0000
vn -1.0000 -0.0000 -0.0000
vn -0.0000 -1.0000 -0.0000
vn 1.0000 -0.0000 -0.0000
vn -0.0000 -0.0000 -1.0000
vn 0.9517 -0.0000 0.3070
vn 0.9517 -0.0000 -0.3070
vn 0.9645 -0.2640 -0.0000
vn 0.9645 0.2640 -0.0000
vn -0.9639 0.2661 -0.0000
vn -0.9509 -0.0000 -0.3094
vn -0.9509 -0.0000 0.3094
vn -0.9639 -0.2661 -0.0000
vt 0.805063 0.389954
vt 0.633927 0.389954
vt 0.633927 0.535553
vt 0.805063 0.535553
vt 0.432440 0.752912
vt 0.578039 0.752912
vt 0.578039 0.589061
vt 0.432440 0.589061
vt 0.432440 0.535553
vt 0.578039 0.535553
vt 0.578039 0.389954
vt 0.432440 0.389954
vt 0.376553 0.389954
vt 0.205417 0.389954
vt 0.205417 0.535553
vt 0.376553 0.535553
vt 0.025357 0.980392
vt 0.985123 0.980392
vt 0.985123 0.020625
vt 0.025357 0.020625
vt 0.432440 0.336446
vt 0.578039 0.336446
vt 0.578039 0.172595
vt 0.432440 0.172595
vt 0.971212 0.489496
vt 0.039267 0.489496
vt 0.039267 0.833241
vt 0.971212 0.833241
vt 0.940718 0.966694
vt 0.069761 0.966694
vt 0.069761 0.463927
vt 0.940718 0.463927
vt 0.300501 0.019778
vt 0.300501 0.979947
vt 0.670404 0.979947
vt 0.670404 0.019778
vt 0.295785 0.179828
vt 0.295785 0.913647
vt 0.578487 0.913647
vt 0.578487 0.179828
s 0
usemtl Metal
f 9/1/1 16/2/1 15/3/1 11/4/1
f 12/5/2 11/6/2 15/7/2 14/8/2
f 8/9/3 7/10/3 5/11/3 6/12/3
f 13/13/4 10/14/4 12/15/4 14/16/4
f 2/17/5 1/18/5 3/19/5 4/20/5
f 13/21/6 16/22/6 9/23/6 10/24/6
f 1/25/7 2/26/7 10/27/7 9/28/7
f 4/29/8 3/30/8 11/31/8 12/32/8
f 3/33/9 1/34/9 9/35/9 11/36/9
f 2/37/10 4/38/10 12/39/10 10/40/10
f 8/9/11 6/12/11 13/13/11 14/16/11
f 7/10/12 8/9/12 14/8/12 15/7/12
f 6/12/13 5/11/13 16/22/13 13/21/13
f 5/11/14 7/10/14 15/3/14 16/2/14
