# Blender 4.1.1
# www.blender.org
mtllib pilar2.mtl
o Cube
v -0.885585 0.454604 2.014368
v -0.885585 8.075621 2.014368
v -0.885585 0.454604 -1.978526
v -0.885585 8.075621 -1.978526
v 0.885585 0.454604 2.014368
v 0.885585 8.075621 2.014368
v 0.885585 0.454604 -1.978526
v 0.885585 8.075621 -1.978526
v -2.018316 0.415396 0.894697
v -2.018316 8.114828 0.894697
v -2.018316 8.114828 -0.894697
v -2.018316 0.415396 -0.894697
v 1.952467 0.415396 -0.894697
v 1.952467 8.114828 -0.894697
v 1.952467 8.114828 0.894697
v 1.952467 0.415396 0.894697
v -1.310000 -1.371577 -1.310000
v -1.310000 -1.371577 1.310000
v -1.310000 9.901802 1.310000
v -1.310000 9.901802 -1.310000
v 1.310000 9.901802 -1.310000
v 1.310000 -1.371577 -1.310000
v 1.310000 -1.371577 1.310000
v 1.310000 9.901802 1.310000
vn -1.0000 -0.0000 -0.0000
vn -0.0000 -0.0000 -1.0000
vn 1.0000 -0.0000 -0.0000
vn -0.0000 -0.0000 1.0000
vn -0.0000 -1.0000 -0.0000
vn -0.0000 1.0000 -0.0000
vn -0.8565 -0.0000 0.5161
vn -0.8442 -0.0000 -0.5360
vn -0.0000 -0.3438 -0.9391
vn -0.0000 0.3438 -0.9391
vn 0.8442 -0.0000 -0.5360
vn 0.8565 -0.0000 0.5161
vn -0.0000 -0.3599 0.9330
vn -0.0000 0.3599 0.9330
vn -0.9296 -0.3685 -0.0000
vn -0.5058 -0.0000 0.8627
vn -0.9296 0.3685 -0.0000
vn -0.5058 -0.0000 -0.8627
vn 0.5429 -0.0000 -0.8398
vn 0.9410 -0.3383 -0.0000
vn 0.9410 0.3383 -0.0000
vn 0.5429 -0.0000 0.8398
vt 0.219878 0.551608
vt 0.041419 0.705737
vt 0.041419 0.551608
vt 0.480267 0.549686
vt 0.303625 0.703620
vt 0.303625 0.549686
vt 0.742473 0.545004
vt 0.564013 0.699622
vt 0.564013 0.545004
vt 0.741564 0.848130
vt 0.564922 1.000000
vt 0.564922 0.848130
vt 0.331578 0.066872
vt 0.070290 0.328157
vt 0.070290 0.066862
vt 0.466289 0.331359
vt 0.727577 0.070055
vt 0.727577 0.331349
vt 0.218970 0.398221
vt -0.000000 0.480228
vt 0.042328 0.398221
vt 0.522594 0.480097
vt 0.289608 0.000007
vt 0.112973 0.000000
vt 0.508972 0.398221
vt 0.685608 0.398214
vt 0.741564 0.398221
vt 0.522594 0.477123
vt 0.564922 0.398221
vt 0.783892 0.775863
vt 0.112973 0.398214
vt 0.331578 0.328166
vt 0.289609 0.398221
vt 0.685608 0.000000
vt 0.466289 0.070065
vt 0.508972 0.000007
vt 0.000000 0.108091
vt 0.000000 0.286549
vt 0.261297 0.480228
vt 0.395999 0.111673
vt 0.395999 0.290130
vt 0.481176 0.398221
vt 0.261297 0.480097
vt 0.302716 0.398221
vt 0.783892 0.477123
vt 0.395999 0.286564
vt 0.395999 0.108106
vt 0.791998 0.290115
vt 0.791998 0.111658
vt 0.742473 0.699622
vt 0.522594 0.775863
vt 0.564013 0.699622
vt 0.219878 0.705737
vt 0.480267 0.703620
vt 0.742473 0.699622
vt 0.741564 1.000000
s 0
f 10/1/1 12/2/1 9/3/1
f 4/4/2 7/5/2 3/6/2
f 14/7/3 16/8/3 13/9/3
f 6/10/4 1/11/4 5/12/4
f 22/13/5 18/14/5 17/15/5
f 20/16/6 24/17/6 21/18/6
f 2/19/7 18/20/7 1/21/7
f 3/6/8 20/22/8 4/4/8
f 7/23/9 17/15/9 3/24/9
f 4/25/10 21/18/10 8/26/10
f 8/27/11 22/28/11 7/29/11
f 5/12/12 24/30/12 6/10/12
f 1/31/13 23/32/13 5/33/13
f 6/34/14 19/35/14 2/36/14
f 12/37/15 18/14/15 9/38/15
f 9/3/16 19/39/16 10/1/16
f 10/40/17 20/16/17 11/41/17
f 11/42/18 17/43/18 12/44/18
f 13/9/19 21/45/19 14/7/19
f 16/46/20 22/13/20 13/47/20
f 14/48/21 24/17/21 15/49/21
f 15/50/22 23/51/22 16/52/22
f 10/1/1 11/53/1 12/2/1
f 4/4/2 8/54/2 7/5/2
f 14/7/3 15/55/3 16/8/3
f 6/10/4 2/56/4 1/11/4
f 22/13/5 23/32/5 18/14/5
f 20/16/6 19/35/6 24/17/6
f 2/19/7 19/39/7 18/20/7
f 3/6/8 17/43/8 20/22/8
f 7/23/9 22/13/9 17/15/9
f 4/25/10 20/16/10 21/18/10
f 8/27/11 21/45/11 22/28/11
f 5/12/12 23/51/12 24/30/12
f 1/31/13 18/14/13 23/32/13
f 6/34/14 24/17/14 19/35/14
f 12/37/15 17/15/15 18/14/15
f 9/3/16 18/20/16 19/39/16
f 10/40/17 19/35/17 20/16/17
f 11/42/18 20/22/18 17/43/18
f 13/9/19 22/28/19 21/45/19
f 16/46/20 23/32/20 22/13/20
f 14/48/21 21/18/21 24/17/21
f 15/50/22 24/30/22 23/51/22
