# Blender 4.1.1
# www.blender.org
mtllib pilar1.mtl
o Cube
v -1.000000 -0.322868 1.000000
v -0.651781 6.556758 0.651781
v -1.000000 -0.322868 -1.000000
v 1.000000 -0.322868 1.000000
v 1.000000 -0.322868 -1.000000
v -1.000000 4.663267 -1.000000
v 1.000000 4.663267 1.000000
vn -0.9881 0.0572 0.1427
vn -0.0000 -1.0000 -0.0000
vn 0.6358 0.4377 -0.6358
vn -0.0000 -0.0000 -1.0000
vn -1.0000 -0.0000 -0.0000
vn 1.0000 -0.0000 -0.0000
vn -0.0000 -0.0000 1.0000
vn 0.6803 0.2729 -0.6803
vn -0.1427 0.0572 0.9881
vt 0.511846 0.246282
vt 1.000000 0.246282
vt 0.897992 0.492565
vt 0.511846 0.840860
vt 0.860142 0.492565
vt 0.860142 0.840860
vt -0.000000 0.056526
vt 0.316164 -0.000000
vt 0.000000 0.377704
vt 0.195682 0.541503
vt 0.482291 0.460238
vt 0.555114 0.492565
vt 0.511846 0.163799
vt 0.555114 0.000000
vt 0.897992 0.000000
vt 0.511846 0.492565
s 0
f 1/1/1 2/2/1 6/3/1
f 5/4/2 1/5/2 3/6/2
f 2/7/3 7/8/3 6/9/3
f 3/10/4 6/9/4 5/11/4
f 3/12/5 1/1/5 6/3/5
f 4/13/6 5/11/6 7/8/6
f 4/14/7 7/15/7 1/1/7
f 7/8/8 5/11/8 6/9/8
f 1/1/9 7/15/9 2/2/9
f 5/4/2 4/16/2 1/5/2
